{
.appVersion = "926";
DisplayStrings = (
"/Alpha-latin/alpha-latin \012/Alpha-latin/alpha-latin \012/Alpha-latin/Alpha-latin/Alpha-latin/Alpha-latin"
);
classes = (
{
automatic = 1;

glyphs = (
{
color = 5;
glyphname = A;
layers = (
{
anchors = (
{
name = bottom;
position = "{293, 0}";
},
{
name = ogonek;
position = "{526, 10}";
},
{
name = top;
position = "{293, 682}";
}
);
background = {
components = (
{
name = V;
transform = "{1, 0, 0, -1, 12, 682}";
}
);
};
layerId = "63224BA1-30A4-42F4-A6D1-9160F56B91B0";
paths = (
{
closed = 1;
nodes = (
"87 0 LINE",
"155 206 LINE",
"168 238 LINE",
"303 626 LINE",
"273 626 LINE",
"503 0 LINE",
"573 0 LINE",
"324 682 LINE",
"254 682 LINE",
"12 0 LINE"
);
},
{
closed = 1;
nodes = (
"442 191 LINE",
"420 253 LINE",
"157 253 LINE",
"134 191 LINE"
);
}
);
width = 585;
}
);
leftKerningGroup = A;
rightKerningGroup = A;
unicode = 0041;
},
{
color = 6;
glyphname = "Alpha-latin";
layers = (
{
background = {
anchors = (
{
name = bottom;
position = "{348, 0}";
},
{
name = center;
position = "{348, 341}";
},
{
name = ogonek;
position = "{626, 10}";
},
{
name = top;
position = "{348, 682}";
},
{
name = topleft;
position = "{20, 682}";
},
{
name = topright;
position = "{676, 682}";
}
);
paths = (
{
closed = 1;
nodes = (
"489 -16 OFFCURVE",
"588 131 OFFCURVE",
"588 339 CURVE SMOOTH",
"588 549 OFFCURVE",
"489 697 OFFCURVE",
"348 697 CURVE SMOOTH",
"176 697 OFFCURVE",
"55 549 OFFCURVE",
"55 340 CURVE SMOOTH",
"55 131 OFFCURVE",
"176 -16 OFFCURVE",
"348 -16 CURVE SMOOTH"
);
},
{
closed = 1;
nodes = (
"223 53 OFFCURVE",
"134 172 OFFCURVE",
"134 340 CURVE SMOOTH",
"134 509 OFFCURVE",
"223 629 OFFCURVE",
"348 629 CURVE SMOOTH",
"465 629 OFFCURVE",
"549 509 OFFCURVE",
"549 340 CURVE SMOOTH",
"549 172 OFFCURVE",
"465 53 OFFCURVE",
"348 53 CURVE SMOOTH"
);
},
{
closed = 1;
nodes = (
"628 0 LINE",
"628 682 LINE",
"553 682 LINE",
"553 0 LINE"
);
}
);
};
layerId = "63224BA1-30A4-42F4-A6D1-9160F56B91B0";
paths = (
{
closed = 1;
nodes = (
"505 -16 OFFCURVE",
"596 121 OFFCURVE",
"596 339 CURVE",
"624 339 LINE",
"621 579 OFFCURVE",
"509 697 OFFCURVE",
"348 697 CURVE SMOOTH",
"176 697 OFFCURVE",
"55 549 OFFCURVE",
"55 340 CURVE SMOOTH",
"55 131 OFFCURVE",
"176 -16 OFFCURVE",
"348 -16 CURVE SMOOTH"
);
},
{
closed = 1;
nodes = (
"223 53 OFFCURVE",
"134 172 OFFCURVE",
"134 340 CURVE SMOOTH",
"134 509 OFFCURVE",
"223 629 OFFCURVE",
"348 629 CURVE SMOOTH",
"465 629 OFFCURVE",
"549 539 OFFCURVE",
"549 340 CURVE SMOOTH",
"549 152 OFFCURVE",
"465 53 OFFCURVE",
"348 53 CURVE SMOOTH"
);
},
{
closed = 1;
nodes = (
"737 68 LINE",
"710 68 LINE SMOOTH",
"656 68 OFFCURVE",
"624 98 OFFCURVE",
"624 148 CURVE SMOOTH",
"624 339 LINE",
"559 339 LINE",
"559 148 LINE",
"559 55 OFFCURVE",
"615 0 OFFCURVE",
"710 0 CURVE SMOOTH",
"737 0 LINE"
);
}
);
width = 708;
},
{
associatedMasterId = "63224BA1-30A4-42F4-A6D1-9160F56B91B0";
background = {
anchors = (
{
name = bottom;
position = "{348, 0}";
},
{
name = center;
position = "{348, 341}";
},
{
name = ogonek;
position = "{626, 10}";
},
{
name = top;
position = "{348, 682}";
},
{
name = topleft;
position = "{20, 682}";
},
{
name = topright;
position = "{676, 682}";
}
);
paths = (
{
closed = 1;
nodes = (
"489 -16 OFFCURVE",
"588 131 OFFCURVE",
"588 339 CURVE SMOOTH",
"588 549 OFFCURVE",
"489 697 OFFCURVE",
"348 697 CURVE SMOOTH",
"176 697 OFFCURVE",
"55 549 OFFCURVE",
"55 340 CURVE SMOOTH",
"55 131 OFFCURVE",
"176 -16 OFFCURVE",
"348 -16 CURVE SMOOTH"
);
},
{
closed = 1;
nodes = (
"223 53 OFFCURVE",
"134 172 OFFCURVE",
"134 340 CURVE SMOOTH",
"134 509 OFFCURVE",
"223 629 OFFCURVE",
"348 629 CURVE SMOOTH",
"465 629 OFFCURVE",
"549 509 OFFCURVE",
"549 340 CURVE SMOOTH",
"549 172 OFFCURVE",
"465 53 OFFCURVE",
"348 53 CURVE SMOOTH"
);
},
{
closed = 1;
nodes = (
"628 0 LINE",
"628 682 LINE",
"553 682 LINE",
"553 0 LINE"
);
}
);
};
layerId = "D2BCB1A3-1653-4C60-BC2F-CB35F86DF769";
name = old;
paths = (
{
closed = 1;
nodes = (
"495 -16 OFFCURVE",
"596 131 OFFCURVE",
"596 339 CURVE SMOOTH",
"596 549 OFFCURVE",
"495 697 OFFCURVE",
"348 697 CURVE SMOOTH",
"176 697 OFFCURVE",
"55 549 OFFCURVE",
"55 340 CURVE SMOOTH",
"55 131 OFFCURVE",
"176 -16 OFFCURVE",
"348 -16 CURVE SMOOTH"
);
},
{
closed = 1;
nodes = (
"223 53 OFFCURVE",
"134 172 OFFCURVE",
"134 340 CURVE SMOOTH",
"134 509 OFFCURVE",
"223 629 OFFCURVE",
"348 629 CURVE SMOOTH",
"465 629 OFFCURVE",
"549 539 OFFCURVE",
"549 340 CURVE SMOOTH",
"549 152 OFFCURVE",
"465 53 OFFCURVE",
"348 53 CURVE SMOOTH"
);
},
{
closed = 1;
nodes = (
"628 0 LINE",
"628 682 LINE",
"553 682 LINE",
"553 0 LINE"
);
}
);
width = 708;
}
);
leftKerningGroup = "Alpha-latin";
leftMetricsKey = O;
rightKerningGroup = "Alpha-latin";
unicode = 2C6D;
},
{
color = 5;
glyphname = AE;
layers = (
{
anchors = (
{
name = bottom;
position = "{575, 0}";
},
{
name = top;
position = "{557, 682}";
}
);
background = {
components = (
{
name = A;
transform = "{1, 0, 0, 1, 42, 0}";
}
);
};
layerId = "63224BA1-30A4-42F4-A6D1-9160F56B91B0";
paths = (
{
closed = 1;
nodes = (
"70 0 LINE",
"398 562 LINE",
"398 253 LINE",
"191 253 LINE",
"157 198 LINE",
"398 198 LINE",
"398 0 LINE",
"783 0 LINE",
"783 62 LINE",
"472 62 LINE",
"472 340 LINE",
"712 340 LINE",
"712 401 LINE",
"472 401 LINE",
"472 619 LINE",
"780 619 LINE",
"780 682 LINE",
"398 682 LINE",
"398 680 LINE",
"0 0 LINE"
);
}
);
width = 822;
}
);
leftKerningGroup = A;
rightKerningGroup = E;
rightMetricsKey = E;
unicode = 00C6;
},
{
color = 5;
glyphname = B;
layers = (
{
anchors = (
{
name = bottom;
position = "{287, 0}";
},
{
name = top;
position = "{287, 682}";
}
);
background = {
paths = (
{
closed = 1;
nodes = (
"79 0 LINE",
"327 0 LINE SMOOTH",
"456 0 OFFCURVE",
"533 75 OFFCURVE",
"533 201 CURVE SMOOTH",
"533 327 OFFCURVE",
"454 401 OFFCURVE",
"319 401 CURVE SMOOTH",
"154 401 LINE",
"154 682 LINE",
"79 682 LINE"
);
},
{
closed = 1;
nodes = (
"154 339 LINE",
"317 339 LINE SMOOTH",
"403 339 OFFCURVE",
"454 288 OFFCURVE",
"454 201 CURVE SMOOTH",
"454 114 OFFCURVE",
"403 62 OFFCURVE",
"317 62 CURVE",
"154 62 LINE"
);
},
{
closed = 1;
nodes = (
"90 359 LINE",
"321 359 LINE SMOOTH",
"437 359 OFFCURVE",
"509 416 OFFCURVE",
"509 511 CURVE SMOOTH",
"509 618 OFFCURVE",
"436 682 OFFCURVE",
"314 682 CURVE SMOOTH",
"90 682 LINE"
);
},
{
closed = 1;
nodes = (
"154 619 LINE",
"313 619 LINE SMOOTH",
"386 619 OFFCURVE",
"430 579 OFFCURVE",
"430 511 CURVE SMOOTH",
"430 443 OFFCURVE",
"386 401 OFFCURVE",
"313 401 CURVE",
"154 401 LINE"
);
}
);
};
layerId = "63224BA1-30A4-42F4-A6D1-9160F56B91B0";
paths = (
{
closed = 1;
nodes = (
"327 0 LINE SMOOTH",
"456 0 OFFCURVE",
"533 75 OFFCURVE",
"533 196 CURVE SMOOTH",
"533 299 OFFCURVE",
"478 357 OFFCURVE",
"389 371 CURVE",
"390 360 LINE",
"459 380 OFFCURVE",
"499 431 OFFCURVE",
"499 508 CURVE SMOOTH",
"499 612 OFFCURVE",
"426 682 OFFCURVE",
"304 682 CURVE SMOOTH",
"79 682 LINE",
"79 0 LINE"
);
},
{
closed = 1;
nodes = (
"154 329 LINE",
"317 329 LINE SMOOTH",
"403 329 OFFCURVE",
"454 278 OFFCURVE",
"454 196 CURVE SMOOTH",
"454 114 OFFCURVE",
"403 62 OFFCURVE",
"317 62 CURVE SMOOTH",
"154 62 LINE"
);
},
{
closed = 1;
nodes = (
"154 619 LINE",
"303 619 LINE SMOOTH",
"376 619 OFFCURVE",
"420 579 OFFCURVE",
"420 508 CURVE SMOOTH",
"420 433 OFFCURVE",
"386 391 OFFCURVE",
"313 391 CURVE SMOOTH",
"154 391 LINE"
);
}
);
width = 574;
}
);
leftKerningGroup = H;
rightKerningGroup = B;
unicode = 0042;
},
{
color = 6;
glyphname = Bhook;
layers = (
{
background = {
components = (
{
name = B;
transform = "{1, 0, 0, 1, 123, 0}";
}
);
};
components = (
{
name = B;
transform = "{1, 0, 0, 1, 123, 0}";
}
);
layerId = "63224BA1-30A4-42F4-A6D1-9160F56B91B0";
paths = (
{
closed = 1;
nodes = (
"218 682 LINE",
"176 682 LINE SMOOTH",
"91 682 OFFCURVE",
"27 616 OFFCURVE",
"27 534 CURVE SMOOTH",
"27 426 LINE",
"90 426 LINE",
"90 534 LINE SMOOTH",
"90 582 OFFCURVE",
"129 614 OFFCURVE",
"176 614 CURVE SMOOTH",
"218 614 LINE"
);
}
);
width = 697;
}
);
leftKerningGroup = Bhook;
rightKerningGroup = Bhook;
rightMetricsKey = B;
unicode = 0181;
},
{
color = 6;
glyphname = Bstroke;
layers = (
{
layerId = "63224BA1-30A4-42F4-A6D1-9160F56B91B0";
paths = (
{
closed = 1;
nodes = (
"299 0 LINE SMOOTH",
"363 0 OFFCURVE",
"418 17 OFFCURVE",
"465 52 CURVE SMOOTH",
"512 87 OFFCURVE",
"536 136 OFFCURVE",
"536 200 CURVE SMOOTH",
"536 287 OFFCURVE",
"488 346 OFFCURVE",
"415 377 CURVE",
"465 410 OFFCURVE",
"490 455 OFFCURVE",
"490 511 CURVE SMOOTH",
"490 561 OFFCURVE",
"470 602 OFFCURVE",
"429 634 CURVE SMOOTH",
"389 666 OFFCURVE",
"340 682 OFFCURVE",
"281 682 CURVE SMOOTH",
"79 682 LINE",
"79 232 LINE",
"43 232 LINE",
"43 184 LINE",
"79 184 LINE",
"79 0 LINE"
);
},
{
closed = 1;
nodes = (
"154 184 LINE",
"315 184 LINE",
"315 232 LINE",
"154 232 LINE",
"154 338 LINE",
"297 338 LINE SMOOTH",
"388 338 OFFCURVE",
"454 289 OFFCURVE",
"454 200 CURVE SMOOTH",
"454 112 OFFCURVE",
"386 62 OFFCURVE",
"297 62 CURVE SMOOTH",
"154 62 LINE"
);
},
{
closed = 1;
nodes = (
"154 619 LINE",
"281 619 LINE",
"362 619 OFFCURVE",
"408 568 OFFCURVE",
"408 511 CURVE SMOOTH",
"408 452 OFFCURVE",
"362 401 OFFCURVE",
"281 401 CURVE SMOOTH",
"154 401 LINE"
);
}
);
width = 574;
}
);
leftKerningGroup = Bstroke;
rightKerningGroup = Bstroke;
unicode = 0243;
},
{
color = 5;
glyphname = C;
layers = (
{
anchors = (
{
name = bottom;
position = "{333, 0}";
},
{
name = top;
position = "{327, 682}";
}
);
background = {
components = (
{
name = O;
transform = "{1, 0, 0, 1, -1, 0}";
}
);
};
layerId = "63224BA1-30A4-42F4-A6D1-9160F56B91B0";
paths = (
{
closed = 1;
nodes = (
"445 -16 OFFCURVE",
"523 43 OFFCURVE",
"570 144 CURVE",
"507 182 LINE",
"467 103 OFFCURVE",
"425 52 OFFCURVE",
"323 52 CURVE SMOOTH",
"208 52 OFFCURVE",
"134 160 OFFCURVE",
"134 340 CURVE SMOOTH",
"134 522 OFFCURVE",
"205 629 OFFCURVE",
"324 629 CURVE SMOOTH",
"405 629 OFFCURVE",
"460 599 OFFCURVE",
"504 519 CURVE",
"564 554 LINE",
"520 643 OFFCURVE",
"439 697 OFFCURVE",
"324 697 CURVE SMOOTH",
"157 697 OFFCURVE",
"55 564 OFFCURVE",
"55 339 CURVE SMOOTH",
"55 116 OFFCURVE",
"160 -16 OFFCURVE",
"333 -16 CURVE SMOOTH"
);
}
);
width = 605;
}
);
leftKerningGroup = O;
leftMetricsKey = O;
rightKerningGroup = C;
unicode = 0043;
},
{
color = 6;
glyphname = Chook;
layers = (
{
background = {
components = (
{
name = C;
}
);
};
components = (
{
name = C;
}
);
layerId = "63224BA1-30A4-42F4-A6D1-9160F56B91B0";
paths = (
{
closed = 1;
nodes = (
"564 554 LINE",
"564 612 LINE SMOOTH",
"564 654 OFFCURVE",
"600 692 OFFCURVE",
"650 692 CURVE",
"650 760 LINE",
"568 760 OFFCURVE",
"504 698 OFFCURVE",
"502 615 CURVE"
);
}
);
width = 685;
}
);
leftKerningGroup = Chook;
leftMetricsKey = O;
rightKerningGroup = Chook;
rightMetricsKey = C;
unicode = 0187;
},
{
color = 6;
glyphname = Cstroke;
layers = (
{
background = {
paths = (
{
closed = 1;
nodes = (
"154 -45 LINE",
"505 709 LINE",
"459 730 LINE",
"108 -23 LINE"
);
}
);
};
components = (
{
name = C;
}
);
layerId = "63224BA1-30A4-42F4-A6D1-9160F56B91B0";
paths = (
{
closed = 1;
nodes = (
"154 -45 LINE",
"505 709 LINE",
"459 730 LINE",
"108 -23 LINE"
);
}
);
width = 605;
}
);
leftKerningGroup = Cstroke;
rightKerningGroup = Cstroke;
unicode = 023B;
},
{
color = 5;
glyphname = D;
layers = (
{
anchors = (
{
name = bottom;
position = "{301, 0}";
},
{
name = center;
position = "{141, 341}";
},
{
name = top;
position = "{241, 682}";
}
);
layerId = "63224BA1-30A4-42F4-A6D1-9160F56B91B0";
paths = (
{
closed = 1;
nodes = (
"249 0 LINE",
"461 0 OFFCURVE",
"586 126 OFFCURVE",
"586 340 CURVE SMOOTH",
"586 555 OFFCURVE",
"461 682 OFFCURVE",
"249 682 CURVE SMOOTH",
"80 682 LINE",
"80 0 LINE"
);
},
{
closed = 1;
nodes = (
"155 613 LINE",
"247 613 LINE SMOOTH",
"403 613 OFFCURVE",
"507 532 OFFCURVE",
"507 340 CURVE SMOOTH",
"507 149 OFFCURVE",
"403 68 OFFCURVE",
"247 68 CURVE SMOOTH",
"155 68 LINE"
);
}
);
width = 641;
}
);
leftKerningGroup = H;
leftMetricsKey = H;
rightKerningGroup = O;
rightMetricsKey = O;
unicode = 0044;
},
{
color = 6;
glyphname = Dhook;
layers = (
{
background = {
components = (
{
name = Bhook;
}
);
};
components = (
{
name = D;
transform = "{1, 0, 0, 1, 122, 0}";
}
);
layerId = "63224BA1-30A4-42F4-A6D1-9160F56B91B0";
paths = (
{
closed = 1;
nodes = (
"218 682 LINE",
"176 682 LINE SMOOTH",
"91 682 OFFCURVE",
"27 616 OFFCURVE",
"27 534 CURVE SMOOTH",
"27 426 LINE",
"90 426 LINE",
"90 534 LINE SMOOTH",
"90 582 OFFCURVE",
"129 614 OFFCURVE",
"176 614 CURVE SMOOTH",
"218 614 LINE"
);
}
);
width = 763;
}
);
leftKerningGroup = Dhook;
rightKerningGroup = Dhook;
rightMetricsKey = D;
unicode = 018A;
},
{
color = 5;
glyphname = E;
layers = (
{
anchors = (
{
name = bottom;
position = "{272, 0}";
},
{
name = ogonek;
position = "{434, 0}";
},
{
name = top;
position = "{282, 682}";
},
{
name = topleft;
position = "{20, 682}";
}
);
layerId = "63224BA1-30A4-42F4-A6D1-9160F56B91B0";
paths = (
{
closed = 1;
nodes = (
"464 0 LINE",
"464 62 LINE",
"154 62 LINE",
"154 320 LINE",
"394 320 LINE",
"394 381 LINE",
"154 381 LINE",
"154 619 LINE",
"461 619 LINE",
"461 682 LINE",
"79 682 LINE",
"79 0 LINE"
);
}
);
width = 503;
}
);
leftKerningGroup = H;
rightKerningGroup = E;
unicode = 0045;
},
{
color = 6;
glyphname = Eopen;
layers = (
{
layerId = "63224BA1-30A4-42F4-A6D1-9160F56B91B0";
paths = (
{
closed = 1;
nodes = (
"395 -16 OFFCURVE",
"457 16 OFFCURVE",
"506 79 CURVE",
"453 121 LINE",
"420 75 OFFCURVE",
"363 52 OFFCURVE",
"282 52 CURVE SMOOTH",
"196 52 OFFCURVE",
"121 106 OFFCURVE",
"121 186 CURVE SMOOTH",
"121 269 OFFCURVE",
"185 327 OFFCURVE",
"294 327 CURVE",
"294 394 LINE",
"189 394 OFFCURVE",
"144 443 OFFCURVE",
"144 511 CURVE SMOOTH",
"144 575 OFFCURVE",
"198 630 OFFCURVE",
"277 630 CURVE SMOOTH",
"348 630 OFFCURVE",
"387 614 OFFCURVE",
"416 578 CURVE",
"466 625 LINE",
"420 673 OFFCURVE",
"356 697 OFFCURVE",
"277 697 CURVE SMOOTH",
"161 697 OFFCURVE",
"69 633 OFFCURVE",
"69 511 CURVE SMOOTH",
"69 447 OFFCURVE",
"105 398 OFFCURVE",
"177 365 CURVE",
"90 334 OFFCURVE",
"46 279 OFFCURVE",
"46 202 CURVE SMOOTH",
"46 63 OFFCURVE",
"141 -16 OFFCURVE",
"282 -16 CURVE SMOOTH"
);
}
);
width = 516;
}
);
leftKerningGroup = Eopen;
rightKerningGroup = Eopen;
unicode = 0190;
},
{
color = 6;
glyphname = Ereversed;
layers = (
{
layerId = "63224BA1-30A4-42F4-A6D1-9160F56B91B0";
paths = (
{
closed = 1;
nodes = (
"424 0 LINE",
"424 682 LINE",
"42 682 LINE",
"42 619 LINE",
"350 619 LINE",
"350 401 LINE",
"110 401 LINE",
"110 340 LINE",
"350 340 LINE",
"350 62 LINE",
"39 62 LINE",
"39 0 LINE"
);
}
);
width = 503;
}
);
leftKerningGroup = Ereversed;
rightKerningGroup = Ereversed;
unicode = 018E;
},
{
color = 6;
glyphname = Esh;
layers = (
{
layerId = "63224BA1-30A4-42F4-A6D1-9160F56B91B0";
paths = (
{
closed = 1;
nodes = (
"469 0 LINE",
"469 62 LINE",
"123 62 LINE",
"294 336 LINE",
"117 620 LINE",
"469 620 LINE",
"469 682 LINE",
"43 682 LINE",
"43 607 LINE",
"213 336 LINE",
"43 63 LINE",
"43 0 LINE"
);
}
);
width = 498;
}
);
leftKerningGroup = Esh;
rightKerningGroup = Esh;
unicode = 01A9;
},
{
color = 6;
glyphname = Ezh;
layers = (
{
background = {
anchors = (
{
name = bottom;
position = "{247, 0}";
},
{
name = top;
position = "{247, 682}";
}
);
paths = (
{
closed = 1;
nodes = (
"300 355 LINE",
"489 607 LINE",
"489 682 LINE",
"83 682 LINE",
"83 620 LINE",
"429 620 LINE",
"228 355 LINE"
);
}
);
};
layerId = "63224BA1-30A4-42F4-A6D1-9160F56B91B0";
paths = (
{
closed = 1;
nodes = (
"474 620 LINE",
"474 682 LINE",
"83 682 LINE",
"83 620 LINE",
"444 620 LINE",
"428 653 LINE",
"219 399 LINE",
"219 359 LINE",
"267 359 LINE SMOOTH",
"365 359 OFFCURVE",
"429 296 OFFCURVE",
"429 198 CURVE SMOOTH",
"429 97 OFFCURVE",
"361 48 OFFCURVE",
"278 49 CURVE SMOOTH",
"193 50 OFFCURVE",
"142 101 OFFCURVE",
"105 179 CURVE",
"45 144 LINE",
"91 37 OFFCURVE",
"171 -16 OFFCURVE",
"276 -16 CURVE SMOOTH",
"404 -16 OFFCURVE",
"503 61 OFFCURVE",
"503 193 CURVE SMOOTH",
"503 309 OFFCURVE",
"427 415 OFFCURVE",
"249 397 CURVE",
"264 366 LINE"
);
}
);
width = 548;
}
);
leftKerningGroup = Ezh;
rightKerningGroup = Ezh;
rightMetricsKey = "Ze-cy";
unicode = 01B7;
},
{
color = 5;
glyphname = F;
layers = (
{
anchors = (
{
name = bottom;
position = "{120, 0}";
},
{
name = top;
position = "{276, 682}";
}
);
background = {
paths = (
{
closed = 1;
nodes = (
"464 0 LINE",
"464 62 LINE",
"154 62 LINE",
"154 320 LINE",
"394 320 LINE",
"394 381 LINE",
"154 381 LINE",
"154 619 LINE",
"461 619 LINE",
"461 682 LINE",
"79 682 LINE",
"79 0 LINE"
);
}
);
};
layerId = "63224BA1-30A4-42F4-A6D1-9160F56B91B0";
paths = (
{
closed = 1;
nodes = (
"154 0 LINE",
"154 320 LINE",
"374 320 LINE",
"374 381 LINE",
"154 381 LINE",
"154 619 LINE",
"451 619 LINE",
"451 682 LINE",
"79 682 LINE",
"79 0 LINE"
);
}
);
width = 451;
}
);
leftKerningGroup = H;
rightKerningGroup = F;
unicode = 0046;
},
{
color = 6;
glyphname = Fhook;
layers = (
{
layerId = "63224BA1-30A4-42F4-A6D1-9160F56B91B0";
paths = (
{
closed = 1;
nodes = (
"-7 -200 LINE SMOOTH",
"72 -200 OFFCURVE",
"154 -137 OFFCURVE",
"154 -52 CURVE SMOOTH",
"154 340 LINE",
"394 340 LINE",
"394 401 LINE",
"154 401 LINE",
"154 619 LINE",
"461 619 LINE",
"461 682 LINE",
"79 682 LINE",
"79 -52 LINE SMOOTH",
"79 -97 OFFCURVE",
"40 -132 OFFCURVE",
"-7 -132 CURVE SMOOTH",
"-34 -132 LINE",
"-34 -200 LINE"
);
}
);
width = 479;
}
);
leftKerningGroup = Fhook;
rightKerningGroup = Fhook;
unicode = 0191;
},
{
color = 5;
glyphname = G;
layers = (
{
anchors = (
{
name = bottom;
position = "{303, 0}";
},
{
name = top;
position = "{303, 682}";
}
);
background = {
components = (
{
name = C;
transform = "{1, 0, 0, 1, -26, 0}";
}
);
paths = (
{
closed = 1;
nodes = (
"473 -16 OFFCURVE",
"564 76 OFFCURVE",
"564 291 CURVE SMOOTH",
"564 353 LINE",
"329 353 LINE",
"329 291 LINE",
"490 291 LINE",
"490 190 OFFCURVE",
"473 125 OFFCURVE",
"436 93 CURVE SMOOTH",
"400 61 OFFCURVE",
"365 52 OFFCURVE",
"305 52 CURVE",
"305 -16 LINE"
);
}
);
};
layerId = "63224BA1-30A4-42F4-A6D1-9160F56B91B0";
paths = (
{
closed = 1;
nodes = (
"453 -16 OFFCURVE",
"564 80 OFFCURVE",
"564 271 CURVE SMOOTH",
"564 333 LINE",
"329 333 LINE",
"329 271 LINE",
"490 271 LINE",
"490 125 OFFCURVE",
"408 52 OFFCURVE",
"307 52 CURVE SMOOTH",
"183 52 OFFCURVE",
"108 160 OFFCURVE",
"108 340 CURVE SMOOTH",
"108 522 OFFCURVE",
"182 629 OFFCURVE",
"307 629 CURVE SMOOTH",
"378 629 OFFCURVE",
"439 595 OFFCURVE",
"483 515 CURVE",
"542 557 LINE",
"489 645 OFFCURVE",
"416 697 OFFCURVE",
"307 697 CURVE SMOOTH",
"134 697 OFFCURVE",
"29 564 OFFCURVE",
"29 339 CURVE SMOOTH",
"29 116 OFFCURVE",
"134 -16 OFFCURVE",
"307 -16 CURVE SMOOTH"
);
}
);
width = 606;
}
);
leftKerningGroup = O;
rightKerningGroup = C;
unicode = 0047;
},
{
color = 6;
glyphname = Gammaafrican;
layers = (
{
layerId = "63224BA1-30A4-42F4-A6D1-9160F56B91B0";
paths = (
{
closed = 1;
nodes = (
"328 -200 OFFCURVE",
"360 -160 OFFCURVE",
"360 -106 CURVE SMOOTH",
"360 -54 OFFCURVE",
"342 -10 OFFCURVE",
"304 65 CURVE",
"528 682 LINE",
"449 682 LINE",
"266 152 LINE",
"79 682 LINE",
"0 682 LINE",
"224 65 LINE",
"186 -10 OFFCURVE",
"168 -54 OFFCURVE",
"168 -106 CURVE SMOOTH",
"168 -160 OFFCURVE",
"200 -200 OFFCURVE",
"264 -200 CURVE SMOOTH"
);
},
{
closed = 1;
nodes = (
"246 -142 OFFCURVE",
"238 -127 OFFCURVE",
"238 -106 CURVE SMOOTH",
"238 -80 OFFCURVE",
"246 -45 OFFCURVE",
"264 -15 CURVE",
"282 -47 OFFCURVE",
"290 -80 OFFCURVE",
"290 -106 CURVE SMOOTH",
"290 -127 OFFCURVE",
"282 -142 OFFCURVE",
"264 -142 CURVE SMOOTH"
);
}
);
width = 527;
}
);
leftKerningGroup = Gammaafrican;
rightKerningGroup = Gammaafrican;
unicode = 0194;
},
{
color = 6;
glyphname = Ghook;
layers = (
{
background = {
anchors = (
{
name = bottom;
position = "{359, 0}";
},
{
name = top;
position = "{353, 682}";
}
);
components = (
{
name = G;
transform = "{1, 0, 0, 1, 26, 0}";
}
);
paths = (
{
closed = 1;
nodes = (
"568 557 LINE",
"568 612 LINE SMOOTH",
"568 654 OFFCURVE",
"604 692 OFFCURVE",
"654 692 CURVE",
"654 760 LINE",
"572 760 OFFCURVE",
"508 698 OFFCURVE",
"506 615 CURVE"
);
}
);
};
components = (
{
name = G;
transform = "{1, 0, 0, 1, 26, 0}";
}
);
layerId = "63224BA1-30A4-42F4-A6D1-9160F56B91B0";
paths = (
{
closed = 1;
nodes = (
"568 557 LINE",
"568 612 LINE SMOOTH",
"568 654 OFFCURVE",
"604 692 OFFCURVE",
"654 692 CURVE",
"654 760 LINE",
"572 760 OFFCURVE",
"508 698 OFFCURVE",
"506 615 CURVE"
);
}
);
width = 654;
}
);
leftKerningGroup = Ghook;
leftMetricsKey = O;
rightKerningGroup = Ghook;
unicode = 0193;
},
{
color = 6;
glyphname = Glottalstop;
layers = (
{
layerId = "63224BA1-30A4-42F4-A6D1-9160F56B91B0";
paths = (
{
closed = 1;
nodes = (
"244 0 LINE",
"244 166 LINE SMOOTH",
"244 237 OFFCURVE",
"261 259 OFFCURVE",
"333 326 CURVE SMOOTH",
"394 383 OFFCURVE",
"422 415 OFFCURVE",
"422 504 CURVE SMOOTH",
"422 614 OFFCURVE",
"332 697 OFFCURVE",
"219 697 CURVE SMOOTH",
"136 697 OFFCURVE",
"60 642 OFFCURVE",
"29 559 CURVE",
"92 539 LINE",
"111 600 OFFCURVE",
"159 635 OFFCURVE",
"219 635 CURVE SMOOTH",
"302 635 OFFCURVE",
"354 580 OFFCURVE",
"354 504 CURVE SMOOTH",
"354 451 OFFCURVE",
"334 407 OFFCURVE",
"290 368 CURVE SMOOTH",
"199 286 OFFCURVE",
"176 257 OFFCURVE",
"176 166 CURVE SMOOTH",
"176 0 LINE"
);
}
);
width = 460;
}
);
leftKerningGroup = Glottalstop;
rightKerningGroup = Glottalstop;
unicode = 0241;
},
{
color = 6;
glyphname = Yogh;
layers = (
{
layerId = "63224BA1-30A4-42F4-A6D1-9160F56B91B0";
paths = (
{
closed = 1;
nodes = (
"247 393 LINE",
"321 374 OFFCURVE",
"356 329 OFFCURVE",
"356 261 CURVE SMOOTH",
"356 119 OFFCURVE",
"175 37 OFFCURVE",
"48 37 CURVE",
"48 -38 LINE",
"216 -38 OFFCURVE",
"430 95 OFFCURVE",
"430 258 CURVE SMOOTH",
"430 347 OFFCURVE",
"379 404 OFFCURVE",
"286 431 CURVE"
);
},
{
closed = 1;
nodes = (
"383 443 OFFCURVE",
"383 575 CURVE SMOOTH",
"383 644 OFFCURVE",
"333 696 OFFCURVE",
"238 696 CURVE SMOOTH",
"152 696 OFFCURVE",
"85 655 OFFCURVE",
"32 587 CURVE",
"76 550 LINE",
"108 603 OFFCURVE",
"171 633 OFFCURVE",
"231 633 CURVE SMOOTH",
"289 633 OFFCURVE",
"317 608 OFFCURVE",
"317 571 CURVE SMOOTH",
"317 494 OFFCURVE",
"251 435 OFFCURVE",
"120 367 CURVE",
"120 307 LINE",
"224 346 OFFCURVE"
);
}
);
width = 465;
}
);
leftKerningGroup = Yogh;
rightKerningGroup = Yogh;
unicode = 021C;
},
{
color = 5;
glyphname = H;
layers = (
{
anchors = (
{
name = bottom;
position = "{335, 0}";
},
{
name = center;
position = "{335, 341}";
},
{
name = top;
position = "{335, 682}";
},
{
name = topleft;
position = "{20, 682}";
}
);
background = {
paths = (
{
closed = 1;
nodes = (
"102 509 OFFCURVE",
"191 629 OFFCURVE",
"316 629 CURVE SMOOTH",
"441 629 OFFCURVE",
"530 509 OFFCURVE",
"530 340 CURVE SMOOTH",
"530 172 OFFCURVE",
"441 53 OFFCURVE",
"316 53 CURVE SMOOTH",
"191 53 OFFCURVE",
"102 172 OFFCURVE",
"102 340 CURVE SMOOTH"
);
},
{
closed = 1;
nodes = (
"23 131 OFFCURVE",
"144 -16 OFFCURVE",
"316 -16 CURVE SMOOTH",
"488 -16 OFFCURVE",
"609 131 OFFCURVE",
"609 339 CURVE SMOOTH",
"609 549 OFFCURVE",
"488 697 OFFCURVE",
"316 697 CURVE SMOOTH",
"144 697 OFFCURVE",
"23 549 OFFCURVE",
"23 340 CURVE SMOOTH"
);
}
);
};
layerId = "63224BA1-30A4-42F4-A6D1-9160F56B91B0";
paths = (
{
closed = 1;
nodes = (
"155 0 LINE",
"155 325 LINE",
"515 325 LINE",
"515 0 LINE",
"590 0 LINE",
"590 682 LINE",
"515 682 LINE",
"515 387 LINE",
"155 387 LINE",
"155 682 LINE",
"80 682 LINE",
"80 0 LINE"
);
}
);
width = 670;
}
);
leftKerningGroup = H;
rightKerningGroup = H;
unicode = 0048;
},
{
color = 5;
glyphname = Hbar;
layers = (
{
background = {
components = (
{
name = H;
transform = "{1, 0, 0, 1, 40, 0}";
}
);
paths = (
{
closed = 1;
nodes = (
"80 524 LINE",
"670 524 LINE",
"670 572 LINE",
"80 572 LINE"
);
}
);
};
components = (
{
name = H;
transform = "{1, 0, 0, 1, 40, 0}";
}
);
layerId = "63224BA1-30A4-42F4-A6D1-9160F56B91B0";
paths = (
{
closed = 1;
nodes = (
"670 524 LINE",
"670 572 LINE",
"80 572 LINE",
"80 524 LINE"
);
}
);
width = 750;
}
);
leftKerningGroup = Hbar;
leftMetricsKey = H;
rightKerningGroup = Hbar;
rightMetricsKey = H;
unicode = 0126;
},
{
color = 6;
glyphname = Hturned;
layers = (
{
layerId = "63224BA1-30A4-42F4-A6D1-9160F56B91B0";
paths = (
{
closed = 1;
nodes = (
"529 0 LINE",
"529 682 LINE",
"454 682 LINE",
"454 387 LINE",
"154 387 LINE",
"154 682 LINE",
"79 682 LINE",
"79 325 LINE",
"454 325 LINE",
"454 0 LINE"
);
}
);
width = 607;
}
);
leftKerningGroup = Hturned;
rightKerningGroup = Hturned;
unicode = A78D;
},
{
color = 5;
glyphname = I;
layers = (
{
anchors = (
{
name = bottom;
position = "{159, 0}";
},
{
name = ogonek;
position = "{232, 24}";
},
{
name = top;
position = "{159, 682}";
},
{
name = topleft;
position = "{55, 682}";
}
);
layerId = "63224BA1-30A4-42F4-A6D1-9160F56B91B0";
paths = (
{
closed = 1;
nodes = (
"262 0 LINE",
"262 66 LINE",
"196 66 LINE",
"196 616 LINE",
"262 616 LINE",
"262 682 LINE",
"55 682 LINE",
"55 616 LINE",
"121 616 LINE",
"121 66 LINE",
"55 66 LINE",
"55 0 LINE"
);
}
);
width = 317;
}
);
leftKerningGroup = H;
rightKerningGroup = H;
unicode = 0049;
},
{
color = 6;
glyphname = Iotaafrican;
layers = (
{
layerId = "63224BA1-30A4-42F4-A6D1-9160F56B91B0";
paths = (
{
closed = 1;
nodes = (
"236 68 LINE",
"179 68 OFFCURVE",
"150 95 OFFCURVE",
"150 148 CURVE SMOOTH",
"150 682 LINE",
"75 682 LINE",
"75 148 LINE SMOOTH",
"75 100 OFFCURVE",
"91 63 OFFCURVE",
"122 38 CURVE SMOOTH",
"154 13 OFFCURVE",
"192 0 OFFCURVE",
"236 0 CURVE"
);
}
);
width = 264;
}
);
leftKerningGroup = Iotaafrican;
rightKerningGroup = Iotaafrican;
unicode = 0196;
},
{
color = 6;
glyphname = Istroke;
layers = (
{
background = {
components = (
{
name = I;
transform = "{1, 0, 0, 1, 4, 0}";
}
);
paths = (
{
closed = 1;
nodes = (
"289 328 LINE",
"289 370 LINE",
"35 370 LINE",
"35 328 LINE"
);
}
);
};
components = (
{
name = I;
transform = "{1, 0, 0, 1, 4, 0}";
}
);
layerId = "63224BA1-30A4-42F4-A6D1-9160F56B91B0";
paths = (
{
closed = 1;
nodes = (
"289 328 LINE",
"289 370 LINE",
"35 370 LINE",
"35 328 LINE"
);
}
);
width = 324;
}
);
leftKerningGroup = Istroke;
rightKerningGroup = Istroke;
unicode = 0197;
},
{
color = 5;
glyphname = J;
layers = (
{
anchors = (
{
name = bottom;
position = "{248, 0}";
},
{
name = top;
position = "{379, 682}";
}
);
layerId = "63224BA1-30A4-42F4-A6D1-9160F56B91B0";
paths = (
{
closed = 1;
nodes = (
"338 -16 OFFCURVE",
"416 66 OFFCURVE",
"416 205 CURVE SMOOTH",
"416 682 LINE",
"341 682 LINE",
"341 205 LINE SMOOTH",
"341 110 OFFCURVE",
"298 54 OFFCURVE",
"211 54 CURVE SMOOTH",
"151 54 OFFCURVE",
"95 92 OFFCURVE",
"75 157 CURVE",
"12 127 LINE",
"49 37 OFFCURVE",
"121 -16 OFFCURVE",
"215 -16 CURVE SMOOTH"
);
}
);
width = 496;
}
);
leftKerningGroup = J;
rightKerningGroup = U;
unicode = 004A;
},
{
color = 6;
glyphname = Jstroke;
layers = (
{
background = {
components = (
{
name = J;
}
);
};
components = (
{
name = J;
}
);
layerId = "63224BA1-30A4-42F4-A6D1-9160F56B91B0";
paths = (
{
closed = 1;
nodes = (
"500 328 LINE",
"500 370 LINE",
"246 370 LINE",
"246 328 LINE"
);
}
);
width = 496;
}
);
leftKerningGroup = Jstroke;
rightKerningGroup = Jstroke;
unicode = 0248;
},
{
color = 5;
glyphname = K;
layers = (
{
anchors = (
{
name = bottom;
position = "{273, 0}";
},
{
name = top;
position = "{273, 682}";
}
);
layerId = "63224BA1-30A4-42F4-A6D1-9160F56B91B0";
paths = (
{
closed = 1;
nodes = (
"525 682 LINE",
"442 682 LINE",
"144 325 LINE",
"144 231 LINE"
);
},
{
closed = 1;
nodes = (
"154 0 LINE",
"154 682 LINE",
"79 682 LINE",
"79 0 LINE"
);
},
{
closed = 1;
nodes = (
"545 0 LINE",
"261 392 LINE",
"209 351 LINE",
"460 0 LINE"
);
}
);
width = 545;
}
);
leftKerningGroup = H;
rightKerningGroup = K;
unicode = 004B;
},
{
color = 6;
glyphname = Khook;
layers = (
{
anchors = (
{
name = bottom;
position = "{273, 0}";
}
);
background = {
components = (
{
name = K;
}
);
};
layerId = "63224BA1-30A4-42F4-A6D1-9160F56B91B0";
paths = (
{
closed = 1;
nodes = (
"470 688 OFFCURVE",
"422 656 OFFCURVE",
"372 597 CURVE SMOOTH",
"154 337 LINE",
"154 682 LINE",
"79 682 LINE",
"79 0 LINE",
"154 0 LINE",
"154 243 LINE",
"225 328 LINE",
"460 0 LINE",
"545 0 LINE",
"269 381 LINE",
"416 556 LINE SMOOTH",
"461 612 OFFCURVE",
"485 626 OFFCURVE",
"520 626 CURVE SMOOTH",
"543 626 OFFCURVE",
"556 613 OFFCURVE",
"556 593 CURVE SMOOTH",
"556 576 OFFCURVE",
"547 556 OFFCURVE",
"528 535 CURVE",
"564 503 LINE",
"598 533 OFFCURVE",
"614 571 OFFCURVE",
"614 605 CURVE SMOOTH",
"614 650 OFFCURVE",
"585 688 OFFCURVE",
"529 688 CURVE SMOOTH"
);
}
);
width = 646;
}
);
leftKerningGroup = Khook;
rightKerningGroup = Khook;
unicode = 0198;
},
{
color = 5;
glyphname = L;
layers = (
{
anchors = (
{
name = bottom;
position = "{278, 0}";
},
{
name = center;
position = "{143, 287}";
},
{
name = top;
position = "{120, 682}";
},
{
name = topright;
position = "{264, 432}";
}
);
layerId = "63224BA1-30A4-42F4-A6D1-9160F56B91B0";
paths = (
{
closed = 1;
nodes = (
"461 0 LINE",
"461 62 LINE",
"154 62 LINE",
"154 682 LINE",
"79 682 LINE",
"79 0 LINE"
);
}
);
width = 476;
}
);
leftKerningGroup = H;
rightKerningGroup = L;
unicode = 004C;
},
{
color = 5;
glyphname = M;
layers = (
{
anchors = (
{
name = bottom;
position = "{413, 0}";
},
{
name = top;
position = "{413, 682}";
}
);
background = {
paths = (
{
closed = 1;
nodes = (
"687 682 LINE",
"614 682 LINE",
"400 56 LINE",
"418 56 LINE",
"207 682 LINE",
"132 682 LINE",
"369 0 LINE",
"449 0 LINE"
);
}
);
};
layerId = "63224BA1-30A4-42F4-A6D1-9160F56B91B0";
paths = (
{
closed = 1;
nodes = (
"155 0 LINE",
"155 588 LINE",
"138 585 LINE",
"373 0 LINE",
"443 0 LINE",
"688 586 LINE",
"671 589 LINE",
"671 0 LINE",
"745 0 LINE",
"745 682 LINE",
"661 682 LINE",
"398 52 LINE",
"424 52 LINE",
"172 682 LINE",
"80 682 LINE",
"80 0 LINE"
);
}
);
width = 825;
}
);
leftKerningGroup = H;
leftMetricsKey = H;
rightKerningGroup = H;
rightMetricsKey = H;
unicode = 004D;
},
{
color = 5;
glyphname = N;
layers = (
{
anchors = (
{
name = bottom;
position = "{315, 0}";
},
{
name = top;
position = "{315, 682}";
}
);
background = {
paths = (
{
closed = 1;
nodes = (
"155 0 LINE",
"155 325 LINE",
"515 325 LINE",
"515 0 LINE",
"590 0 LINE",
"590 682 LINE",
"515 682 LINE",
"515 387 LINE",
"155 387 LINE",
"155 682 LINE",
"80 682 LINE",
"80 0 LINE"
);
}
);
};
layerId = "63224BA1-30A4-42F4-A6D1-9160F56B91B0";
paths = (
{
closed = 1;
nodes = (
"154 0 LINE",
"154 567 LINE",
"501 0 LINE",
"581 0 LINE",
"581 682 LINE",
"506 682 LINE",
"506 113 LINE",
"159 682 LINE",
"79 682 LINE",
"79 0 LINE"
);
}
);
width = 629;
}
);
leftKerningGroup = H;
rightKerningGroup = H;
unicode = 004E;
},
{
color = 5;
glyphname = Eng;
layers = (
{
background = {
paths = (
{
closed = 1;
nodes = (
"502 18 LINE",
"502 -73 OFFCURVE",
"449 -138 OFFCURVE",
"375 -138 CURVE SMOOTH",
"311 -138 LINE",
"311 -200 LINE",
"375 -200 LINE SMOOTH",
"496 -200 OFFCURVE",
"581 -110 OFFCURVE",
"581 18 CURVE"
);
}
);
};
guideLines = (
{
angle = 90;
position = "{581, 129}";
},
{
angle = 90;
position = "{506, 129}";
}
);
layerId = "63224BA1-30A4-42F4-A6D1-9160F56B91B0";
paths = (
{
closed = 1;
nodes = (
"375 -200 LINE SMOOTH",
"490 -200 OFFCURVE",
"573 -118 OFFCURVE",
"580 0 CURVE",
"581 0 LINE",
"581 682 LINE",
"506 682 LINE",
"506 113 LINE",
"159 682 LINE",
"79 682 LINE",
"79 0 LINE",
"154 0 LINE",
"154 567 LINE",
"504 -6 LINE",
"495 -78 OFFCURVE",
"442 -128 OFFCURVE",
"375 -128 CURVE SMOOTH",
"311 -128 LINE",
"311 -200 LINE"
);
}
);
width = 629;
},
{
associatedMasterId = "63224BA1-30A4-42F4-A6D1-9160F56B91B0";
layerId = "772F215E-C05D-467A-B3BE-41449684BBCF";
name = "Oct 11 16, 16:32";
paths = (
{
closed = 1;
nodes = (
"159 682 LINE",
"79 682 LINE",
"79 0 LINE",
"159 0 LINE",
"159 534 LINE",
"196 597 OFFCURVE",
"251 629 OFFCURVE",
"324 629 CURVE SMOOTH",
"437 629 OFFCURVE",
"489 535 OFFCURVE",
"489 398 CURVE SMOOTH",
"489 305 LINE SMOOTH",
"489 241 OFFCURVE",
"479 185 OFFCURVE",
"458 136 CURVE SMOOTH",
"437 87 OFFCURVE",
"399 54 OFFCURVE",
"350 54 CURVE SMOOTH",
"322 54 LINE",
"322 0 LINE",
"350 0 LINE SMOOTH",
"399 0 OFFCURVE",
"441 14 OFFCURVE",
"475 43 CURVE SMOOTH",
"537 95 OFFCURVE",
"568 182 OFFCURVE",
"568 305 CURVE SMOOTH",
"568 398 LINE SMOOTH",
"568 489 OFFCURVE",
"547 562 OFFCURVE",
"506 616 CURVE SMOOTH",
"465 670 OFFCURVE",
"405 697 OFFCURVE",
"324 697 CURVE SMOOTH",
"262 697 OFFCURVE",
"207 674 OFFCURVE",
"159 629 CURVE"
);
}
);
width = 620;
}
);
leftKerningGroup = H;
rightKerningGroup = H;
unicode = 014A;
},
{
color = 6;
glyphname = Nhookleft;
layers = (
{
background = {
components = (
{
name = N;
}
);
};
components = (
{
name = N;
}
);
layerId = "63224BA1-30A4-42F4-A6D1-9160F56B91B0";
paths = (
{
closed = 1;
nodes = (
"79 0 LINE",
"79 -52 LINE SMOOTH",
"79 -97 OFFCURVE",
"40 -132 OFFCURVE",
"-7 -132 CURVE SMOOTH",
"-34 -132 LINE",
"-34 -200 LINE",
"-7 -200 LINE SMOOTH",
"35 -200 OFFCURVE",
"72 -185 OFFCURVE",
"105 -156 CURVE SMOOTH",
"138 -127 OFFCURVE",
"154 -92 OFFCURVE",
"154 -52 CURVE SMOOTH",
"154 0 LINE"
);
}
);
width = 629;
}
);
leftKerningGroup = Nhookleft;
rightKerningGroup = Nhookleft;
rightMetricsKey = N;
unicode = 019D;
},
{
color = 6;
glyphname = Nlongrightleg;
layers = (
{
layerId = "63224BA1-30A4-42F4-A6D1-9160F56B91B0";
paths = (
{
closed = 1;
nodes = (
"568 -200 LINE",
"568 398 LINE SMOOTH",
"568 572 OFFCURVE",
"494 697 OFFCURVE",
"324 697 CURVE SMOOTH",
"262 697 OFFCURVE",
"207 674 OFFCURVE",
"159 627 CURVE",
"159 682 LINE",
"79 682 LINE",
"79 0 LINE",
"159 0 LINE",
"159 534 LINE",
"196 597 OFFCURVE",
"251 629 OFFCURVE",
"324 629 CURVE SMOOTH",
"437 629 OFFCURVE",
"489 535 OFFCURVE",
"489 398 CURVE SMOOTH",
"489 -200 LINE"
);
}
);
width = 633;
}
);
leftKerningGroup = Nlongrightleg;
rightKerningGroup = Nlongrightleg;
unicode = 0220;
},
{
color = 5;
glyphname = O;
layers = (
{
anchors = (
{
name = bottom;
position = "{348, 0}";
},
{
name = center;
position = "{348, 341}";
},
{
name = ogonek;
position = "{626, 10}";
},
{
name = top;
position = "{348, 682}";
},
{
name = topleft;
position = "{20, 682}";
},
{
name = topright;
position = "{676, 682}";
}
);
layerId = "63224BA1-30A4-42F4-A6D1-9160F56B91B0";
paths = (
{
closed = 1;
nodes = (
"520 -16 OFFCURVE",
"641 131 OFFCURVE",
"641 339 CURVE SMOOTH",
"641 549 OFFCURVE",
"520 697 OFFCURVE",
"348 697 CURVE SMOOTH",
"176 697 OFFCURVE",
"55 549 OFFCURVE",
"55 340 CURVE SMOOTH",
"55 131 OFFCURVE",
"176 -16 OFFCURVE",
"348 -16 CURVE SMOOTH"
);
},
{
closed = 1;
nodes = (
"223 53 OFFCURVE",
"134 172 OFFCURVE",
"134 340 CURVE SMOOTH",
"134 509 OFFCURVE",
"223 629 OFFCURVE",
"348 629 CURVE SMOOTH",
"473 629 OFFCURVE",
"562 509 OFFCURVE",
"562 340 CURVE SMOOTH",
"562 172 OFFCURVE",
"473 53 OFFCURVE",
"348 53 CURVE SMOOTH"
);
}
);
width = 696;
}
);
leftKerningGroup = O;
rightKerningGroup = O;
unicode = 004F;
},
{
color = 6;
glyphname = OU;
layers = (
{
layerId = "63224BA1-30A4-42F4-A6D1-9160F56B91B0";
paths = (
{
closed = 1;
nodes = (
"432 -16 OFFCURVE",
"522 60 OFFCURVE",
"522 170 CURVE SMOOTH",
"522 257 OFFCURVE",
"462 319 OFFCURVE",
"361 353 CURVE",
"450 385 OFFCURVE",
"502 444 OFFCURVE",
"502 512 CURVE SMOOTH",
"502 548 OFFCURVE",
"485 593 OFFCURVE",
"455 634 CURVE",
"398 602 LINE",
"422 572 OFFCURVE",
"436 538 OFFCURVE",
"436 512 CURVE SMOOTH",
"436 453 OFFCURVE",
"378 401 OFFCURVE",
"281 371 CURVE",
"184 400 OFFCURVE",
"127 452 OFFCURVE",
"127 512 CURVE SMOOTH",
"127 589 OFFCURVE",
"189 640 OFFCURVE",
"294 640 CURVE",
"294 697 LINE",
"149 697 OFFCURVE",
"60 622 OFFCURVE",
"60 512 CURVE SMOOTH",
"60 444 OFFCURVE",
"112 385 OFFCURVE",
"201 353 CURVE",
"100 319 OFFCURVE",
"40 257 OFFCURVE",
"40 170 CURVE SMOOTH",
"40 60 OFFCURVE",
"130 -16 OFFCURVE",
"281 -16 CURVE SMOOTH"
);
},
{
closed = 1;
nodes = (
"172 44 OFFCURVE",
"107 92 OFFCURVE",
"107 180 CURVE SMOOTH",
"107 248 OFFCURVE",
"172 308 OFFCURVE",
"281 331 CURVE",
"390 299 OFFCURVE",
"455 248 OFFCURVE",
"455 180 CURVE SMOOTH",
"455 92 OFFCURVE",
"390 44 OFFCURVE",
"281 44 CURVE SMOOTH"
);
}
);
width = 562;
},
{
associatedMasterId = "63224BA1-30A4-42F4-A6D1-9160F56B91B0";
layerId = "46D8FA19-8268-4501-8386-59DB5E50FCD0";
name = old;
paths = (
{
closed = 1;
nodes = (
"404 -16 OFFCURVE",
"522 50 OFFCURVE",
"522 170 CURVE SMOOTH",
"522 270 OFFCURVE",
"475 317 OFFCURVE",
"361 353 CURVE",
"465 391 OFFCURVE",
"502 444 OFFCURVE",
"502 512 CURVE SMOOTH",
"502 543 OFFCURVE",
"491 577 OFFCURVE",
"469 614 CURVE",
"400 582 LINE",
"414 558 OFFCURVE",
"426 537 OFFCURVE",
"426 512 CURVE SMOOTH",
"426 437 OFFCURVE",
"371 407 OFFCURVE",
"281 381 CURVE",
"160 424 OFFCURVE",
"136 457 OFFCURVE",
"136 512 CURVE SMOOTH",
"136 590 OFFCURVE",
"189 629 OFFCURVE",
"294 629 CURVE",
"294 697 LINE",
"153 697 OFFCURVE",
"60 631 OFFCURVE",
"60 512 CURVE SMOOTH",
"60 444 OFFCURVE",
"97 391 OFFCURVE",
"201 353 CURVE",
"86 317 OFFCURVE",
"40 271 OFFCURVE",
"40 170 CURVE SMOOTH",
"40 51 OFFCURVE",
"156 -16 OFFCURVE",
"281 -16 CURVE SMOOTH"
);
},
{
closed = 1;
nodes = (
"199 53 OFFCURVE",
"116 91 OFFCURVE",
"116 180 CURVE SMOOTH",
"116 256 OFFCURVE",
"174 300 OFFCURVE",
"281 331 CURVE",
"376 305 OFFCURVE",
"446 248 OFFCURVE",
"446 180 CURVE SMOOTH",
"446 93 OFFCURVE",
"366 53 OFFCURVE",
"281 53 CURVE SMOOTH"
);
}
);
width = 562;
},
{
associatedMasterId = "63224BA1-30A4-42F4-A6D1-9160F56B91B0";
layerId = "ACBF23A7-FC97-4441-A6FA-3CA405F5F836";
name = "Oct 17 16, 10:04";
paths = (
{
closed = 1;
nodes = (
"404 -16 OFFCURVE",
"522 50 OFFCURVE",
"522 170 CURVE SMOOTH",
"522 270 OFFCURVE",
"475 317 OFFCURVE",
"361 353 CURVE",
"465 391 OFFCURVE",
"502 444 OFFCURVE",
"502 512 CURVE SMOOTH",
"502 549 OFFCURVE",
"486 590 OFFCURVE",
"455 634 CURVE",
"398 602 LINE",
"420 574 OFFCURVE",
"436 548 OFFCURVE",
"436 512 CURVE SMOOTH",
"436 431 OFFCURVE",
"371 399 OFFCURVE",
"281 371 CURVE",
"160 407 OFFCURVE",
"127 453 OFFCURVE",
"127 512 CURVE SMOOTH",
"127 590 OFFCURVE",
"189 635 OFFCURVE",
"294 635 CURVE",
"294 697 LINE",
"153 697 OFFCURVE",
"60 625 OFFCURVE",
"60 522 CURVE SMOOTH",
"60 450 OFFCURVE",
"97 393 OFFCURVE",
"201 353 CURVE",
"86 317 OFFCURVE",
"40 271 OFFCURVE",
"40 170 CURVE SMOOTH",
"40 51 OFFCURVE",
"156 -16 OFFCURVE",
"281 -16 CURVE SMOOTH"
);
},
{
closed = 1;
nodes = (
"194 46 OFFCURVE",
"107 91 OFFCURVE",
"107 180 CURVE SMOOTH",
"107 256 OFFCURVE",
"167 300 OFFCURVE",
"281 331 CURVE",
"376 305 OFFCURVE",
"455 248 OFFCURVE",
"455 180 CURVE SMOOTH",
"455 93 OFFCURVE",
"366 46 OFFCURVE",
"281 46 CURVE SMOOTH"
);
}
);
width = 562;
}
);
leftKerningGroup = OU;
rightKerningGroup = OU;
unicode = 0222;
},
{
color = 5;
glyphname = Oslash;
layers = (
{
background = {
anchors = (
{
name = bottom;
position = "{348, 0}";
},
{
name = center;
position = "{348, 341}";
},
{
name = ogonek;
position = "{626, 10}";
},
{
name = top;
position = "{348, 682}";
},
{
name = topleft;
position = "{20, 682}";
},
{
name = topright;
position = "{676, 682}";
}
);
components = (
{
name = O;
},
{
name = slashlongcomb;
}
);
};
components = (
{
name = O;
}
);
layerId = "63224BA1-30A4-42F4-A6D1-9160F56B91B0";
paths = (
{
closed = 1;
nodes = (
"545 720 LINE",
"493 743 LINE",
"124 -39 LINE",
"173 -63 LINE"
);
}
);
width = 696;
}
);
leftKerningGroup = O;
leftMetricsKey = O;
rightKerningGroup = O;
rightMetricsKey = O;
unicode = 00D8;
},
{
color = 5;
glyphname = OE;
layers = (
{
background = {
anchors = (
{
name = bottom;
position = "{1072, 0}";
},
{
name = center;
position = "{348, 341}";
},
{
name = ogonek;
position = "{1234, 0}";
},
{
name = top;
position = "{1082, 682}";
},
{
name = topleft;
position = "{820, 682}";
},
{
name = topright;
position = "{676, 682}";
}
);
paths = (
{
closed = 1;
nodes = (
"436 75 LINE",
"410 61 OFFCURVE",
"380 53 OFFCURVE",
"348 53 CURVE SMOOTH",
"223 53 OFFCURVE",
"134 172 OFFCURVE",
"134 340 CURVE SMOOTH",
"134 509 OFFCURVE",
"223 629 OFFCURVE",
"348 629 CURVE SMOOTH",
"385 629 OFFCURVE",
"419 618 OFFCURVE",
"448 599 CURVE",
"494 655 LINE",
"452 682 OFFCURVE",
"403 697 OFFCURVE",
"348 697 CURVE SMOOTH",
"176 697 OFFCURVE",
"55 549 OFFCURVE",
"55 340 CURVE SMOOTH",
"55 131 OFFCURVE",
"176 -16 OFFCURVE",
"348 -16 CURVE SMOOTH",
"393 -16 OFFCURVE",
"435 -6 OFFCURVE",
"471 13 CURVE"
);
},
{
closed = 1;
nodes = (
"791 0 LINE",
"791 62 LINE",
"481 62 LINE",
"481 320 LINE",
"721 320 LINE",
"721 381 LINE",
"481 381 LINE",
"481 619 LINE",
"788 619 LINE",
"788 682 LINE",
"406 682 LINE",
"406 0 LINE"
);
}
);
};
layerId = "63224BA1-30A4-42F4-A6D1-9160F56B91B0";
paths = (
{
closed = 1;
nodes = (
"393 -16 OFFCURVE",
"435 -6 OFFCURVE",
"471 13 CURVE",
"436 75 LINE",
"410 61 OFFCURVE",
"380 53 OFFCURVE",
"348 53 CURVE SMOOTH",
"223 53 OFFCURVE",
"134 172 OFFCURVE",
"134 340 CURVE SMOOTH",
"134 509 OFFCURVE",
"223 629 OFFCURVE",
"348 629 CURVE SMOOTH",
"385 629 OFFCURVE",
"419 618 OFFCURVE",
"448 599 CURVE",
"494 655 LINE",
"452 682 OFFCURVE",
"403 697 OFFCURVE",
"348 697 CURVE SMOOTH",
"176 697 OFFCURVE",
"55 549 OFFCURVE",
"55 340 CURVE SMOOTH",
"55 131 OFFCURVE",
"176 -16 OFFCURVE",
"348 -16 CURVE SMOOTH"
);
},
{
closed = 1;
nodes = (
"791 0 LINE",
"791 62 LINE",
"481 62 LINE",
"481 320 LINE",
"721 320 LINE",
"721 381 LINE",
"481 381 LINE",
"481 619 LINE",
"788 619 LINE",
"788 682 LINE",
"406 682 LINE",
"406 0 LINE"
);
}
);
width = 830;
}
);
leftKerningGroup = O;
leftMetricsKey = O;
rightKerningGroup = E;
rightMetricsKey = E;
unicode = 0152;
},
{
color = 5;
glyphname = P;
layers = (
{
anchors = (
{
name = bottom;
position = "{268, 0}";
},
{
name = top;
position = "{268, 682}";
}
);
background = {
components = (
{
name = O;
transform = "{1, 0, 0, 1, -94, 141}";
}
);
};
layerId = "63224BA1-30A4-42F4-A6D1-9160F56B91B0";
paths = (
{
closed = 1;
nodes = (
"155 0 LINE",
"155 261 LINE",
"300 261 LINE SMOOTH",
"425 261 OFFCURVE",
"510 338 OFFCURVE",
"510 471 CURVE SMOOTH",
"510 605 OFFCURVE",
"429 682 OFFCURVE",
"308 682 CURVE SMOOTH",
"80 682 LINE",
"80 0 LINE"
);
},
{
closed = 1;
nodes = (
"155 620 LINE",
"298 620 LINE",
"388 620 OFFCURVE",
"435 568 OFFCURVE",
"435 471 CURVE SMOOTH",
"435 374 OFFCURVE",
"388 323 OFFCURVE",
"298 323 CURVE SMOOTH",
"155 323 LINE"
);
}
);
width = 535;
}
);
leftKerningGroup = H;
leftMetricsKey = H;
rightKerningGroup = P;
unicode = 0050;
},
{
color = 6;
glyphname = Phook;
layers = (
{
background = {
components = (
{
name = P;
transform = "{1, 0, 0, 1, 122, 0}";
}
);
};
components = (
{
name = P;
transform = "{1, 0, 0, 1, 122, 0}";
}
);
layerId = "63224BA1-30A4-42F4-A6D1-9160F56B91B0";
paths = (
{
closed = 1;
nodes = (
"218 682 LINE",
"176 682 LINE SMOOTH",
"91 682 OFFCURVE",
"27 616 OFFCURVE",
"27 534 CURVE SMOOTH",
"27 426 LINE",
"90 426 LINE",
"90 534 LINE SMOOTH",
"90 582 OFFCURVE",
"129 614 OFFCURVE",
"176 614 CURVE SMOOTH",
"218 614 LINE"
);
}
);
width = 657;
}
);
leftKerningGroup = Phook;
rightKerningGroup = Phook;
rightMetricsKey = P;
unicode = 01A4;
},
{
color = 5;
glyphname = Thorn;
layers = (
{
background = {
paths = (
{
closed = 1;
nodes = (
"156 0 LINE",
"156 161 LINE",
"301 161 LINE SMOOTH",
"426 161 OFFCURVE",
"511 238 OFFCURVE",
"511 371 CURVE SMOOTH",
"511 505 OFFCURVE",
"430 582 OFFCURVE",
"309 582 CURVE SMOOTH",
"81 582 LINE",
"81 0 LINE"
);
},
{
closed = 1;
nodes = (
"299 520 LINE",
"389 520 OFFCURVE",
"436 468 OFFCURVE",
"436 371 CURVE SMOOTH",
"436 274 OFFCURVE",
"389 223 OFFCURVE",
"299 223 CURVE SMOOTH",
"156 223 LINE",
"156 520 LINE"
);
}
);
};
layerId = "63224BA1-30A4-42F4-A6D1-9160F56B91B0";
paths = (
{
closed = 1;
nodes = (
"156 0 LINE",
"156 181 LINE",
"291 181 LINE SMOOTH",
"416 181 OFFCURVE",
"501 255 OFFCURVE",
"501 381 CURVE SMOOTH",
"501 508 OFFCURVE",
"420 582 OFFCURVE",
"299 582 CURVE SMOOTH",
"155 582 LINE",
"155 682 LINE",
"80 682 LINE",
"80 0 LINE"
);
},
{
closed = 1;
nodes = (
"156 520 LINE",
"289 520 LINE SMOOTH",
"379 520 OFFCURVE",
"426 472 OFFCURVE",
"426 381 CURVE SMOOTH",
"426 290 OFFCURVE",
"379 243 OFFCURVE",
"289 243 CURVE SMOOTH",
"156 243 LINE"
);
}
);
width = 526;
}
);
leftKerningGroup = H;
leftMetricsKey = H;
rightKerningGroup = P;
rightMetricsKey = P;
unicode = 00DE;
},
{
color = 5;
glyphname = Q;
layers = (
{
anchors = (
{
name = bottom;
position = "{335, 0}";
},
{
name = top;
position = "{335, 682}";
}
);
background = {
paths = (
{
closed = 1;
nodes = (
"455 103 LINE",
"421 70 OFFCURVE",
"381 53 OFFCURVE",
"335 53 CURVE SMOOTH",
"276 53 OFFCURVE",
"225 82 OFFCURVE",
"183 139 CURVE",
"142 197 OFFCURVE",
"121 264 OFFCURVE",
"121 340 CURVE SMOOTH",
"121 417 OFFCURVE",
"142 484 OFFCURVE",
"183 542 CURVE SMOOTH",
"225 600 OFFCURVE",
"276 629 OFFCURVE",
"335 629 CURVE SMOOTH",
"394 629 OFFCURVE",
"445 600 OFFCURVE",
"486 542 CURVE SMOOTH",
"528 484 OFFCURVE",
"549 417 OFFCURVE",
"549 340 CURVE SMOOTH",
"549 255 OFFCURVE",
"525 183 OFFCURVE",
"475 125 CURVE",
"525 74 LINE",
"593 147 OFFCURVE",
"628 236 OFFCURVE",
"628 340 CURVE SMOOTH",
"628 435 OFFCURVE",
"598 519 OFFCURVE",
"539 590 CURVE SMOOTH",
"480 661 OFFCURVE",
"412 697 OFFCURVE",
"335 697 CURVE SMOOTH",
"258 697 OFFCURVE",
"189 661 OFFCURVE",
"130 590 CURVE SMOOTH",
"71 519 OFFCURVE",
"42 435 OFFCURVE",
"42 340 CURVE SMOOTH",
"42 244 OFFCURVE",
"71 161 OFFCURVE",
"130 90 CURVE SMOOTH",
"189 19 OFFCURVE",
"258 -16 OFFCURVE",
"335 -16 CURVE SMOOTH",
"396 -16 OFFCURVE",
"453 8 OFFCURVE",
"504 55 CURVE"
);
},
{
closed = 1;
nodes = (
"564 -29 LINE",
"608 14 LINE",
"525 97 LINE",
"496 126 LINE",
"410 211 LINE",
"366 167 LINE"
);
}
);
};
components = (
{
name = O;
}
);
layerId = "63224BA1-30A4-42F4-A6D1-9160F56B91B0";
paths = (
{
closed = 1;
nodes = (
"608 14 LINE",
"410 211 LINE",
"366 167 LINE",
"564 -29 LINE"
);
}
);
width = 670;
}
);
leftKerningGroup = O;
rightKerningGroup = O;
unicode = 0051;
},
{
color = 6;
glyphname = Qhooktail;
layers = (
{
background = {
components = (
{
name = "Alpha-latin";
}
);
};
components = (
{
name = "Alpha-latin";
}
);
layerId = "63224BA1-30A4-42F4-A6D1-9160F56B91B0";
paths = (
{
closed = 1;
nodes = (
"553 24 LINE",
"553 -52 LINE SMOOTH",
"553 -162 OFFCURVE",
"622 -200 OFFCURVE",
"713 -200 CURVE SMOOTH",
"740 -200 LINE",
"740 -132 LINE",
"713 -132 LINE SMOOTH",
"656 -132 OFFCURVE",
"628 -107 OFFCURVE",
"628 -52 CURVE SMOOTH",
"628 24 LINE"
);
}
);
width = 706;
}
);
leftKerningGroup = Qhooktail;
rightKerningGroup = Qhooktail;
unicode = 024A;
},
{
color = 5;
glyphname = R;
layers = (
{
anchors = (
{
name = bottom;
position = "{290, 0}";
},
{
name = top;
position = "{290, 682}";
}
);
background = {
components = (
{
name = P;
}
);
};
layerId = "63224BA1-30A4-42F4-A6D1-9160F56B91B0";
paths = (
{
closed = 1;
nodes = (
"154 0 LINE",
"154 301 LINE",
"299 301 LINE SMOOTH",
"424 301 OFFCURVE",
"513 380 OFFCURVE",
"513 491 CURVE SMOOTH",
"513 603 OFFCURVE",
"434 682 OFFCURVE",
"307 682 CURVE SMOOTH",
"79 682 LINE",
"79 0 LINE"
);
},
{
closed = 1;
nodes = (
"541 0 LINE",
"351 330 LINE",
"278 320 LINE",
"462 0 LINE"
);
},
{
closed = 1;
nodes = (
"154 620 LINE",
"297 620 LINE",
"387 620 OFFCURVE",
"434 566 OFFCURVE",
"434 491 CURVE SMOOTH",
"434 416 OFFCURVE",
"387 363 OFFCURVE",
"297 363 CURVE SMOOTH",
"154 363 LINE"
);
}
);
width = 580;
}
);
leftKerningGroup = H;
rightKerningGroup = R;
unicode = 0052;
},
{
color = 6;
glyphname = Rstroke;
layers = (
{
background = {
anchors = (
{
name = _center;
position = "{181, 325}";
},
{
name = bottom;
position = "{370, 0}";
},
{
name = top;
position = "{370, 682}";
}
);
paths = (
{
closed = 1;
nodes = (
"443 309 LINE",
"533 331 OFFCURVE",
"593 400 OFFCURVE",
"593 491 CURVE SMOOTH",
"593 603 OFFCURVE",
"514 682 OFFCURVE",
"387 682 CURVE SMOOTH",
"159 682 LINE",
"159 363 LINE",
"50 363 LINE",
"50 301 LINE",
"159 301 LINE",
"159 0 LINE",
"234 0 LINE",
"234 301 LINE",
"369 301 LINE",
"542 0 LINE",
"621 0 LINE"
);
},
{
closed = 1;
nodes = (
"234 620 LINE",
"377 620 LINE SMOOTH",
"467 620 OFFCURVE",
"514 566 OFFCURVE",
"514 491 CURVE SMOOTH",
"514 416 OFFCURVE",
"467 363 OFFCURVE",
"377 363 CURVE SMOOTH",
"234 363 LINE"
);
}
);
};
layerId = "63224BA1-30A4-42F4-A6D1-9160F56B91B0";
paths = (
{
closed = 1;
nodes = (
"443 309 LINE",
"533 331 OFFCURVE",
"593 400 OFFCURVE",
"593 491 CURVE SMOOTH",
"593 603 OFFCURVE",
"514 682 OFFCURVE",
"387 682 CURVE SMOOTH",
"159 682 LINE",
"159 363 LINE",
"50 363 LINE",
"50 301 LINE",
"159 301 LINE",
"159 0 LINE",
"234 0 LINE",
"234 301 LINE",
"369 301 LINE",
"542 0 LINE",
"621 0 LINE"
);
},
{
closed = 1;
nodes = (
"234 620 LINE",
"377 620 LINE SMOOTH",
"467 620 OFFCURVE",
"514 566 OFFCURVE",
"514 491 CURVE SMOOTH",
"514 416 OFFCURVE",
"467 363 OFFCURVE",
"377 363 CURVE SMOOTH",
"234 363 LINE"
);
}
);
width = 660;
}
);
leftKerningGroup = Rstroke;
rightKerningGroup = Rstroke;
rightMetricsKey = R;
unicode = 024C;
},
{
color = 6;
glyphname = Rtail;
layers = (
{
background = {
components = (
{
name = R;
}
);
};
components = (
{
name = R;
}
);
layerId = "63224BA1-30A4-42F4-A6D1-9160F56B91B0";
paths = (
{
closed = 1;
nodes = (
"79 24 LINE",
"79 -52 LINE SMOOTH",
"79 -162 OFFCURVE",
"148 -200 OFFCURVE",
"239 -200 CURVE SMOOTH",
"266 -200 LINE",
"266 -132 LINE",
"239 -132 LINE SMOOTH",
"182 -132 OFFCURVE",
"154 -107 OFFCURVE",
"154 -52 CURVE SMOOTH",
"154 24 LINE"
);
}
);
width = 580;
}
);
leftKerningGroup = Rtail;
rightKerningGroup = Rtail;
unicode = 2C64;
},
{
color = 5;
glyphname = S;
layers = (
{
anchors = (
{
name = bottom;
position = "{292, 0}";
},
{
name = top;
position = "{292, 682}";
}
);
background = {
paths = (
{
closed = 1;
nodes = (
"361 291 OFFCURVE",
"402 274 OFFCURVE",
"426 256 CURVE SMOOTH",
"450 238 OFFCURVE",
"462 209 OFFCURVE",
"462 170 CURVE SMOOTH",
"462 89 OFFCURVE",
"407 53 OFFCURVE",
"287 53 CURVE SMOOTH",
"220 53 OFFCURVE",
"154 99 OFFCURVE",
"114 167 CURVE",
"55 125 LINE",
"110 40 OFFCURVE",
"198 -16 OFFCURVE",
"287 -16 CURVE SMOOTH",
"443 -16 OFFCURVE",
"538 50 OFFCURVE",
"538 170 CURVE SMOOTH",
"538 242 OFFCURVE",
"508 295 OFFCURVE",
"449 329 CURVE SMOOTH",
"429 341 OFFCURVE",
"385 358 OFFCURVE",
"318 381 CURVE SMOOTH",
"311 384 OFFCURVE",
"298 388 OFFCURVE",
"280 393 CURVE SMOOTH",
"262 398 OFFCURVE",
"249 402 OFFCURVE",
"241 405 CURVE SMOOTH",
"233 408 OFFCURVE",
"222 413 OFFCURVE",
"209 420 CURVE SMOOTH",
"172 440 OFFCURVE",
"161 461 OFFCURVE",
"157 512 CURVE",
"157 592 OFFCURVE",
"199 629 OFFCURVE",
"300 629 CURVE SMOOTH",
"361 629 OFFCURVE",
"415 597 OFFCURVE",
"462 533 CURVE",
"518 580 LINE",
"458 658 OFFCURVE",
"385 697 OFFCURVE",
"300 697 CURVE SMOOTH",
"161 697 OFFCURVE",
"81 632 OFFCURVE",
"81 512 CURVE SMOOTH",
"81 403 OFFCURVE",
"158 346 OFFCURVE",
"302 307 CURVE SMOOTH"
);
}
);
};
layerId = "63224BA1-30A4-42F4-A6D1-9160F56B91B0";
paths = (
{
closed = 1;
nodes = (
"450 -16 OFFCURVE",
"538 60 OFFCURVE",
"538 170 CURVE SMOOTH",
"538 299 OFFCURVE",
"441 352 OFFCURVE",
"319 385 CURVE SMOOTH",
"202 413 OFFCURVE",
"157 449 OFFCURVE",
"157 519 CURVE SMOOTH",
"157 588 OFFCURVE",
"217 629 OFFCURVE",
"300 629 CURVE SMOOTH",
"381 629 OFFCURVE",
"435 597 OFFCURVE",
"482 533 CURVE",
"541 583 LINE",
"478 661 OFFCURVE",
"399 697 OFFCURVE",
"300 697 CURVE SMOOTH",
"164 697 OFFCURVE",
"81 632 OFFCURVE",
"81 512 CURVE SMOOTH",
"81 403 OFFCURVE",
"174 346 OFFCURVE",
"297 316 CURVE SMOOTH",
"402 287 OFFCURVE",
"462 254 OFFCURVE",
"462 170 CURVE SMOOTH",
"462 99 OFFCURVE",
"413 53 OFFCURVE",
"317 53 CURVE SMOOTH",
"228 53 OFFCURVE",
"151 103 OFFCURVE",
"104 177 CURVE",
"43 123 LINE",
"105 38 OFFCURVE",
"206 -16 OFFCURVE",
"307 -16 CURVE SMOOTH"
);
}
);
width = 583;
}
);
leftKerningGroup = S;
rightKerningGroup = S;
unicode = 0053;
},
{
color = 6;
glyphname = Saltillo;
layers = (
{
layerId = "63224BA1-30A4-42F4-A6D1-9160F56B91B0";
paths = (
{
closed = 1;
nodes = (
"150 166 LINE",
"150 682 LINE",
"82 682 LINE",
"82 166 LINE"
);
}
);
width = 232;
}
);
leftKerningGroup = Saltillo;
rightKerningGroup = Saltillo;
unicode = A78B;
},
{
color = 5;
glyphname = Germandbls;
layers = (
{
background = {
components = (
{
name = B;
transform = "{1, 0, 0, 1, 1, 0}";
}
);
};
guideLines = (
{
position = "{307, 374}";
},
{
position = "{307, 335}";
},
{
angle = 90;
position = "{273, 396}";
}
);
layerId = "63224BA1-30A4-42F4-A6D1-9160F56B91B0";
paths = (
{
closed = 1;
nodes = (
"155 0 LINE",
"155 483 LINE SMOOTH",
"155 581 OFFCURVE",
"193 630 OFFCURVE",
"278 630 CURVE SMOOTH",
"354 630 OFFCURVE",
"398 590 OFFCURVE",
"398 547 CURVE",
"283 424 LINE",
"324 388 LINE",
"476 547 LINE",
"476 628 OFFCURVE",
"396 698 OFFCURVE",
"278 698 CURVE SMOOTH",
"157 698 OFFCURVE",
"80 618 OFFCURVE",
"80 483 CURVE SMOOTH",
"80 0 LINE"
);
},
{
closed = 1;
nodes = (
"454 -5 OFFCURVE",
"539 82 OFFCURVE",
"539 210 CURVE SMOOTH",
"539 346 OFFCURVE",
"453 424 OFFCURVE",
"283 424 CURVE",
"283 375 LINE",
"412 375 OFFCURVE",
"460 314 OFFCURVE",
"460 210 CURVE SMOOTH",
"460 122 OFFCURVE",
"410 61 OFFCURVE",
"319 61 CURVE SMOOTH",
"297 61 OFFCURVE",
"272 65 OFFCURVE",
"245 73 CURVE",
"231 7 LINE",
"263 -1 OFFCURVE",
"292 -5 OFFCURVE",
"320 -5 CURVE SMOOTH"
);
}
);
width = 584;
}
);
leftKerningGroup = H;
leftMetricsKey = H;
rightKerningGroup = Germandbls;
unicode = 1E9E;
},
{
color = 5;
glyphname = T;
layers = (
{
anchors = (
{
name = bottom;
position = "{267, 0}";
},
{
name = center;
position = "{267, 341}";
},
{
name = top;
position = "{267, 682}";
}
);
layerId = "63224BA1-30A4-42F4-A6D1-9160F56B91B0";
paths = (
{
closed = 1;
nodes = (
"304 0 LINE",
"304 620 LINE",
"519 620 LINE",
"519 682 LINE",
"15 682 LINE",
"15 620 LINE",
"230 620 LINE",
"230 0 LINE"
);
}
);
width = 534;
}
);
leftKerningGroup = T;
rightKerningGroup = T;
unicode = 0054;
},
{
color = 5;
glyphname = Tbar;
layers = (
{
components = (
{
name = T;
}
);
layerId = "63224BA1-30A4-42F4-A6D1-9160F56B91B0";
paths = (
{
closed = 1;
nodes = (
"418 357 LINE",
"418 405 LINE",
"116 405 LINE",
"116 357 LINE"
);
}
);
width = 534;
}
);
leftKerningGroup = T;
rightKerningGroup = T;
unicode = 0166;
},
{
color = 6;
glyphname = Thook;
layers = (
{
background = {
components = (
{
name = T;
transform = "{1, 0, 0, 1, 46, 0}";
}
);
};
layerId = "63224BA1-30A4-42F4-A6D1-9160F56B91B0";
paths = (
{
closed = 1;
nodes = (
"350 0 LINE",
"350 620 LINE",
"545 620 LINE",
"545 682 LINE",
"154 682 LINE SMOOTH",
"81 682 OFFCURVE",
"16 643 OFFCURVE",
"16 567 CURVE SMOOTH",
"16 493 OFFCURVE",
"77 456 OFFCURVE",
"154 456 CURVE",
"154 518 LINE",
"111 518 OFFCURVE",
"82 532 OFFCURVE",
"82 567 CURVE SMOOTH",
"82 605 OFFCURVE",
"111 620 OFFCURVE",
"154 620 CURVE SMOOTH",
"276 620 LINE",
"276 0 LINE"
);
}
);
width = 565;
}
);
leftKerningGroup = Thook;
rightKerningGroup = Thook;
unicode = 01AC;
},
{
color = 6;
glyphname = Tretroflexhook;
layers = (
{
background = {
components = (
{
name = T;
}
);
paths = (
{
closed = 1;
nodes = (
"230 24 LINE",
"230 -52 LINE SMOOTH",
"230 -162 OFFCURVE",
"298 -200 OFFCURVE",
"389 -200 CURVE SMOOTH",
"416 -200 LINE",
"416 -132 LINE",
"389 -132 LINE SMOOTH",
"332 -132 OFFCURVE",
"304 -107 OFFCURVE",
"304 -52 CURVE SMOOTH",
"304 24 LINE"
);
}
);
};
components = (
{
name = T;
}
);
layerId = "63224BA1-30A4-42F4-A6D1-9160F56B91B0";
paths = (
{
closed = 1;
nodes = (
"230 24 LINE",
"230 -52 LINE SMOOTH",
"230 -162 OFFCURVE",
"298 -200 OFFCURVE",
"389 -200 CURVE SMOOTH",
"416 -200 LINE",
"416 -132 LINE",
"389 -132 LINE SMOOTH",
"332 -132 OFFCURVE",
"304 -107 OFFCURVE",
"304 -52 CURVE SMOOTH",
"304 24 LINE"
);
}
);
width = 506;
}
);
leftKerningGroup = Tretroflexhook;
rightKerningGroup = Tretroflexhook;
unicode = 01AE;
},
{
color = 5;
glyphname = U;
layers = (
{
anchors = (
{
name = bottom;
position = "{330, 0}";
},
{
name = ogonek;
position = "{443, 4}";
},
{
name = top;
position = "{330, 682}";
},
{
name = topright;
position = "{580, 682}";
}
);
background = {
components = (
{
name = H;
transform = "{1, 0, 0, 1, -10, 0}";
}
);
paths = (
{
closed = 1;
nodes = (
"843 509 OFFCURVE",
"932 629 OFFCURVE",
"1057 629 CURVE SMOOTH",
"1182 629 OFFCURVE",
"1271 509 OFFCURVE",
"1271 340 CURVE SMOOTH",
"1271 172 OFFCURVE",
"1182 53 OFFCURVE",
"1057 53 CURVE SMOOTH",
"932 53 OFFCURVE",
"843 172 OFFCURVE",
"843 340 CURVE SMOOTH"
);
},
{
closed = 1;
nodes = (
"764 131 OFFCURVE",
"885 -16 OFFCURVE",
"1057 -16 CURVE SMOOTH",
"1229 -16 OFFCURVE",
"1350 131 OFFCURVE",
"1350 339 CURVE SMOOTH",
"1350 549 OFFCURVE",
"1229 697 OFFCURVE",
"1057 697 CURVE SMOOTH",
"885 697 OFFCURVE",
"764 549 OFFCURVE",
"764 340 CURVE SMOOTH"
);
}
);
};
layerId = "63224BA1-30A4-42F4-A6D1-9160F56B91B0";
paths = (
{
closed = 1;
nodes = (
"486 -16 OFFCURVE",
"580 78 OFFCURVE",
"580 253 CURVE SMOOTH",
"580 682 LINE",
"505 682 LINE",
"505 253 LINE SMOOTH",
"505 121 OFFCURVE",
"437 52 OFFCURVE",
"332 52 CURVE SMOOTH",
"212 52 OFFCURVE",
"155 121 OFFCURVE",
"155 253 CURVE SMOOTH",
"155 682 LINE",
"80 682 LINE",
"80 253 LINE SMOOTH",
"80 78 OFFCURVE",
"163 -16 OFFCURVE",
"332 -16 CURVE SMOOTH"
);
}
);
width = 660;
}
);
leftKerningGroup = U;
rightKerningGroup = U;
unicode = 0055;
},
{
color = 6;
glyphname = Ubar;
layers = (
{
background = {
components = (
{
name = U;
transform = "{1, 0, 0, 1, 3, 0}";
}
);
};
components = (
{
name = U;
transform = "{1, 0, 0, 1, 3, 0}";
}
);
layerId = "63224BA1-30A4-42F4-A6D1-9160F56B91B0";
paths = (
{
closed = 1;
nodes = (
"632 420 LINE",
"632 468 LINE",
"40 468 LINE",
"40 420 LINE"
);
}
);
width = 672;
}
);
leftKerningGroup = Ubar;
rightKerningGroup = Ubar;
unicode = 0244;
},
{
color = 6;
glyphname = Upsilonafrican;
layers = (
{
guideLines = (
{
angle = 180;
position = "{110, 627}";
}
);
layerId = "63224BA1-30A4-42F4-A6D1-9160F56B91B0";
paths = (
{
closed = 1;
nodes = (
"616 627 LINE",
"616 682 LINE",
"458 682 LINE",
"458 626 LINE",
"528 509 OFFCURVE",
"560 432 OFFCURVE",
"560 310 CURVE SMOOTH",
"560 144 OFFCURVE",
"489 53 OFFCURVE",
"343 53 CURVE SMOOTH",
"197 53 OFFCURVE",
"126 144 OFFCURVE",
"126 310 CURVE SMOOTH",
"126 432 OFFCURVE",
"158 509 OFFCURVE",
"228 626 CURVE",
"228 682 LINE",
"70 682 LINE",
"70 627 LINE",
"150 627 LINE",
"102 532 OFFCURVE",
"50 446 OFFCURVE",
"50 310 CURVE SMOOTH",
"50 119 OFFCURVE",
"156 -16 OFFCURVE",
"343 -16 CURVE SMOOTH",
"530 -16 OFFCURVE",
"636 119 OFFCURVE",
"636 310 CURVE SMOOTH",
"636 446 OFFCURVE",
"584 532 OFFCURVE",
"536 627 CURVE"
);
}
);
width = 686;
}
);
leftKerningGroup = Upsilonafrican;
rightKerningGroup = Upsilonafrican;
unicode = 01B1;
},
{
color = 5;
glyphname = V;
layers = (
{
anchors = (
{
name = bottom;
position = "{278, 0}";
},
{
name = top;
position = "{278, 682}";
}
);
layerId = "63224BA1-30A4-42F4-A6D1-9160F56B91B0";
paths = (
{
closed = 1;
nodes = (
"317 0 LINE",
"555 682 LINE",
"482 682 LINE",
"268 56 LINE",
"286 56 LINE",
"75 682 LINE",
"0 682 LINE",
"237 0 LINE"
);
}
);
width = 555;
}
);
leftKerningGroup = V;
rightKerningGroup = V;
unicode = 0056;
},
{
color = 6;
glyphname = Vhook;
layers = (
{
layerId = "63224BA1-30A4-42F4-A6D1-9160F56B91B0";
paths = (
{
closed = 1;
nodes = (
"510 -16 OFFCURVE",
"616 116 OFFCURVE",
"616 340 CURVE SMOOTH",
"616 468 OFFCURVE",
"562 586 OFFCURVE",
"465 682 CURVE",
"377 682 LINE",
"484 583 OFFCURVE",
"537 456 OFFCURVE",
"537 340 CURVE SMOOTH",
"537 160 OFFCURVE",
"460 53 OFFCURVE",
"330 53 CURVE SMOOTH",
"217 53 OFFCURVE",
"151 141 OFFCURVE",
"151 290 CURVE SMOOTH",
"151 682 LINE",
"72 682 LINE",
"72 290 LINE SMOOTH",
"72 98 OFFCURVE",
"168 -16 OFFCURVE",
"330 -16 CURVE SMOOTH"
);
}
);
width = 641;
}
);
leftKerningGroup = Vhook;
rightKerningGroup = Vhook;
unicode = 01B2;
},
{
color = 5;
glyphname = W;
layers = (
{
anchors = (
{
name = bottom;
position = "{426, 0}";
},
{
name = top;
position = "{426, 682}";
}
);
layerId = "63224BA1-30A4-42F4-A6D1-9160F56B91B0";
paths = (
{
closed = 1;
nodes = (
"281 0 LINE",
"439 594 LINE",
"415 594 LINE",
"569 0 LINE",
"647 0 LINE",
"829 682 LINE",
"758 682 LINE",
"606 82 LINE",
"617 82 LINE",
"458 682 LINE",
"397 682 LINE",
"238 81 LINE",
"252 81 LINE",
"99 682 LINE",
"22 682 LINE",
"204 0 LINE"
);
}
);
width = 851;
}
);
leftKerningGroup = V;
rightKerningGroup = V;
unicode = 0057;
},
{
color = 6;
glyphname = Whook;
layers = (
{
background = {
anchors = (
{
name = bottom;
position = "{426, 0}";
},
{
name = top;
position = "{426, 682}";
}
);
paths = (
{
closed = 1;
nodes = (
"719 529 LINE",
"606 82 LINE",
"617 82 LINE",
"458 682 LINE",
"397 682 LINE",
"238 81 LINE",
"252 81 LINE",
"99 682 LINE",
"22 682 LINE",
"204 0 LINE",
"281 0 LINE",
"439 594 LINE",
"415 594 LINE",
"569 0 LINE",
"647 0 LINE",
"783 508 LINE"
);
}
);
};
layerId = "63224BA1-30A4-42F4-A6D1-9160F56B91B0";
paths = (
{
closed = 1;
nodes = (
"794 697 OFFCURVE",
"751 652 OFFCURVE",
"729 566 CURVE SMOOTH",
"611 103 LINE",
"458 682 LINE",
"397 682 LINE",
"245 108 LINE",
"99 682 LINE",
"22 682 LINE",
"204 0 LINE",
"281 0 LINE",
"427 548 LINE",
"569 0 LINE",
"647 0 LINE",
"789 525 LINE SMOOTH",
"806 590 OFFCURVE",
"826 632 OFFCURVE",
"877 632 CURVE SMOOTH",
"925 632 OFFCURVE",
"945 581 OFFCURVE",
"920 530 CURVE",
"975 508 LINE",
"988 532 OFFCURVE",
"994 556 OFFCURVE",
"994 579 CURVE SMOOTH",
"994 648 OFFCURVE",
"949 697 OFFCURVE",
"881 697 CURVE SMOOTH"
);
}
);
width = 994;
}
);
leftKerningGroup = Whook;
leftMetricsKey = W;
rightKerningGroup = Whook;
unicode = 2C72;
},
{
color = 5;
glyphname = X;
layers = (
{
anchors = (
{
name = bottom;
position = "{258, 0}";
},
{
name = top;
position = "{258, 682}";
}
);
background = {
paths = (
{
closed = 1;
nodes = (
"412 0 LINE",
"496 0 LINE",
"291 351 LINE",
"249 287 LINE"
);
},
{
closed = 1;
nodes = (
"76 682 LINE",
"-2 682 LINE",
"217 321 LINE",
"263 369 LINE"
);
},
{
closed = 1;
nodes = (
"424 682 LINE",
"11 0 LINE",
"95 0 LINE",
"508 682 LINE"
);
}
);
};
guideLines = (
{
angle = 90;
position = "{493, 408}";
},
{
angle = 90;
position = "{21, 408}";
}
);
layerId = "63224BA1-30A4-42F4-A6D1-9160F56B91B0";
paths = (
{
closed = 1;
nodes = (
"511 0 LINE",
"302 345 LINE",
"265 375 LINE",
"86 682 LINE",
"5 682 LINE",
"216 321 LINE",
"252 289 LINE",
"427 0 LINE"
);
},
{
closed = 1;
nodes = (
"94 0 LINE",
"264 300 LINE",
"215 351 LINE",
"10 0 LINE"
);
},
{
closed = 1;
nodes = (
"508 682 LINE",
"430 682 LINE",
"243 369 LINE",
"289 321 LINE"
);
}
);
width = 516;
}
);
leftKerningGroup = X;
rightKerningGroup = X;
unicode = 0058;
},
{
color = 5;
glyphname = Y;
layers = (
{
anchors = (
{
name = bottom;
position = "{242, 0}";
},
{
name = top;
position = "{242, 682}";
},
{
name = topleft;
position = "{20, 682}";
}
);
background = {
components = (
{
name = V;
transform = "{1, 0, 0, 1, -45, 0}";
}
);
};
layerId = "63224BA1-30A4-42F4-A6D1-9160F56B91B0";
paths = (
{
closed = 1;
nodes = (
"278 0 LINE",
"278 279 LINE",
"499 682 LINE",
"430 682 LINE",
"240 331 LINE",
"252 331 LINE",
"60 682 LINE",
"-15 682 LINE",
"204 282 LINE",
"204 0 LINE"
);
}
);
width = 484;
}
);
leftKerningGroup = Y;
rightKerningGroup = Y;
unicode = 0059;
},
{
color = 6;
glyphname = Yhook;
layers = (
{
background = {
paths = (
{
closed = 1;
nodes = (
"449 590 OFFCURVE",
"477 638 OFFCURVE",
"529 638 CURVE SMOOTH",
"555 638 OFFCURVE",
"568 617 OFFCURVE",
"568 591 CURVE SMOOTH",
"568 572 OFFCURVE",
"561 550 OFFCURVE",
"548 530 CURVE",
"604 495 LINE",
"628 530 OFFCURVE",
"640 566 OFFCURVE",
"640 598 CURVE SMOOTH",
"640 654 OFFCURVE",
"603 697 OFFCURVE",
"538 697 CURVE SMOOTH",
"451 697 OFFCURVE",
"414 652 OFFCURVE",
"367 566 CURVE",
"413 525 LINE"
);
}
);
};
layerId = "63224BA1-30A4-42F4-A6D1-9160F56B91B0";
paths = (
{
closed = 1;
nodes = (
"451 697 OFFCURVE",
"414 652 OFFCURVE",
"367 566 CURVE SMOOTH",
"246 342 LINE",
"60 682 LINE",
"-15 682 LINE",
"204 282 LINE",
"204 0 LINE",
"278 0 LINE",
"278 279 LINE",
"413 525 LINE SMOOTH",
"449 590 OFFCURVE",
"477 638 OFFCURVE",
"529 638 CURVE SMOOTH",
"555 638 OFFCURVE",
"574 617 OFFCURVE",
"574 591 CURVE SMOOTH",
"574 572 OFFCURVE",
"567 550 OFFCURVE",
"554 530 CURVE",
"604 495 LINE",
"628 530 OFFCURVE",
"640 566 OFFCURVE",
"640 598 CURVE SMOOTH",
"640 654 OFFCURVE",
"603 697 OFFCURVE",
"538 697 CURVE SMOOTH"
);
}
);
width = 640;
}
);
leftKerningGroup = Yhook;
leftMetricsKey = Y;
rightKerningGroup = Yhook;
unicode = 01B3;
},
{
color = 5;
glyphname = Z;
layers = (
{
anchors = (
{
name = bottom;
position = "{252, 0}";
},
{
name = top;
position = "{252, 682}";
}
);
layerId = "63224BA1-30A4-42F4-A6D1-9160F56B91B0";
paths = (
{
closed = 1;
nodes = (
"464 0 LINE",
"464 62 LINE",
"118 62 LINE",
"474 607 LINE",
"474 682 LINE",
"48 682 LINE",
"48 620 LINE",
"400 620 LINE",
"38 63 LINE",
"38 0 LINE"
);
}
);
width = 503;
}
);
leftKerningGroup = Z;
rightKerningGroup = Z;
unicode = 005A;
},
{
color = 6;
glyphname = Ismall;
layers = (
{
background = {
anchors = (
{
name = bottom;
position = "{159, 0}";
},
{
name = ogonek;
position = "{232, 24}";
},
{
name = top;
position = "{159, 682}";
},
{
name = topleft;
position = "{55, 682}";
}
);
paths = (
{
closed = 1;
nodes = (
"217 0 LINE",
"217 66 LINE",
"151 66 LINE",
"151 346 LINE",
"217 346 LINE",
"217 412 LINE",
"10 412 LINE",
"10 346 LINE",
"76 346 LINE",
"76 66 LINE",
"10 66 LINE",
"10 0 LINE"
);
}
);
};
layerId = "63224BA1-30A4-42F4-A6D1-9160F56B91B0";
paths = (
{
closed = 1;
nodes = (
"206 0 LINE",
"206 58 LINE",
"151 58 LINE",
"151 410 LINE",
"206 410 LINE",
"206 468 LINE",
"21 468 LINE",
"21 410 LINE",
"76 410 LINE",
"76 58 LINE",
"21 58 LINE",
"21 0 LINE"
);
}
);
width = 227;
}
);
leftKerningGroup = Ismall;
rightKerningGroup = Ismall;
unicode = 026A;
},
{
color = 5;
glyphname = a;
layers = (
{
anchors = (
{
name = bottom;
position = "{281, 0}";
},
{
name = ogonek;
position = "{505, 10}";
},
{
name = top;
position = "{281, 468}";
}
);
background = {
components = (
{
name = _part.roundLC;
}
);
};
components = (
{
name = _part.roundLC;
}
);
layerId = "63224BA1-30A4-42F4-A6D1-9160F56B91B0";
paths = (
{
closed = 1;
nodes = (
"498 0 LINE",
"498 468 LINE",
"430 468 LINE",
"430 0 LINE"
);
}
);
width = 561;
}
);
leftKerningGroup = a;
rightKerningGroup = n;
unicode = 0061;
},
{
color = 6;
glyphname = "alpha-latin";
layers = (
{
background = {
anchors = (
{
name = bottom;
position = "{281, 0}";
},
{
name = ogonek;
position = "{505, 10}";
},
{
name = top;
position = "{281, 597}";
}
);
paths = (
{
closed = 1;
nodes = (
"390 -16 OFFCURVE",
"478 88 OFFCURVE",
"478 234 CURVE SMOOTH",
"478 380 OFFCURVE",
"389 484 OFFCURVE",
"265 484 CURVE SMOOTH",
"130 484 OFFCURVE",
"34 381 OFFCURVE",
"34 235 CURVE SMOOTH",
"34 88 OFFCURVE",
"131 -16 OFFCURVE",
"267 -16 CURVE SMOOTH"
);
},
{
closed = 1;
nodes = (
"170 46 OFFCURVE",
"102 124 OFFCURVE",
"102 235 CURVE SMOOTH",
"102 345 OFFCURVE",
"170 422 OFFCURVE",
"265 422 CURVE SMOOTH",
"362 422 OFFCURVE",
"430 344 OFFCURVE",
"430 234 CURVE SMOOTH",
"430 124 OFFCURVE",
"362 46 OFFCURVE",
"265 46 CURVE SMOOTH"
);
},
{
closed = 1;
nodes = (
"588 68 LINE",
"528 68 OFFCURVE",
"498 95 OFFCURVE",
"498 148 CURVE SMOOTH",
"498 468 LINE",
"430 468 LINE",
"430 148 LINE SMOOTH",
"430 52 OFFCURVE",
"499 0 OFFCURVE",
"588 0 CURVE"
);
}
);
};
layerId = "63224BA1-30A4-42F4-A6D1-9160F56B91B0";
paths = (
{
closed = 1;
nodes = (
"498 247 LINE",
"492 386 OFFCURVE",
"397 484 OFFCURVE",
"265 484 CURVE SMOOTH",
"130 484 OFFCURVE",
"34 381 OFFCURVE",
"34 235 CURVE SMOOTH",
"34 88 OFFCURVE",
"131 -16 OFFCURVE",
"267 -16 CURVE SMOOTH",
"342 -16 OFFCURVE",
"404 23 OFFCURVE",
"441 87 CURVE",
"464 30 OFFCURVE",
"520 0 OFFCURVE",
"588 0 CURVE",
"588 68 LINE",
"528 68 OFFCURVE",
"498 95 OFFCURVE",
"498 148 CURVE SMOOTH"
);
},
{
closed = 1;
nodes = (
"170 46 OFFCURVE",
"102 124 OFFCURVE",
"102 235 CURVE SMOOTH",
"102 345 OFFCURVE",
"170 422 OFFCURVE",
"265 422 CURVE SMOOTH",
"362 422 OFFCURVE",
"430 344 OFFCURVE",
"430 234 CURVE SMOOTH",
"430 124 OFFCURVE",
"362 46 OFFCURVE",
"265 46 CURVE SMOOTH"
);
}
);
width = 597;
}
);
leftKerningGroup = "alpha-latin";
leftMetricsKey = o;
rightKerningGroup = "alpha-latin";
rightMetricsKey = iota;
unicode = 0251;
},
{
color = 5;
glyphname = ae;
layers = (
{
anchors = (
{
name = bottom;
position = "{438, 0}";
},
{
name = top;
position = "{438, 468}";
}
);
background = {
paths = (
{
closed = 1;
nodes = (
"421 343 LINE",
"413 374 OFFCURVE",
"400 399 OFFCURVE",
"383 420 CURVE SMOOTH",
"350 462 OFFCURVE",
"305 483 OFFCURVE",
"248 483 CURVE SMOOTH",
"245 483 LINE SMOOTH",
"158 483 OFFCURVE",
"117 453 OFFCURVE",
"66 389 CURVE",
"119 356 LINE",
"138 379 OFFCURVE",
"155 396 OFFCURVE",
"172 406 CURVE SMOOTH",
"189 416 OFFCURVE",
"213 421 OFFCURVE",
"245 421 CURVE SMOOTH",
"288 421 OFFCURVE",
"322 403 OFFCURVE",
"348 367 CURVE SMOOTH",
"372 335 OFFCURVE",
"384 297 OFFCURVE",
"386 254 CURVE"
);
},
{
closed = 1;
nodes = (
"460 296 LINE",
"467 321 OFFCURVE",
"480 344 OFFCURVE",
"498 365 CURVE SMOOTH",
"531 403 OFFCURVE",
"568 422 OFFCURVE",
"611 422 CURVE SMOOTH",
"654 422 OFFCURVE",
"693 404 OFFCURVE",
"727 368 CURVE SMOOTH",
"746 347 OFFCURVE",
"761 323 OFFCURVE",
"770 296 CURVE"
);
},
{
closed = 1;
nodes = (
"429 109 LINE",
"385 76 OFFCURVE",
"302 46 OFFCURVE",
"225 46 CURVE SMOOTH",
"154 46 OFFCURVE",
"110 73 OFFCURVE",
"110 126 CURVE SMOOTH",
"110 179 OFFCURVE",
"151 212 OFFCURVE",
"195 223 CURVE SMOOTH",
"242 235 OFFCURVE",
"321 235 OFFCURVE",
"398 216 CURVE",
"401 266 LINE",
"339 282 OFFCURVE",
"291 290 OFFCURVE",
"256 290 CURVE SMOOTH",
"224 290 OFFCURVE",
"192 285 OFFCURVE",
"159 276 CURVE",
"94 256 OFFCURVE",
"35 206 OFFCURVE",
"35 123 CURVE SMOOTH",
"35 82 OFFCURVE",
"52 49 OFFCURVE",
"87 23 CURVE SMOOTH",
"122 -3 OFFCURVE",
"165 -16 OFFCURVE",
"216 -16 CURVE SMOOTH",
"309 -16 OFFCURVE",
"392 12 OFFCURVE",
"464 67 CURVE"
);
},
{
closed = 1;
nodes = (
"442 71 LINE",
"492 13 OFFCURVE",
"549 -16 OFFCURVE",
"611 -16 CURVE SMOOTH",
"670 -16 OFFCURVE",
"715 -7 OFFCURVE",
"747 10 CURVE SMOOTH",
"779 28 OFFCURVE",
"807 56 OFFCURVE",
"832 95 CURVE",
"778 131 LINE",
"759 99 OFFCURVE",
"738 77 OFFCURVE",
"716 64 CURVE SMOOTH",
"695 52 OFFCURVE",
"661 46 OFFCURVE",
"615 46 CURVE SMOOTH",
"570 46 OFFCURVE",
"531 65 OFFCURVE",
"498 103 CURVE",
"466 142 OFFCURVE",
"450 185 OFFCURVE",
"450 234 CURVE",
"847 234 LINE",
"847 301 OFFCURVE",
"823 359 OFFCURVE",
"776 409 CURVE SMOOTH",
"729 459 OFFCURVE",
"676 484 OFFCURVE",
"615 484 CURVE SMOOTH",
"554 484 OFFCURVE",
"500 459 OFFCURVE",
"453 409 CURVE SMOOTH",
"435 390 OFFCURVE",
"421 368 OFFCURVE",
"408 347 CURVE",
"385 287 LINE",
"385 257 LINE",
"382 233 LINE",
"383 179 OFFCURVE",
"400 134 OFFCURVE",
"427 91 CURVE"
);
}
);
};
layerId = "63224BA1-30A4-42F4-A6D1-9160F56B91B0";
paths = (
{
closed = 1;
nodes = (
"723 -16 OFFCURVE",
"792 30 OFFCURVE",
"834 95 CURVE",
"780 131 LINE",
"750 81 OFFCURVE",
"702 46 OFFCURVE",
"617 46 CURVE SMOOTH",
"507 46 OFFCURVE",
"453 140 OFFCURVE",
"453 233 CURVE SMOOTH",
"453 328 OFFCURVE",
"508 422 OFFCURVE",
"616 422 CURVE SMOOTH",
"704 422 OFFCURVE",
"758 374 OFFCURVE",
"771 276 CURVE",
"447 276 LINE",
"436 220 LINE",
"838 220 LINE",
"854 378 OFFCURVE",
"762 484 OFFCURVE",
"616 484 CURVE SMOOTH",
"481 484 OFFCURVE",
"385 380 OFFCURVE",
"385 234 CURVE SMOOTH",
"385 88 OFFCURVE",
"482 -16 OFFCURVE",
"619 -16 CURVE SMOOTH"
);
},
{
closed = 1;
nodes = (
"335 -16 OFFCURVE",
"395 12 OFFCURVE",
"464 67 CURVE",
"429 109 LINE",
"387 76 OFFCURVE",
"328 46 OFFCURVE",
"255 46 CURVE SMOOTH",
"178 46 OFFCURVE",
"130 73 OFFCURVE",
"130 136 CURVE SMOOTH",
"130 200 OFFCURVE",
"198 230 OFFCURVE",
"286 230 CURVE SMOOTH",
"321 230 OFFCURVE",
"360 225 OFFCURVE",
"398 216 CURVE",
"401 266 LINE",
"353 282 OFFCURVE",
"341 290 OFFCURVE",
"276 290 CURVE SMOOTH",
"160 290 OFFCURVE",
"55 235 OFFCURVE",
"55 133 CURVE SMOOTH",
"55 34 OFFCURVE",
"136 -16 OFFCURVE",
"246 -16 CURVE SMOOTH"
);
},
{
closed = 1;
nodes = (
"431 303 LINE",
"431 412 OFFCURVE",
"368 483 OFFCURVE",
"245 483 CURVE SMOOTH",
"178 483 OFFCURVE",
"115 457 OFFCURVE",
"69 399 CURVE",
"118 364 LINE",
"152 406 OFFCURVE",
"192 425 OFFCURVE",
"243 425 CURVE SMOOTH",
"341 425 OFFCURVE",
"381 360 OFFCURVE",
"386 254 CURVE"
);
}
);
width = 876;
}
);
leftKerningGroup = a;
rightKerningGroup = e;
rightMetricsKey = e;
unicode = 00E6;
},
{
color = 5;
glyphname = b;
layers = (
{
anchors = (
{
name = bottom;
position = "{296, 0}";
},
{
name = top;
position = "{311, 468}";
}
);
background = {
paths = (
{
closed = 1;
nodes = (
"460 124 OFFCURVE",
"392 46 OFFCURVE",
"297 46 CURVE SMOOTH",
"200 46 OFFCURVE",
"132 124 OFFCURVE",
"132 234 CURVE SMOOTH",
"132 344 OFFCURVE",
"200 422 OFFCURVE",
"297 422 CURVE SMOOTH",
"392 422 OFFCURVE",
"460 345 OFFCURVE",
"460 235 CURVE SMOOTH"
);
},
{
closed = 1;
nodes = (
"528 381 OFFCURVE",
"432 484 OFFCURVE",
"297 484 CURVE SMOOTH",
"173 484 OFFCURVE",
"84 380 OFFCURVE",
"84 234 CURVE SMOOTH",
"84 88 OFFCURVE",
"172 -16 OFFCURVE",
"295 -16 CURVE SMOOTH",
"431 -16 OFFCURVE",
"528 88 OFFCURVE",
"528 235 CURVE SMOOTH"
);
},
{
closed = 1;
nodes = (
"64 726 LINE",
"64 0 LINE",
"132 0 LINE",
"132 726 LINE"
);
}
);
};
layerId = "63224BA1-30A4-42F4-A6D1-9160F56B91B0";
paths = (
{
closed = 1;
nodes = (
"431 -16 OFFCURVE",
"528 88 OFFCURVE",
"528 235 CURVE SMOOTH",
"528 381 OFFCURVE",
"432 484 OFFCURVE",
"297 484 CURVE SMOOTH",
"173 484 OFFCURVE",
"84 380 OFFCURVE",
"84 234 CURVE SMOOTH",
"84 88 OFFCURVE",
"172 -16 OFFCURVE",
"295 -16 CURVE SMOOTH"
);
},
{
closed = 1;
nodes = (
"132 0 LINE",
"132 726 LINE",
"64 726 LINE",
"64 0 LINE"
);
},
{
closed = 1;
nodes = (
"200 46 OFFCURVE",
"132 124 OFFCURVE",
"132 234 CURVE SMOOTH",
"132 344 OFFCURVE",
"200 422 OFFCURVE",
"297 422 CURVE SMOOTH",
"392 422 OFFCURVE",
"460 345 OFFCURVE",
"460 235 CURVE SMOOTH",
"460 124 OFFCURVE",
"392 46 OFFCURVE",
"297 46 CURVE SMOOTH"
);
}
);
width = 561;
}
);
leftKerningGroup = h;
rightKerningGroup = o;
unicode = 0062;
},
{
color = 6;
glyphname = bhook;
layers = (
{
layerId = "63224BA1-30A4-42F4-A6D1-9160F56B91B0";
paths = (
{
closed = 1;
nodes = (
"228 484 OFFCURVE",
"170 452 OFFCURVE",
"132 398 CURVE",
"132 599 LINE SMOOTH",
"132 649 OFFCURVE",
"161 679 OFFCURVE",
"211 679 CURVE SMOOTH",
"281 679 LINE",
"281 741 LINE",
"211 741 LINE SMOOTH",
"119 741 OFFCURVE",
"64 686 OFFCURVE",
"64 594 CURVE SMOOTH",
"64 0 LINE",
"132 0 LINE",
"132 69 LINE",
"170 16 OFFCURVE",
"227 -16 OFFCURVE",
"295 -16 CURVE SMOOTH",
"431 -16 OFFCURVE",
"528 88 OFFCURVE",
"528 235 CURVE SMOOTH",
"528 381 OFFCURVE",
"432 484 OFFCURVE",
"297 484 CURVE SMOOTH"
);
},
{
closed = 1;
nodes = (
"200 46 OFFCURVE",
"132 124 OFFCURVE",
"132 234 CURVE SMOOTH",
"132 344 OFFCURVE",
"200 422 OFFCURVE",
"297 422 CURVE SMOOTH",
"392 422 OFFCURVE",
"460 345 OFFCURVE",
"460 235 CURVE SMOOTH",
"460 124 OFFCURVE",
"392 46 OFFCURVE",
"297 46 CURVE SMOOTH"
);
}
);
width = 561;
}
);
leftKerningGroup = bhook;
rightKerningGroup = bhook;
unicode = 0253;
},
{
color = 6;
glyphname = bstroke;
layers = (
{
background = {
paths = (
{
closed = 1;
nodes = (
"139 599 LINE",
"139 726 LINE",
"71 726 LINE",
"71 599 LINE"
);
},
{
closed = 1;
nodes = (
"258 46 OFFCURVE",
"220 65 OFFCURVE",
"187 104 CURVE SMOOTH",
"155 142 OFFCURVE",
"139 185 OFFCURVE",
"139 234 CURVE SMOOTH",
"139 283 OFFCURVE",
"155 327 OFFCURVE",
"187 365 CURVE SMOOTH",
"220 403 OFFCURVE",
"258 422 OFFCURVE",
"303 422 CURVE SMOOTH",
"348 422 OFFCURVE",
"386 403 OFFCURVE",
"419 365 CURVE SMOOTH",
"451 327 OFFCURVE",
"467 283 OFFCURVE",
"467 234 CURVE SMOOTH",
"467 185 OFFCURVE",
"451 142 OFFCURVE",
"419 104 CURVE SMOOTH",
"386 65 OFFCURVE",
"348 46 OFFCURVE",
"303 46 CURVE SMOOTH"
);
},
{
closed = 1;
nodes = (
"71 583 LINE",
"71 0 LINE",
"139 0 LINE",
"139 71 LINE",
"178 13 OFFCURVE",
"231 -16 OFFCURVE",
"296 -16 CURVE SMOOTH",
"361 -16 OFFCURVE",
"418 9 OFFCURVE",
"465 59 CURVE SMOOTH",
"512 109 OFFCURVE",
"535 167 OFFCURVE",
"535 234 CURVE SMOOTH",
"535 301 OFFCURVE",
"512 359 OFFCURVE",
"466 409 CURVE SMOOTH",
"419 459 OFFCURVE",
"364 484 OFFCURVE",
"299 484 CURVE SMOOTH",
"234 484 OFFCURVE",
"180 454 OFFCURVE",
"139 395 CURVE",
"139 583 LINE"
);
},
{
closed = 1;
nodes = (
"313 567 LINE",
"313 615 LINE",
"41 615 LINE",
"41 567 LINE"
);
}
);
};
components = (
{
name = b;
transform = "{1, 0, 0, 1, 8, 0}";
}
);
layerId = "63224BA1-30A4-42F4-A6D1-9160F56B91B0";
paths = (
{
closed = 1;
nodes = (
"303 567 LINE",
"303 615 LINE",
"1 615 LINE",
"1 567 LINE"
);
}
);
width = 569;
}
);
leftKerningGroup = bstroke;
leftMetricsKey = hbar;
rightKerningGroup = bstroke;
rightMetricsKey = o;
unicode = 0180;
},
{
color = 5;
glyphname = c;
layers = (
{
anchors = (
{
name = bottom;
position = "{259, 0}";
},
{
name = top;
position = "{269, 468}";
}
);
layerId = "63224BA1-30A4-42F4-A6D1-9160F56B91B0";
paths = (
{
closed = 1;
nodes = (
"345 -16 OFFCURVE",
"412 21 OFFCURVE",
"454 74 CURVE",
"401 111 LINE",
"371 73 OFFCURVE",
"335 46 OFFCURVE",
"266 46 CURVE SMOOTH",
"170 46 OFFCURVE",
"102 124 OFFCURVE",
"102 234 CURVE SMOOTH",
"102 344 OFFCURVE",
"170 422 OFFCURVE",
"266 422 CURVE SMOOTH",
"322 422 OFFCURVE",
"364 393 OFFCURVE",
"393 351 CURVE",
"443 390 LINE",
"400 445 OFFCURVE",
"347 484 OFFCURVE",
"266 484 CURVE SMOOTH",
"130 484 OFFCURVE",
"34 380 OFFCURVE",
"34 234 CURVE SMOOTH",
"34 88 OFFCURVE",
"131 -16 OFFCURVE",
"268 -16 CURVE SMOOTH"
);
}
);
width = 477;
}
);
leftKerningGroup = o;
rightKerningGroup = c;
unicode = 0063;
},
{
color = 6;
glyphname = chook;
layers = (
{
background = {
components = (
{
name = c;
}
);
};
components = (
{
name = c;
}
);
layerId = "63224BA1-30A4-42F4-A6D1-9160F56B91B0";
paths = (
{
closed = 1;
nodes = (
"443 390 LINE",
"443 445 LINE SMOOTH",
"443 495 OFFCURVE",
"475 525 OFFCURVE",
"529 525 CURVE",
"529 587 LINE",
"437 587 OFFCURVE",
"382 529 OFFCURVE",
"382 430 CURVE"
);
}
);
width = 477;
}
);
leftKerningGroup = chook;
rightKerningGroup = chook;
unicode = 0188;
},
{
color = 6;
glyphname = cstroke;
layers = (
{
background = {
components = (
{
name = c;
}
);
};
components = (
{
name = c;
}
);
layerId = "63224BA1-30A4-42F4-A6D1-9160F56B91B0";
paths = (
{
closed = 1;
nodes = (
"412 522 LINE",
"366 544 LINE",
"94 -39 LINE",
"140 -60 LINE"
);
}
);
width = 477;
}
);
leftKerningGroup = cstroke;
rightKerningGroup = cstroke;
unicode = 023C;
},
{
color = 5;
glyphname = d;
layers = (
{
anchors = (
{
name = bottom;
position = "{281, 0}";
},
{
name = center;
position = "{444, 558}";
},
{
name = top;
position = "{281, 468}";
},
{
name = topright;
position = "{561, 468}";
}
);
background = {
paths = (
{
closed = 1;
nodes = (
"102 284 OFFCURVE",
"118 327 OFFCURVE",
"150 365 CURVE SMOOTH",
"182 403 OFFCURVE",
"220 422 OFFCURVE",
"265 422 CURVE SMOOTH",
"310 422 OFFCURVE",
"349 403 OFFCURVE",
"381 365 CURVE SMOOTH",
"414 327 OFFCURVE",
"430 283 OFFCURVE",
"430 234 CURVE SMOOTH",
"430 185 OFFCURVE",
"414 142 OFFCURVE",
"381 103 CURVE SMOOTH",
"349 65 OFFCURVE",
"310 46 OFFCURVE",
"265 46 CURVE SMOOTH",
"220 46 OFFCURVE",
"182 65 OFFCURVE",
"150 103 CURVE SMOOTH",
"118 142 OFFCURVE",
"102 186 OFFCURVE",
"102 235 CURVE SMOOTH"
);
},
{
closed = 1;
nodes = (
"57 360 OFFCURVE",
"34 301 OFFCURVE",
"34 234 CURVE SMOOTH",
"34 167 OFFCURVE",
"57 108 OFFCURVE",
"104 58 CURVE SMOOTH",
"151 9 OFFCURVE",
"207 -16 OFFCURVE",
"272 -16 CURVE SMOOTH",
"337 -16 OFFCURVE",
"390 13 OFFCURVE",
"430 71 CURVE",
"430 0 LINE",
"498 0 LINE",
"498 726 LINE",
"430 726 LINE",
"430 395 LINE",
"388 454 OFFCURVE",
"335 484 OFFCURVE",
"270 484 CURVE SMOOTH",
"205 484 OFFCURVE",
"150 459 OFFCURVE",
"104 410 CURVE SMOOTH"
);
}
);
};
layerId = "63224BA1-30A4-42F4-A6D1-9160F56B91B0";
paths = (
{
closed = 1;
nodes = (
"390 -16 OFFCURVE",
"478 88 OFFCURVE",
"478 234 CURVE SMOOTH",
"478 380 OFFCURVE",
"389 484 OFFCURVE",
"265 484 CURVE SMOOTH",
"130 484 OFFCURVE",
"34 381 OFFCURVE",
"34 235 CURVE SMOOTH",
"34 88 OFFCURVE",
"131 -16 OFFCURVE",
"267 -16 CURVE SMOOTH"
);
},
{
closed = 1;
nodes = (
"170 46 OFFCURVE",
"102 124 OFFCURVE",
"102 235 CURVE SMOOTH",
"102 345 OFFCURVE",
"170 422 OFFCURVE",
"265 422 CURVE SMOOTH",
"362 422 OFFCURVE",
"430 344 OFFCURVE",
"430 234 CURVE SMOOTH",
"430 124 OFFCURVE",
"362 46 OFFCURVE",
"265 46 CURVE SMOOTH"
);
},
{
closed = 1;
nodes = (
"498 0 LINE",
"498 726 LINE",
"430 726 LINE",
"430 0 LINE"
);
}
);
width = 561;
}
);
leftKerningGroup = o;
rightKerningGroup = d;
unicode = 0064;
},
{
color = 5;
glyphname = eth;
layers = (
{
background = {
anchors = (
{
name = bottom;
position = "{266, 0}";
},
{
name = center;
position = "{266, 234}";
},
{
name = ogonek;
position = "{339, -5}";
},
{
name = top;
position = "{266, 468}";
},
{
name = topright;
position = "{511, 468}";
}
);
paths = (
{
closed = 1;
nodes = (
"255 687 OFFCURVE",
"248 691 OFFCURVE",
"195 726 CURVE",
"162 680 LINE",
"195 655 OFFCURVE",
"228 634 OFFCURVE",
"261 606 CURVE SMOOTH",
"334 544 OFFCURVE",
"382 478 OFFCURVE",
"405 408 CURVE",
"498 216 LINE",
"502 395 OFFCURVE",
"446 528 OFFCURVE",
"297 652 CURVE SMOOTH"
);
},
{
closed = 1;
nodes = (
"169 568 LINE",
"199 536 LINE",
"370 703 LINE",
"340 734 LINE"
);
},
{
closed = 1;
nodes = (
"102 345 OFFCURVE",
"170 422 OFFCURVE",
"265 422 CURVE SMOOTH",
"362 422 OFFCURVE",
"430 344 OFFCURVE",
"430 234 CURVE SMOOTH",
"430 124 OFFCURVE",
"362 46 OFFCURVE",
"265 46 CURVE SMOOTH",
"170 46 OFFCURVE",
"102 124 OFFCURVE",
"102 235 CURVE SMOOTH"
);
},
{
closed = 1;
nodes = (
"34 88 OFFCURVE",
"131 -16 OFFCURVE",
"267 -16 CURVE SMOOTH",
"402 -16 OFFCURVE",
"498 88 OFFCURVE",
"498 234 CURVE SMOOTH",
"498 380 OFFCURVE",
"401 484 OFFCURVE",
"265 484 CURVE SMOOTH",
"130 484 OFFCURVE",
"34 381 OFFCURVE",
"34 235 CURVE SMOOTH"
);
}
);
};
guideLines = (
{
angle = 90;
position = "{431, 562}";
},
{
angle = 90;
position = "{498, 562}";
}
);
layerId = "63224BA1-30A4-42F4-A6D1-9160F56B91B0";
paths = (
{
closed = 1;
nodes = (
"402 -16 OFFCURVE",
"498 88 OFFCURVE",
"498 234 CURVE",
"455 279 LINE",
"455 406 OFFCURVE",
"354 484 OFFCURVE",
"265 484 CURVE SMOOTH",
"130 484 OFFCURVE",
"34 381 OFFCURVE",
"34 235 CURVE SMOOTH",
"34 88 OFFCURVE",
"131 -16 OFFCURVE",
"267 -16 CURVE SMOOTH"
);
},
{
closed = 1;
nodes = (
"170 46 OFFCURVE",
"102 124 OFFCURVE",
"102 235 CURVE SMOOTH",
"102 345 OFFCURVE",
"170 422 OFFCURVE",
"265 422 CURVE SMOOTH",
"362 422 OFFCURVE",
"430 344 OFFCURVE",
"430 234 CURVE SMOOTH",
"430 124 OFFCURVE",
"362 46 OFFCURVE",
"265 46 CURVE SMOOTH"
);
},
{
closed = 1;
nodes = (
"498 537 OFFCURVE",
"409 649 OFFCURVE",
"187 729 CURVE",
"162 680 LINE",
"316 630 OFFCURVE",
"431 550 OFFCURVE",
"431 283 CURVE",
"498 216 LINE"
);
},
{
closed = 1;
nodes = (
"371 717 LINE",
"340 746 LINE",
"199 590 LINE",
"231 560 LINE"
);
}
);
width = 531;
}
);
leftKerningGroup = o;
leftMetricsKey = o;
rightKerningGroup = o;
rightMetricsKey = o;
unicode = 00F0;
},
{
color = 6;
glyphname = dhook;
layers = (
{
background = {
components = (
{
name = _part.roundLC;
}
);
paths = (
{
closed = 1;
nodes = (
"498 599 LINE",
"498 649 OFFCURVE",
"527 679 OFFCURVE",
"577 679 CURVE SMOOTH",
"647 679 LINE",
"647 741 LINE",
"577 741 LINE SMOOTH",
"485 741 OFFCURVE",
"430 686 OFFCURVE",
"430 594 CURVE SMOOTH",
"430 0 LINE",
"498 0 LINE"
);
}
);
};
components = (
{
name = _part.roundLC;
}
);
layerId = "63224BA1-30A4-42F4-A6D1-9160F56B91B0";
paths = (
{
closed = 1;
nodes = (
"498 599 LINE",
"498 649 OFFCURVE",
"527 679 OFFCURVE",
"577 679 CURVE SMOOTH",
"607 679 LINE",
"607 741 LINE",
"577 741 LINE SMOOTH",
"485 741 OFFCURVE",
"430 686 OFFCURVE",
"430 594 CURVE SMOOTH",
"430 0 LINE",
"498 0 LINE"
);
}
);
width = 567;
}
);
leftKerningGroup = dhook;
rightKerningGroup = dhook;
unicode = 0257;
},
{
color = 6;
glyphname = dtail;
layers = (
{
background = {
components = (
{
name = _part.roundLC;
}
);
paths = (
{
closed = 1;
nodes = (
"430 726 LINE",
"430 -48 LINE SMOOTH",
"430 -140 OFFCURVE",
"485 -195 OFFCURVE",
"577 -195 CURVE SMOOTH",
"607 -195 LINE",
"607 -133 LINE",
"577 -133 LINE SMOOTH",
"527 -133 OFFCURVE",
"498 -103 OFFCURVE",
"498 -53 CURVE",
"498 726 LINE"
);
}
);
};
components = (
{
name = _part.roundLC;
}
);
layerId = "63224BA1-30A4-42F4-A6D1-9160F56B91B0";
paths = (
{
closed = 1;
nodes = (
"430 726 LINE",
"430 -48 LINE SMOOTH",
"430 -140 OFFCURVE",
"485 -195 OFFCURVE",
"577 -195 CURVE SMOOTH",
"607 -195 LINE",
"607 -133 LINE",
"577 -133 LINE SMOOTH",
"527 -133 OFFCURVE",
"498 -103 OFFCURVE",
"498 -53 CURVE",
"498 726 LINE"
);
}
);
width = 561;
}
);
leftKerningGroup = dtail;
rightKerningGroup = dtail;
unicode = 0256;
},
{
color = 5;
glyphname = e;
layers = (
{
anchors = (
{
name = bottom;
position = "{275, 0}";
},
{
name = ogonek;
position = "{368, 1}";
},
{
name = top;
position = "{263, 468}";
}
);
background = {
paths = (
{
closed = 1;
nodes = (
"102 140 OFFCURVE",
"102 233 CURVE SMOOTH",
"102 328 OFFCURVE",
"157 422 OFFCURVE",
"265 422 CURVE SMOOTH",
"353 422 OFFCURVE",
"397 372 OFFCURVE",
"420 296 CURVE",
"96 296 LINE",
"86 234 LINE",
"498 234 LINE",
"498 380 OFFCURVE",
"401 484 OFFCURVE",
"265 484 CURVE SMOOTH",
"130 484 OFFCURVE",
"34 380 OFFCURVE",
"34 234 CURVE SMOOTH",
"34 88 OFFCURVE",
"131 -16 OFFCURVE",
"268 -16 CURVE SMOOTH",
"352 -16 OFFCURVE",
"441 30 OFFCURVE",
"483 95 CURVE",
"429 131 LINE",
"399 81 OFFCURVE",
"331 46 OFFCURVE",
"266 46 CURVE SMOOTH",
"156 46 OFFCURVE"
);
}
);
};
layerId = "63224BA1-30A4-42F4-A6D1-9160F56B91B0";
paths = (
{
closed = 1;
nodes = (
"372 -16 OFFCURVE",
"441 30 OFFCURVE",
"483 95 CURVE",
"429 131 LINE",
"399 81 OFFCURVE",
"351 46 OFFCURVE",
"266 46 CURVE SMOOTH",
"156 46 OFFCURVE",
"102 140 OFFCURVE",
"102 233 CURVE SMOOTH",
"102 328 OFFCURVE",
"157 422 OFFCURVE",
"265 422 CURVE SMOOTH",
"353 422 OFFCURVE",
"407 374 OFFCURVE",
"420 276 CURVE",
"96 276 LINE",
"85 220 LINE",
"487 220 LINE",
"502 368 OFFCURVE",
"401 484 OFFCURVE",
"265 484 CURVE SMOOTH",
"130 484 OFFCURVE",
"34 380 OFFCURVE",
"34 234 CURVE SMOOTH",
"34 88 OFFCURVE",
"131 -16 OFFCURVE",
"268 -16 CURVE SMOOTH"
);
}
);
width = 525;
}
);
leftKerningGroup = o;
rightKerningGroup = e;
unicode = 0065;
},
{
color = 6;
glyphname = esh;
layers = (
{
layerId = "63224BA1-30A4-42F4-A6D1-9160F56B91B0";
paths = (
{
closed = 1;
nodes = (
"-23 -200 LINE SMOOTH",
"74 -200 OFFCURVE",
"131 -145 OFFCURVE",
"131 -52 CURVE SMOOTH",
"131 594 LINE SMOOTH",
"131 648 OFFCURVE",
"161 680 OFFCURVE",
"211 680 CURVE SMOOTH",
"239 680 LINE",
"239 742 LINE",
"211 742 LINE SMOOTH",
"118 742 OFFCURVE",
"63 687 OFFCURVE",
"63 594 CURVE SMOOTH",
"63 -52 LINE SMOOTH",
"63 -102 OFFCURVE",
"31 -132 OFFCURVE",
"-23 -132 CURVE SMOOTH",
"-50 -132 LINE",
"-50 -200 LINE"
);
}
);
width = 193;
}
);
leftKerningGroup = esh;
rightKerningGroup = esh;
unicode = 0283;
},
{
color = 6;
glyphname = ezh;
layers = (
{
background = {
paths = (
{
closed = 1;
nodes = (
"306 -215 OFFCURVE",
"394 -121 OFFCURVE",
"394 11 CURVE SMOOTH",
"394 144 OFFCURVE",
"307 239 OFFCURVE",
"184 237 CURVE",
"184 181 LINE",
"271 179 OFFCURVE",
"333 111 OFFCURVE",
"333 11 CURVE SMOOTH",
"333 -88 OFFCURVE",
"271 -159 OFFCURVE",
"184 -159 CURVE SMOOTH",
"122 -159 OFFCURVE",
"89 -135 OFFCURVE",
"62 -100 CURVE",
"14 -134 LINE",
"52 -182 OFFCURVE",
"113 -215 OFFCURVE",
"182 -215 CURVE SMOOTH"
);
}
);
};
layerId = "63224BA1-30A4-42F4-A6D1-9160F56B91B0";
paths = (
{
closed = 1;
nodes = (
"373 406 LINE",
"373 468 LINE",
"37 468 LINE",
"37 406 LINE",
"301 406 LINE",
"122 186 LINE",
"152 146 LINE",
"288 159 OFFCURVE",
"333 98 OFFCURVE",
"333 4 CURVE SMOOTH",
"333 -94 OFFCURVE",
"274 -153 OFFCURVE",
"191 -153 CURVE SMOOTH",
"148 -153 OFFCURVE",
"101 -129 OFFCURVE",
"74 -94 CURVE",
"24 -134 LINE",
"62 -181 OFFCURVE",
"132 -215 OFFCURVE",
"192 -215 CURVE SMOOTH",
"310 -215 OFFCURVE",
"401 -127 OFFCURVE",
"401 4 CURVE SMOOTH",
"401 124 OFFCURVE",
"331 198 OFFCURVE",
"201 203 CURVE"
);
}
);
width = 420;
}
);
leftKerningGroup = ezh;
rightKerningGroup = ezh;
unicode = 0292;
},
{
color = 5;
glyphname = f;
layers = (
{
anchors = (
{
name = bottom;
position = "{124, 0}";
},
{
name = top;
position = "{138, 682}";
}
);
background = {
components = (
{
name = jdotless;
transform = "{-1, 0, 0, -1, 219, 543}";
}
);
};
components = (
{
name = jdotless;
transform = "{-1, 0, 0, -1, 219, 543}";
}
);
layerId = "63224BA1-30A4-42F4-A6D1-9160F56B91B0";
paths = (
{
closed = 1;
nodes = (
"156 0 LINE",
"156 406 LINE",
"264 406 LINE",
"264 468 LINE",
"28 468 LINE",
"28 406 LINE",
"88 406 LINE",
"88 0 LINE"
);
}
);
width = 275;
}
);
leftKerningGroup = f;
rightKerningGroup = f;
unicode = 0066;
},
{
color = 5;
glyphname = g;
layers = (
{
anchors = (
{
name = bottom;
position = "{281, -200}";
},
{
name = top;
position = "{251, 468}";
}
);
background = {
components = (
{
name = _part.roundLC;
}
);
paths = (
{
closed = 1;
nodes = (
"430 0 LINE",
"498 0 LINE",
"498 468 LINE",
"430 468 LINE"
);
}
);
};
components = (
{
name = _part.roundLC;
}
);
layerId = "63224BA1-30A4-42F4-A6D1-9160F56B91B0";
paths = (
{
closed = 1;
nodes = (
"292 -200 LINE SMOOTH",
"413 -200 OFFCURVE",
"498 -110 OFFCURVE",
"498 18 CURVE SMOOTH",
"498 468 LINE",
"430 468 LINE",
"430 18 LINE SMOOTH",
"430 -73 OFFCURVE",
"373 -138 OFFCURVE",
"292 -138 CURVE SMOOTH",
"98 -138 LINE",
"98 -200 LINE"
);
}
);
width = 561;
}
);
leftKerningGroup = g;
rightKerningGroup = g;
unicode = 0067;
},
{
color = 6;
glyphname = "gamma-latin";
layers = (
{
layerId = "63224BA1-30A4-42F4-A6D1-9160F56B91B0";
paths = (
{
closed = 1;
nodes = (
"259 -200 OFFCURVE",
"295 -163 OFFCURVE",
"295 -100 CURVE SMOOTH",
"295 -53 OFFCURVE",
"273 3 OFFCURVE",
"237 78 CURVE",
"397 468 LINE",
"325 468 LINE",
"202 132 LINE",
"73 468 LINE",
"1 468 LINE",
"161 78 LINE",
"125 1 OFFCURVE",
"103 -56 OFFCURVE",
"103 -101 CURVE SMOOTH",
"103 -163 OFFCURVE",
"139 -200 OFFCURVE",
"199 -200 CURVE SMOOTH"
);
},
{
closed = 1;
nodes = (
"174 -146 OFFCURVE",
"159 -129 OFFCURVE",
"159 -101 CURVE SMOOTH",
"159 -72 OFFCURVE",
"174 -38 OFFCURVE",
"199 19 CURVE",
"224 -42 OFFCURVE",
"239 -76 OFFCURVE",
"239 -100 CURVE SMOOTH",
"239 -129 OFFCURVE",
"224 -146 OFFCURVE",
"199 -146 CURVE SMOOTH"
);
}
);
width = 397;
}
);
leftKerningGroup = "gamma-latin";
rightKerningGroup = "gamma-latin";
unicode = 0263;
},
{
color = 6;
glyphname = ghook;
layers = (
{
background = {
paths = (
{
closed = 1;
nodes = (
"499 326 LINE",
"499 376 OFFCURVE",
"528 406 OFFCURVE",
"578 406 CURVE SMOOTH",
"608 406 LINE",
"608 468 LINE",
"578 468 LINE SMOOTH",
"486 468 OFFCURVE",
"431 413 OFFCURVE",
"431 321 CURVE SMOOTH",
"431 127 LINE",
"499 127 LINE"
);
}
);
};
layerId = "63224BA1-30A4-42F4-A6D1-9160F56B91B0";
paths = (
{
closed = 1;
nodes = (
"390 -16 OFFCURVE",
"478 88 OFFCURVE",
"478 234 CURVE SMOOTH",
"478 380 OFFCURVE",
"389 484 OFFCURVE",
"265 484 CURVE SMOOTH",
"130 484 OFFCURVE",
"34 381 OFFCURVE",
"34 235 CURVE SMOOTH",
"34 88 OFFCURVE",
"131 -16 OFFCURVE",
"267 -16 CURVE SMOOTH"
);
},
{
closed = 1;
nodes = (
"170 46 OFFCURVE",
"102 124 OFFCURVE",
"102 235 CURVE SMOOTH",
"102 345 OFFCURVE",
"170 422 OFFCURVE",
"265 422 CURVE SMOOTH",
"362 422 OFFCURVE",
"430 344 OFFCURVE",
"430 234 CURVE SMOOTH",
"430 124 OFFCURVE",
"362 46 OFFCURVE",
"265 46 CURVE SMOOTH"
);
},
{
closed = 1;
nodes = (
"485 468 OFFCURVE",
"430 413 OFFCURVE",
"430 321 CURVE SMOOTH",
"430 18 LINE SMOOTH",
"430 -73 OFFCURVE",
"373 -138 OFFCURVE",
"292 -138 CURVE SMOOTH",
"98 -138 LINE",
"98 -200 LINE",
"292 -200 LINE SMOOTH",
"413 -200 OFFCURVE",
"498 -110 OFFCURVE",
"498 18 CURVE SMOOTH",
"498 326 LINE SMOOTH",
"498 376 OFFCURVE",
"527 406 OFFCURVE",
"577 406 CURVE SMOOTH",
"607 406 LINE",
"607 468 LINE",
"577 468 LINE SMOOTH"
);
}
);
width = 587;
}
);
leftKerningGroup = ghook;
leftMetricsKey = o;
rightKerningGroup = ghook;
unicode = 0260;
},
{
color = 6;
glyphname = glottalstop;
layers = (
{
layerId = "63224BA1-30A4-42F4-A6D1-9160F56B91B0";
paths = (
{
closed = 1;
nodes = (
"127 697 OFFCURVE",
"58 635 OFFCURVE",
"29 559 CURVE",
"92 539 LINE",
"109 596 OFFCURVE",
"153 635 OFFCURVE",
"225 635 CURVE SMOOTH",
"301 635 OFFCURVE",
"354 583 OFFCURVE",
"354 497 CURVE SMOOTH",
"354 453 OFFCURVE",
"341 414 OFFCURVE",
"296 382 CURVE SMOOTH",
"225 331 OFFCURVE",
"185 299 OFFCURVE",
"185 186 CURVE SMOOTH",
"185 0 LINE",
"244 0 LINE",
"244 186 LINE SMOOTH",
"244 272 OFFCURVE",
"289 302 OFFCURVE",
"333 336 CURVE SMOOTH",
"378 370 OFFCURVE",
"422 408 OFFCURVE",
"422 504 CURVE SMOOTH",
"422 611 OFFCURVE",
"330 697 OFFCURVE",
"227 697 CURVE SMOOTH"
);
}
);
width = 461;
}
);
leftKerningGroup = glottalstop;
leftMetricsKey = question;
rightKerningGroup = glottalstop;
rightMetricsKey = question;
unicode = 0294;
},
{
color = 6;
glyphname = glottalstopsmall;
layers = (
{
background = {
paths = (
{
closed = 1;
nodes = (
"137 487 OFFCURVE",
"63 436 OFFCURVE",
"30 349 CURVE",
"93 329 LINE",
"111 389 OFFCURVE",
"161 425 OFFCURVE",
"226 425 CURVE SMOOTH",
"295 425 OFFCURVE",
"335 389 OFFCURVE",
"335 327 CURVE SMOOTH",
"335 280 OFFCURVE",
"317 252 OFFCURVE",
"257 212 CURVE SMOOTH",
"175 159 OFFCURVE",
"149 102 OFFCURVE",
"149 36 CURVE SMOOTH",
"149 0 LINE",
"217 0 LINE",
"217 36 LINE SMOOTH",
"217 91 OFFCURVE",
"231 132 OFFCURVE",
"294 170 CURVE SMOOTH",
"370 215 OFFCURVE",
"403 272 OFFCURVE",
"403 334 CURVE SMOOTH",
"403 430 OFFCURVE",
"338 487 OFFCURVE",
"228 487 CURVE SMOOTH"
);
}
);
};
layerId = "63224BA1-30A4-42F4-A6D1-9160F56B91B0";
paths = (
{
closed = 1;
nodes = (
"137 487 OFFCURVE",
"63 436 OFFCURVE",
"30 349 CURVE",
"93 329 LINE",
"111 389 OFFCURVE",
"161 425 OFFCURVE",
"226 425 CURVE SMOOTH",
"295 425 OFFCURVE",
"335 389 OFFCURVE",
"335 327 CURVE SMOOTH",
"335 280 OFFCURVE",
"317 252 OFFCURVE",
"272 219 CURVE SMOOTH",
"190 159 OFFCURVE",
"169 102 OFFCURVE",
"169 36 CURVE SMOOTH",
"169 0 LINE",
"237 0 LINE",
"237 36 LINE SMOOTH",
"237 91 OFFCURVE",
"247 132 OFFCURVE",
"311 175 CURVE SMOOTH",
"370 215 OFFCURVE",
"403 272 OFFCURVE",
"403 334 CURVE SMOOTH",
"403 430 OFFCURVE",
"338 487 OFFCURVE",
"228 487 CURVE SMOOTH"
);
}
);
width = 443;
}
);
leftKerningGroup = glottalstopsmall;
rightKerningGroup = glottalstopsmall;
unicode = 0242;
},
{
color = 6;
glyphname = yogh;
layers = (
{
background = {
paths = (
{
closed = 1;
nodes = (
"230 183 LINE",
"290 167 OFFCURVE",
"319 129 OFFCURVE",
"319 71 CURVE SMOOTH",
"319 -52 OFFCURVE",
"150 -123 OFFCURVE",
"31 -123 CURVE",
"31 -198 LINE",
"190 -198 OFFCURVE",
"393 -78 OFFCURVE",
"393 68 CURVE SMOOTH",
"393 147 OFFCURVE",
"349 197 OFFCURVE",
"269 221 CURVE"
);
},
{
closed = 1;
nodes = (
"366 228 OFFCURVE",
"366 345 CURVE SMOOTH",
"366 425 OFFCURVE",
"316 486 OFFCURVE",
"221 486 CURVE SMOOTH",
"139 486 OFFCURVE",
"75 445 OFFCURVE",
"25 377 CURVE",
"69 340 LINE",
"99 393 OFFCURVE",
"158 423 OFFCURVE",
"214 423 CURVE SMOOTH",
"272 423 OFFCURVE",
"300 390 OFFCURVE",
"300 341 CURVE SMOOTH",
"300 275 OFFCURVE",
"241 225 OFFCURVE",
"123 167 CURVE",
"123 107 LINE",
"219 142 OFFCURVE"
);
}
);
};
layerId = "63224BA1-30A4-42F4-A6D1-9160F56B91B0";
paths = (
{
closed = 1;
nodes = (
"230 183 LINE",
"290 167 OFFCURVE",
"319 129 OFFCURVE",
"319 71 CURVE SMOOTH",
"319 -52 OFFCURVE",
"150 -123 OFFCURVE",
"31 -123 CURVE",
"31 -198 LINE",
"190 -198 OFFCURVE",
"393 -78 OFFCURVE",
"393 68 CURVE SMOOTH",
"393 147 OFFCURVE",
"349 197 OFFCURVE",
"269 221 CURVE"
);
},
{
closed = 1;
nodes = (
"366 228 OFFCURVE",
"366 345 CURVE SMOOTH",
"366 425 OFFCURVE",
"316 486 OFFCURVE",
"221 486 CURVE SMOOTH",
"139 486 OFFCURVE",
"75 445 OFFCURVE",
"25 377 CURVE",
"69 340 LINE",
"99 393 OFFCURVE",
"158 423 OFFCURVE",
"214 423 CURVE SMOOTH",
"272 423 OFFCURVE",
"300 390 OFFCURVE",
"300 341 CURVE SMOOTH",
"300 275 OFFCURVE",
"241 225 OFFCURVE",
"123 167 CURVE",
"123 107 LINE",
"219 142 OFFCURVE"
);
}
);
width = 428;
}
);
leftKerningGroup = yogh;
rightKerningGroup = yogh;
unicode = 021D;
},
{
color = 5;
glyphname = h;
layers = (
{
anchors = (
{
name = bottom;
position = "{267, 0}";
},
{
name = center;
position = "{132, 594}";
},
{
name = top;
position = "{101, 725}";
}
);
components = (
{
name = n;
}
);
layerId = "63224BA1-30A4-42F4-A6D1-9160F56B91B0";
paths = (
{
closed = 1;
nodes = (
"131 0 LINE",
"131 726 LINE",
"63 726 LINE",
"63 0 LINE"
);
}
);
width = 534;
}
);
leftKerningGroup = h;
rightKerningGroup = n;
unicode = 0068;
},
{
color = 6;
glyphname = hhook;
layers = (
{
background = {
anchors = (
{
name = bottom;
position = "{268, 0}";
},
{
name = top;
position = "{278, 468}";
}
);
paths = (
{
closed = 1;
nodes = (
"131 599 LINE",
"131 649 OFFCURVE",
"160 679 OFFCURVE",
"210 679 CURVE SMOOTH",
"240 679 LINE",
"240 741 LINE",
"210 741 LINE SMOOTH",
"118 741 OFFCURVE",
"63 686 OFFCURVE",
"63 594 CURVE SMOOTH",
"63 0 LINE",
"131 0 LINE"
);
},
{
closed = 1;
nodes = (
"466 0 LINE",
"466 313 LINE SMOOTH",
"466 423 OFFCURVE",
"382 484 OFFCURVE",
"285 484 CURVE SMOOTH",
"165 484 OFFCURVE",
"95 380 OFFCURVE",
"95 234 CURVE",
"130 234 LINE",
"130 344 OFFCURVE",
"175 422 OFFCURVE",
"274 422 CURVE SMOOTH",
"343 422 OFFCURVE",
"398 389 OFFCURVE",
"398 283 CURVE SMOOTH",
"398 0 LINE"
);
}
);
};
layerId = "63224BA1-30A4-42F4-A6D1-9160F56B91B0";
paths = (
{
closed = 1;
nodes = (
"131 599 LINE",
"131 649 OFFCURVE",
"160 679 OFFCURVE",
"210 679 CURVE SMOOTH",
"240 679 LINE",
"240 741 LINE",
"210 741 LINE SMOOTH",
"118 741 OFFCURVE",
"63 686 OFFCURVE",
"63 594 CURVE SMOOTH",
"63 0 LINE",
"131 0 LINE"
);
},
{
closed = 1;
nodes = (
"466 0 LINE",
"466 313 LINE SMOOTH",
"466 423 OFFCURVE",
"382 484 OFFCURVE",
"285 484 CURVE SMOOTH",
"165 484 OFFCURVE",
"95 380 OFFCURVE",
"95 234 CURVE",
"130 234 LINE",
"130 344 OFFCURVE",
"175 422 OFFCURVE",
"274 422 CURVE SMOOTH",
"343 422 OFFCURVE",
"398 389 OFFCURVE",
"398 283 CURVE SMOOTH",
"398 0 LINE"
);
}
);
width = 536;
}
);
leftKerningGroup = hhook;
leftMetricsKey = h;
rightKerningGroup = hhook;
rightMetricsKey = n;
unicode = 0266;
},
{
color = 6;
glyphname = hturned;
layers = (
{
background = {
anchors = (
{
name = bottom;
position = "{436, -257}";
},
{
name = center;
position = "{405, -126}";
},
{
name = top;
position = "{270, 468}";
}
);
paths = (
{
closed = 1;
nodes = (
"406 468 LINE",
"406 -200 LINE",
"474 -200 LINE",
"474 468 LINE"
);
},
{
closed = 1;
nodes = (
"70 468 LINE",
"70 155 LINE SMOOTH",
"70 45 OFFCURVE",
"154 -16 OFFCURVE",
"251 -16 CURVE SMOOTH",
"371 -16 OFFCURVE",
"441 88 OFFCURVE",
"441 234 CURVE",
"406 234 LINE",
"406 124 OFFCURVE",
"361 46 OFFCURVE",
"262 46 CURVE SMOOTH",
"193 46 OFFCURVE",
"138 79 OFFCURVE",
"138 185 CURVE SMOOTH",
"138 468 LINE"
);
},
{
closed = 1;
nodes = (
"406 468 LINE",
"406 0 LINE",
"474 0 LINE",
"474 468 LINE"
);
}
);
};
layerId = "63224BA1-30A4-42F4-A6D1-9160F56B91B0";
paths = (
{
closed = 1;
nodes = (
"406 468 LINE",
"406 -200 LINE",
"474 -200 LINE",
"474 468 LINE"
);
},
{
closed = 1;
nodes = (
"70 468 LINE",
"70 155 LINE SMOOTH",
"70 45 OFFCURVE",
"154 -16 OFFCURVE",
"251 -16 CURVE SMOOTH",
"371 -16 OFFCURVE",
"441 88 OFFCURVE",
"441 234 CURVE",
"406 234 LINE",
"406 124 OFFCURVE",
"361 46 OFFCURVE",
"262 46 CURVE SMOOTH",
"193 46 OFFCURVE",
"138 79 OFFCURVE",
"138 185 CURVE SMOOTH",
"138 468 LINE"
);
},
{
closed = 1;
nodes = (
"406 468 LINE",
"406 0 LINE",
"474 0 LINE",
"474 468 LINE"
);
}
);
width = 537;
}
);
leftKerningGroup = hturned;
leftMetricsKey = u;
rightKerningGroup = hturned;
rightMetricsKey = u;
unicode = 0265;
},
{
color = 5;
glyphname = idotless;
layers = (
{
anchors = (
{
name = bottom;
position = "{97, 0}";
},
{
name = ogonek;
position = "{111, 24}";
},
{
name = top;
position = "{97, 468}";
}
);
layerId = "63224BA1-30A4-42F4-A6D1-9160F56B91B0";
paths = (
{
closed = 1;
nodes = (
"131 0 LINE",
"131 468 LINE",
"63 468 LINE",
"63 0 LINE"
);
}
);
width = 193;
}
);
leftKerningGroup = idotless;
rightKerningGroup = idotless;
unicode = 0131;
},
{
color = 6;
glyphname = "iota-latin";
layers = (
{
layerId = "63224BA1-30A4-42F4-A6D1-9160F56B91B0";
paths = (
{
closed = 1;
nodes = (
"217 68 LINE",
"157 68 OFFCURVE",
"127 95 OFFCURVE",
"127 148 CURVE SMOOTH",
"127 468 LINE",
"59 468 LINE",
"59 148 LINE SMOOTH",
"59 52 OFFCURVE",
"128 0 OFFCURVE",
"217 0 CURVE"
);
}
);
width = 229;
}
);
leftKerningGroup = "iota-latin";
rightKerningGroup = "iota-latin";
unicode = 0269;
},
{
color = 6;
glyphname = istroke;
layers = (
{
background = {
components = (
{
name = i;
transform = "{1, 0, 0, 1, 28, 0}";
}
);
};
components = (
{
name = i;
transform = "{1, 0, 0, 1, 28, 0}";
}
);
layerId = "63224BA1-30A4-42F4-A6D1-9160F56B91B0";
paths = (
{
closed = 1;
nodes = (
"225 236 LINE",
"225 278 LINE",
"25 278 LINE",
"25 236 LINE"
);
}
);
width = 250;
}
);
leftKerningGroup = istroke;
rightKerningGroup = istroke;
unicode = 0268;
},
{
color = 5;
glyphname = jdotless;
layers = (
{
anchors = (
{
name = bottom;
position = "{97, 0}";
},
{
name = top;
position = "{97, 468}";
}
);
background = {
components = (
{
name = j;
}
);
};
layerId = "63224BA1-30A4-42F4-A6D1-9160F56B91B0";
paths = (
{
closed = 1;
nodes = (
"-17 -200 LINE SMOOTH",
"70 -200 OFFCURVE",
"131 -139 OFFCURVE",
"131 -52 CURVE SMOOTH",
"131 468 LINE",
"63 468 LINE",
"63 -52 LINE SMOOTH",
"63 -102 OFFCURVE",
"30 -138 OFFCURVE",
"-17 -138 CURVE SMOOTH",
"-45 -138 LINE",
"-45 -200 LINE"
);
}
);
width = 193;
}
);
leftKerningGroup = jdotless;
rightKerningGroup = jdotless;
unicode = 0237;
},
{
color = 6;
glyphname = jstroke;
layers = (
{
components = (
{
name = j;
transform = "{1, 0, 0, 1, 28, 0}";
}
);
layerId = "63224BA1-30A4-42F4-A6D1-9160F56B91B0";
paths = (
{
closed = 1;
nodes = (
"225 236 LINE",
"225 278 LINE",
"25 278 LINE",
"25 236 LINE"
);
}
);
width = 244;
}
);
leftKerningGroup = jstroke;
rightKerningGroup = jstroke;
unicode = 0249;
},
{
color = 5;
glyphname = k;
layers = (
{
anchors = (
{
name = bottom;
position = "{218, 0}";
},
{
name = top;
position = "{218, 468}";
}
);
layerId = "63224BA1-30A4-42F4-A6D1-9160F56B91B0";
paths = (
{
closed = 1;
nodes = (
"424 468 LINE",
"336 468 LINE",
"120 261 LINE",
"120 175 LINE"
);
},
{
closed = 1;
nodes = (
"428 0 LINE",
"225 301 LINE",
"181 252 LINE",
"352 0 LINE"
);
},
{
closed = 1;
nodes = (
"131 0 LINE",
"131 726 LINE",
"63 726 LINE",
"63 0 LINE"
);
}
);
width = 436;
}
);
leftKerningGroup = h;
rightKerningGroup = k;
unicode = 006B;
},
{
color = 5;
glyphname = kgreenlandic;
layers = (
{
anchors = (
{
name = bottom;
position = "{232, 0}";
},
{
name = top;
position = "{232, 468}";
}
);
background = {
anchors = (
{
name = bottom;
position = "{218, 0}";
},
{
name = top;
position = "{218, 468}";
}
);
paths = (
{
closed = 1;
nodes = (
"181 252 LINE",
"352 0 LINE",
"428 0 LINE",
"225 301 LINE"
);
},
{
closed = 1;
nodes = (
"131 468 LINE",
"63 468 LINE",
"63 0 LINE",
"131 0 LINE"
);
},
{
closed = 1;
nodes = (
"424 468 LINE",
"336 468 LINE",
"120 261 LINE",
"120 175 LINE"
);
}
);
};
layerId = "63224BA1-30A4-42F4-A6D1-9160F56B91B0";
paths = (
{
closed = 1;
nodes = (
"424 468 LINE",
"336 468 LINE",
"120 261 LINE",
"120 175 LINE"
);
},
{
closed = 1;
nodes = (
"131 0 LINE",
"131 468 LINE",
"63 468 LINE",
"63 0 LINE"
);
},
{
closed = 1;
nodes = (
"428 0 LINE",
"225 301 LINE",
"181 252 LINE",
"352 0 LINE"
);
}
);
width = 463;
}
);
leftKerningGroup = n;
rightKerningGroup = k;
unicode = 0138;
},
{
color = 6;
glyphname = khook;
layers = (
{
layerId = "63224BA1-30A4-42F4-A6D1-9160F56B91B0";
paths = (
{
closed = 1;
nodes = (
"427 0 LINE",
"234 286 LINE",
"423 468 LINE",
"335 468 LINE",
"130 272 LINE",
"130 599 LINE SMOOTH",
"130 649 OFFCURVE",
"159 679 OFFCURVE",
"209 679 CURVE SMOOTH",
"239 679 LINE",
"239 741 LINE",
"209 741 LINE SMOOTH",
"117 741 OFFCURVE",
"62 686 OFFCURVE",
"62 594 CURVE SMOOTH",
"62 0 LINE",
"130 0 LINE",
"130 186 LINE",
"187 241 LINE",
"351 0 LINE"
);
}
);
width = 435;
}
);
leftKerningGroup = khook;
rightKerningGroup = khook;
unicode = 0199;
},
{
color = 5;
glyphname = l;
layers = (
{
anchors = (
{
name = bottom;
position = "{102, 0}";
},
{
name = center;
position = "{112, 284}";
},
{
name = top;
position = "{102, 726}";
},
{
name = topright;
position = "{203, 468}";
}
);
layerId = "63224BA1-30A4-42F4-A6D1-9160F56B91B0";
paths = (
{
closed = 1;
nodes = (
"136 0 LINE",
"136 726 LINE",
"68 726 LINE",
"68 0 LINE"
);
}
);
width = 203;
}
);
leftKerningGroup = h;
rightKerningGroup = l;
unicode = 006C;
},
{
color = 6;
glyphname = lambdastroke;
layers = (
{
layerId = "63224BA1-30A4-42F4-A6D1-9160F56B91B0";
paths = (
{
closed = 1;
nodes = (
"72 0 LINE",
"228 384 LINE",
"382 0 LINE",
"456 0 LINE",
"226 565 LINE",
"308 603 LINE",
"282 659 LINE",
"203 622 LINE",
"179 682 LINE",
"107 682 LINE",
"142 594 LINE",
"52 552 LINE",
"78 496 LINE",
"165 537 LINE",
"192 469 LINE",
"2 0 LINE"
);
}
);
width = 457;
}
);
leftKerningGroup = lambdastroke;
rightKerningGroup = lambdastroke;
unicode = 019B;
},
{
color = 6;
glyphname = lbelt;
layers = (
{
layerId = "63224BA1-30A4-42F4-A6D1-9160F56B91B0";
paths = (
{
closed = 1;
nodes = (
"335 282 OFFCURVE",
"335 386 CURVE",
"299 386 LINE",
"299 297 OFFCURVE",
"235 235 OFFCURVE",
"160 235 CURVE SMOOTH",
"88 235 OFFCURVE",
"46 274 OFFCURVE",
"46 326 CURVE SMOOTH",
"46 358 OFFCURVE",
"65 374 OFFCURVE",
"88 374 CURVE SMOOTH",
"123 374 OFFCURVE",
"139 344 OFFCURVE",
"139 307 CURVE",
"148 366 LINE",
"136 401 OFFCURVE",
"116 410 OFFCURVE",
"91 410 CURVE SMOOTH",
"38 410 OFFCURVE",
"10 369 OFFCURVE",
"10 326 CURVE SMOOTH",
"10 248 OFFCURVE",
"63 199 OFFCURVE",
"161 199 CURVE SMOOTH",
"254 199 OFFCURVE"
);
},
{
closed = 1;
nodes = (
"139 0 LINE",
"207 0 LINE",
"207 726 LINE",
"139 726 LINE"
);
}
);
width = 359;
}
);
leftKerningGroup = lbelt;
rightKerningGroup = lbelt;
unicode = 026C;
},
{
color = 5;
glyphname = m;
layers = (
{
anchors = (
{
name = bottom;
position = "{385, 0}";
},
{
name = top;
position = "{408, 468}";
}
);
background = {
paths = (
{
closed = 1;
nodes = (
"131 468 LINE",
"63 468 LINE",
"63 0 LINE",
"131 0 LINE"
);
},
{
closed = 1;
nodes = (
"161 484 OFFCURVE",
"96 380 OFFCURVE",
"96 234 CURVE",
"131 234 LINE",
"131 344 OFFCURVE",
"169 422 OFFCURVE",
"253 422 CURVE SMOOTH",
"307 422 OFFCURVE",
"354 389 OFFCURVE",
"354 283 CURVE SMOOTH",
"354 0 LINE",
"422 0 LINE",
"422 313 LINE SMOOTH",
"422 423 OFFCURVE",
"355 484 OFFCURVE",
"271 484 CURVE SMOOTH"
);
},
{
closed = 1;
nodes = (
"451 484 OFFCURVE",
"386 380 OFFCURVE",
"386 234 CURVE",
"421 234 LINE",
"421 344 OFFCURVE",
"459 422 OFFCURVE",
"543 422 CURVE SMOOTH",
"597 422 OFFCURVE",
"644 389 OFFCURVE",
"644 283 CURVE SMOOTH",
"644 0 LINE",
"712 0 LINE",
"712 313 LINE SMOOTH",
"712 423 OFFCURVE",
"645 484 OFFCURVE",
"561 484 CURVE SMOOTH"
);
}
);
};
layerId = "63224BA1-30A4-42F4-A6D1-9160F56B91B0";
paths = (
{
closed = 1;
nodes = (
"712 0 LINE",
"712 313 LINE SMOOTH",
"712 423 OFFCURVE",
"645 484 OFFCURVE",
"561 484 CURVE SMOOTH",
"451 484 OFFCURVE",
"386 380 OFFCURVE",
"386 234 CURVE",
"421 234 LINE",
"421 344 OFFCURVE",
"459 422 OFFCURVE",
"543 422 CURVE SMOOTH",
"597 422 OFFCURVE",
"644 389 OFFCURVE",
"644 283 CURVE SMOOTH",
"644 0 LINE"
);
},
{
closed = 1;
nodes = (
"131 0 LINE",
"131 468 LINE",
"63 468 LINE",
"63 0 LINE"
);
},
{
closed = 1;
nodes = (
"422 0 LINE",
"422 313 LINE SMOOTH",
"422 423 OFFCURVE",
"355 484 OFFCURVE",
"271 484 CURVE SMOOTH",
"161 484 OFFCURVE",
"96 380 OFFCURVE",
"96 234 CURVE",
"131 234 LINE",
"131 344 OFFCURVE",
"169 422 OFFCURVE",
"253 422 CURVE SMOOTH",
"307 422 OFFCURVE",
"354 389 OFFCURVE",
"354 283 CURVE SMOOTH",
"354 0 LINE"
);
}
);
width = 770;
}
);
leftKerningGroup = n;
rightKerningGroup = n;
unicode = 006D;
},
{
color = 5;
glyphname = n;
layers = (
{
anchors = (
{
name = bottom;
position = "{269, 0}";
},
{
name = top;
position = "{279, 468}";
}
);
background = {
paths = (
{
closed = 1;
nodes = (
"102 345 OFFCURVE",
"170 422 OFFCURVE",
"265 422 CURVE SMOOTH",
"362 422 OFFCURVE",
"430 344 OFFCURVE",
"430 234 CURVE SMOOTH",
"430 124 OFFCURVE",
"362 46 OFFCURVE",
"265 46 CURVE SMOOTH",
"170 46 OFFCURVE",
"102 124 OFFCURVE",
"102 235 CURVE SMOOTH"
);
},
{
closed = 1;
nodes = (
"34 88 OFFCURVE",
"131 -16 OFFCURVE",
"267 -16 CURVE SMOOTH",
"402 -16 OFFCURVE",
"498 88 OFFCURVE",
"498 234 CURVE SMOOTH",
"498 380 OFFCURVE",
"401 484 OFFCURVE",
"265 484 CURVE SMOOTH",
"130 484 OFFCURVE",
"34 381 OFFCURVE",
"34 235 CURVE SMOOTH"
);
}
);
};
layerId = "63224BA1-30A4-42F4-A6D1-9160F56B91B0";
paths = (
{
closed = 1;
nodes = (
"467 0 LINE",
"467 313 LINE SMOOTH",
"467 423 OFFCURVE",
"383 484 OFFCURVE",
"286 484 CURVE SMOOTH",
"166 484 OFFCURVE",
"96 380 OFFCURVE",
"96 234 CURVE",
"131 234 LINE",
"131 344 OFFCURVE",
"176 422 OFFCURVE",
"275 422 CURVE SMOOTH",
"344 422 OFFCURVE",
"399 389 OFFCURVE",
"399 283 CURVE SMOOTH",
"399 0 LINE"
);
},
{
closed = 1;
nodes = (
"131 0 LINE",
"131 468 LINE",
"63 468 LINE",
"63 0 LINE"
);
}
);
width = 537;
},
{
associatedMasterId = "63224BA1-30A4-42F4-A6D1-9160F56B91B0";
background = {
paths = (
{
closed = 1;
nodes = (
"131 234 LINE",
"131 344 OFFCURVE",
"192 422 OFFCURVE",
"278 422 CURVE SMOOTH",
"356 422 OFFCURVE",
"411 365 OFFCURVE",
"411 283 CURVE",
"479 283 LINE",
"479 402 OFFCURVE",
"394 484 OFFCURVE",
"276 484 CURVE SMOOTH",
"160 484 OFFCURVE",
"78 380 OFFCURVE",
"78 234 CURVE"
);
}
);
};
layerId = "84E04CCB-11ED-4502-AE98-7B8282BA2A97";
name = "Oct 4 16, 08:12";
paths = (
{
closed = 1;
nodes = (
"131 468 LINE",
"63 468 LINE",
"63 0 LINE",
"131 0 LINE"
);
},
{
closed = 1;
nodes = (
"160 484 OFFCURVE",
"78 380 OFFCURVE",
"78 234 CURVE",
"131 234 LINE",
"131 344 OFFCURVE",
"192 422 OFFCURVE",
"278 422 CURVE SMOOTH",
"355 422 OFFCURVE",
"409 365 OFFCURVE",
"409 283 CURVE SMOOTH",
"409 0 LINE",
"477 0 LINE",
"477 283 LINE SMOOTH",
"477 402 OFFCURVE",
"393 484 OFFCURVE",
"276 484 CURVE SMOOTH"
);
}
);
width = 534;
}
);
leftKerningGroup = n;
rightKerningGroup = n;
unicode = 006E;
},
{
color = 5;
glyphname = eng;
layers = (
{
background = {
paths = (
{
closed = 1;
nodes = (
"216 484 OFFCURVE",
"163 449 OFFCURVE",
"131 390 CURVE",
"131 468 LINE",
"63 468 LINE",
"63 0 LINE",
"131 0 LINE",
"131 234 LINE SMOOTH",
"131 344 OFFCURVE",
"176 422 OFFCURVE",
"275 422 CURVE SMOOTH",
"344 422 OFFCURVE",
"399 389 OFFCURVE",
"399 283 CURVE SMOOTH",
"399 18 LINE SMOOTH",
"399 -73 OFFCURVE",
"342 -138 OFFCURVE",
"261 -138 CURVE SMOOTH",
"197 -138 LINE",
"197 -200 LINE",
"261 -200 LINE SMOOTH",
"382 -200 OFFCURVE",
"467 -110 OFFCURVE",
"467 18 CURVE SMOOTH",
"467 313 LINE SMOOTH",
"467 423 OFFCURVE",
"383 484 OFFCURVE",
"286 484 CURVE SMOOTH"
);
}
);
};
layerId = "63224BA1-30A4-42F4-A6D1-9160F56B91B0";
paths = (
{
closed = 1;
nodes = (
"261 -200 LINE SMOOTH",
"382 -200 OFFCURVE",
"467 -110 OFFCURVE",
"467 18 CURVE SMOOTH",
"467 313 LINE SMOOTH",
"467 423 OFFCURVE",
"383 484 OFFCURVE",
"286 484 CURVE SMOOTH",
"216 484 OFFCURVE",
"163 449 OFFCURVE",
"131 390 CURVE",
"131 468 LINE",
"63 468 LINE",
"63 0 LINE",
"131 0 LINE",
"131 234 LINE SMOOTH",
"131 344 OFFCURVE",
"176 422 OFFCURVE",
"275 422 CURVE SMOOTH",
"344 422 OFFCURVE",
"399 389 OFFCURVE",
"399 283 CURVE SMOOTH",
"399 18 LINE SMOOTH",
"399 -73 OFFCURVE",
"342 -138 OFFCURVE",
"261 -138 CURVE SMOOTH",
"197 -138 LINE",
"197 -200 LINE"
);
}
);
width = 537;
}
);
leftKerningGroup = n;
leftMetricsKey = n;
rightKerningGroup = j;
rightMetricsKey = n;
unicode = 014B;
},
{
color = 6;
glyphname = nhookleft;
layers = (
{
background = {
components = (
{
name = n;
}
);
};
layerId = "63224BA1-30A4-42F4-A6D1-9160F56B91B0";
paths = (
{
closed = 1;
nodes = (
"216 484 OFFCURVE",
"163 449 OFFCURVE",
"131 390 CURVE",
"131 468 LINE",
"63 468 LINE",
"63 -21 LINE SMOOTH",
"63 -75 OFFCURVE",
"33 -107 OFFCURVE",
"-17 -107 CURVE SMOOTH",
"-43 -107 LINE",
"-43 -170 LINE",
"-17 -170 LINE SMOOTH",
"76 -170 OFFCURVE",
"131 -115 OFFCURVE",
"131 -21 CURVE SMOOTH",
"131 234 LINE SMOOTH",
"131 344 OFFCURVE",
"176 422 OFFCURVE",
"275 422 CURVE SMOOTH",
"344 422 OFFCURVE",
"399 389 OFFCURVE",
"399 283 CURVE SMOOTH",
"399 0 LINE",
"467 0 LINE",
"467 313 LINE SMOOTH",
"467 423 OFFCURVE",
"383 484 OFFCURVE",
"286 484 CURVE SMOOTH"
);
}
);
width = 534;
}
);
leftKerningGroup = nhookleft;
rightKerningGroup = nhookleft;
unicode = 0272;
},
{
color = 6;
glyphname = nlegrightlong;
layers = (
{
layerId = "63224BA1-30A4-42F4-A6D1-9160F56B91B0";
paths = (
{
closed = 1;
nodes = (
"467 -200 LINE",
"467 313 LINE SMOOTH",
"467 423 OFFCURVE",
"383 484 OFFCURVE",
"286 484 CURVE SMOOTH",
"166 484 OFFCURVE",
"96 380 OFFCURVE",
"96 234 CURVE",
"131 234 LINE",
"131 344 OFFCURVE",
"176 422 OFFCURVE",
"275 422 CURVE SMOOTH",
"344 422 OFFCURVE",
"399 389 OFFCURVE",
"399 283 CURVE SMOOTH",
"399 -200 LINE"
);
},
{
closed = 1;
nodes = (
"131 0 LINE",
"131 468 LINE",
"63 468 LINE",
"63 0 LINE"
);
}
);
width = 534;
}
);
leftKerningGroup = nlegrightlong;
rightKerningGroup = nlegrightlong;
unicode = 019E;
},
{
color = 5;
glyphname = o;
layers = (
{
anchors = (
{
name = bottom;
position = "{266, 0}";
},
{
name = center;
position = "{266, 234}";
},
{
name = ogonek;
position = "{339, -5}";
},
{
name = top;
position = "{266, 468}";
},
{
name = topright;
position = "{511, 468}";
}
);
background = {
paths = (
{
closed = 1;
nodes = (
"102 286 OFFCURVE",
"118 330 OFFCURVE",
"151 367 CURVE SMOOTH",
"184 404 OFFCURVE",
"222 422 OFFCURVE",
"265 422 CURVE SMOOTH",
"309 422 OFFCURVE",
"347 404 OFFCURVE",
"380 367 CURVE SMOOTH",
"413 330 OFFCURVE",
"430 286 OFFCURVE",
"430 234 CURVE SMOOTH",
"430 183 OFFCURVE",
"413 138 OFFCURVE",
"380 101 CURVE SMOOTH",
"347 64 OFFCURVE",
"309 46 OFFCURVE",
"265 46 CURVE SMOOTH",
"222 46 OFFCURVE",
"184 64 OFFCURVE",
"151 101 CURVE SMOOTH",
"118 138 OFFCURVE",
"102 183 OFFCURVE",
"102 235 CURVE SMOOTH"
);
},
{
closed = 1;
nodes = (
"34 168 OFFCURVE",
"58 109 OFFCURVE",
"106 59 CURVE SMOOTH",
"155 9 OFFCURVE",
"208 -16 OFFCURVE",
"267 -16 CURVE SMOOTH",
"326 -16 OFFCURVE",
"380 9 OFFCURVE",
"427 58 CURVE SMOOTH",
"474 108 OFFCURVE",
"498 167 OFFCURVE",
"498 234 CURVE SMOOTH",
"498 301 OFFCURVE",
"474 360 OFFCURVE",
"426 409 CURVE SMOOTH",
"378 459 OFFCURVE",
"324 484 OFFCURVE",
"265 484 CURVE SMOOTH",
"206 484 OFFCURVE",
"153 459 OFFCURVE",
"105 409 CURVE SMOOTH",
"58 360 OFFCURVE",
"34 302 OFFCURVE",
"34 235 CURVE SMOOTH"
);
}
);
};
layerId = "63224BA1-30A4-42F4-A6D1-9160F56B91B0";
paths = (
{
closed = 1;
nodes = (
"402 -16 OFFCURVE",
"498 88 OFFCURVE",
"498 234 CURVE SMOOTH",
"498 380 OFFCURVE",
"401 484 OFFCURVE",
"265 484 CURVE SMOOTH",
"130 484 OFFCURVE",
"34 381 OFFCURVE",
"34 235 CURVE SMOOTH",
"34 88 OFFCURVE",
"132 -16 OFFCURVE",
"267 -16 CURVE SMOOTH"
);
},
{
closed = 1;
nodes = (
"170 46 OFFCURVE",
"102 124 OFFCURVE",
"102 235 CURVE SMOOTH",
"102 345 OFFCURVE",
"170 422 OFFCURVE",
"265 422 CURVE SMOOTH",
"362 422 OFFCURVE",
"430 344 OFFCURVE",
"430 234 CURVE SMOOTH",
"430 124 OFFCURVE",
"362 46 OFFCURVE",
"265 46 CURVE SMOOTH"
);
}
);
width = 531;
}
);
leftKerningGroup = o;
rightKerningGroup = o;
unicode = 006F;
},
{
color = 5;
glyphname = oslash;
layers = (
{
background = {
anchors = (
{
name = bottom;
position = "{266, 0}";
},
{
name = center;
position = "{266, 234}";
},
{
name = ogonek;
position = "{339, -5}";
},
{
name = top;
position = "{266, 468}";
}
);
paths = (
{
closed = 1;
nodes = (
"102 345 OFFCURVE",
"170 422 OFFCURVE",
"265 422 CURVE SMOOTH",
"362 422 OFFCURVE",
"430 344 OFFCURVE",
"430 234 CURVE SMOOTH",
"430 124 OFFCURVE",
"362 46 OFFCURVE",
"265 46 CURVE SMOOTH",
"170 46 OFFCURVE",
"102 124 OFFCURVE",
"102 235 CURVE SMOOTH"
);
},
{
closed = 1;
nodes = (
"34 88 OFFCURVE",
"131 -16 OFFCURVE",
"267 -16 CURVE SMOOTH",
"402 -16 OFFCURVE",
"498 88 OFFCURVE",
"498 234 CURVE SMOOTH",
"498 380 OFFCURVE",
"401 484 OFFCURVE",
"265 484 CURVE SMOOTH",
"130 484 OFFCURVE",
"34 381 OFFCURVE",
"34 235 CURVE SMOOTH"
);
},
{
closed = 1;
nodes = (
"387 558 LINE",
"108 -39 LINE",
"159 -62 LINE",
"439 535 LINE"
);
}
);
};
components = (
{
name = o;
}
);
layerId = "63224BA1-30A4-42F4-A6D1-9160F56B91B0";
paths = (
{
closed = 1;
nodes = (
"439 535 LINE",
"387 558 LINE",
"108 -39 LINE",
"159 -62 LINE"
);
}
);
width = 531;
}
);
leftKerningGroup = o;
leftMetricsKey = o;
rightKerningGroup = o;
rightMetricsKey = o;
unicode = 00F8;
},
{
color = 6;
glyphname = ou;
layers = (
{
layerId = "63224BA1-30A4-42F4-A6D1-9160F56B91B0";
paths = (
{
closed = 1;
nodes = (
"394 -16 OFFCURVE",
"486 67 OFFCURVE",
"486 210 CURVE SMOOTH",
"486 323 OFFCURVE",
"435 385 OFFCURVE",
"344 436 CURVE",
"425 492 OFFCURVE",
"466 564 OFFCURVE",
"466 652 CURVE",
"390 652 LINE",
"390 574 OFFCURVE",
"347 509 OFFCURVE",
"260 457 CURVE",
"173 509 OFFCURVE",
"130 574 OFFCURVE",
"130 652 CURVE",
"54 652 LINE",
"54 564 OFFCURVE",
"95 492 OFFCURVE",
"176 436 CURVE",
"84 385 OFFCURVE",
"34 323 OFFCURVE",
"34 210 CURVE SMOOTH",
"34 69 OFFCURVE",
"122 -16 OFFCURVE",
"259 -16 CURVE SMOOTH"
);
},
{
closed = 1;
nodes = (
"174 53 OFFCURVE",
"110 109 OFFCURVE",
"110 210 CURVE SMOOTH",
"110 307 OFFCURVE",
"161 371 OFFCURVE",
"260 412 CURVE",
"357 372 OFFCURVE",
"410 309 OFFCURVE",
"410 210 CURVE SMOOTH",
"410 109 OFFCURVE",
"346 53 OFFCURVE",
"259 53 CURVE SMOOTH"
);
}
);
width = 520;
}
);
leftKerningGroup = ou;
rightKerningGroup = ou;
unicode = 0223;
},
{
color = 5;
glyphname = oe;
layers = (
{
background = {
components = (
{
name = o;
},
{
name = e;
transform = "{1, 0, 0, 1, 396, 0}";
}
);
};
layerId = "63224BA1-30A4-42F4-A6D1-9160F56B91B0";
paths = (
{
closed = 1;
nodes = (
"402 -16 OFFCURVE",
"498 88 OFFCURVE",
"498 234 CURVE SMOOTH",
"498 380 OFFCURVE",
"401 484 OFFCURVE",
"265 484 CURVE SMOOTH",
"130 484 OFFCURVE",
"34 381 OFFCURVE",
"34 235 CURVE SMOOTH",
"34 88 OFFCURVE",
"131 -16 OFFCURVE",
"267 -16 CURVE SMOOTH"
);
},
{
closed = 1;
nodes = (
"170 46 OFFCURVE",
"102 124 OFFCURVE",
"102 235 CURVE SMOOTH",
"102 345 OFFCURVE",
"170 422 OFFCURVE",
"265 422 CURVE SMOOTH",
"362 422 OFFCURVE",
"430 344 OFFCURVE",
"430 234 CURVE SMOOTH",
"430 124 OFFCURVE",
"362 46 OFFCURVE",
"265 46 CURVE SMOOTH"
);
},
{
closed = 1;
nodes = (
"768 -16 OFFCURVE",
"837 30 OFFCURVE",
"879 95 CURVE",
"825 131 LINE",
"795 81 OFFCURVE",
"747 46 OFFCURVE",
"662 46 CURVE SMOOTH",
"552 46 OFFCURVE",
"498 140 OFFCURVE",
"498 233 CURVE SMOOTH",
"498 328 OFFCURVE",
"553 422 OFFCURVE",
"661 422 CURVE SMOOTH",
"749 422 OFFCURVE",
"803 374 OFFCURVE",
"816 276 CURVE",
"492 276 LINE",
"481 220 LINE",
"883 220 LINE",
"898 368 OFFCURVE",
"797 484 OFFCURVE",
"661 484 CURVE SMOOTH",
"526 484 OFFCURVE",
"430 380 OFFCURVE",
"430 234 CURVE SMOOTH",
"430 88 OFFCURVE",
"527 -16 OFFCURVE",
"664 -16 CURVE SMOOTH"
);
}
);
width = 921;
}
);
leftKerningGroup = o;
leftMetricsKey = o;
rightKerningGroup = e;
rightMetricsKey = e;
unicode = 0153;
},
{
color = 5;
glyphname = p;
layers = (
{
anchors = (
{
name = bottom;
position = "{301, 0}";
},
{
name = top;
position = "{301, 468}";
}
);
background = {
paths = (
{
closed = 1;
nodes = (
"460 123 OFFCURVE",
"392 46 OFFCURVE",
"297 46 CURVE SMOOTH",
"200 46 OFFCURVE",
"132 124 OFFCURVE",
"132 234 CURVE SMOOTH",
"132 344 OFFCURVE",
"200 422 OFFCURVE",
"297 422 CURVE SMOOTH",
"392 422 OFFCURVE",
"460 344 OFFCURVE",
"460 233 CURVE SMOOTH"
);
},
{
closed = 1;
nodes = (
"528 380 OFFCURVE",
"431 484 OFFCURVE",
"295 484 CURVE SMOOTH",
"172 484 OFFCURVE",
"84 380 OFFCURVE",
"84 234 CURVE SMOOTH",
"84 88 OFFCURVE",
"173 -16 OFFCURVE",
"297 -16 CURVE SMOOTH",
"432 -16 OFFCURVE",
"528 87 OFFCURVE",
"528 233 CURVE SMOOTH"
);
},
{
closed = 1;
nodes = (
"132 468 LINE",
"64 468 LINE",
"64 -258 LINE",
"132 -258 LINE"
);
}
);
};
layerId = "63224BA1-30A4-42F4-A6D1-9160F56B91B0";
paths = (
{
closed = 1;
nodes = (
"432 -16 OFFCURVE",
"528 87 OFFCURVE",
"528 233 CURVE SMOOTH",
"528 380 OFFCURVE",
"431 484 OFFCURVE",
"295 484 CURVE SMOOTH",
"172 484 OFFCURVE",
"84 380 OFFCURVE",
"84 234 CURVE SMOOTH",
"84 88 OFFCURVE",
"173 -16 OFFCURVE",
"297 -16 CURVE SMOOTH"
);
},
{
closed = 1;
nodes = (
"132 -200 LINE",
"132 468 LINE",
"64 468 LINE",
"64 -200 LINE"
);
},
{
closed = 1;
nodes = (
"200 46 OFFCURVE",
"132 124 OFFCURVE",
"132 234 CURVE SMOOTH",
"132 344 OFFCURVE",
"200 422 OFFCURVE",
"297 422 CURVE SMOOTH",
"392 422 OFFCURVE",
"460 344 OFFCURVE",
"460 233 CURVE SMOOTH",
"460 123 OFFCURVE",
"392 46 OFFCURVE",
"297 46 CURVE SMOOTH"
);
}
);
width = 561;
}
);
leftKerningGroup = n;
rightKerningGroup = o;
unicode = 0070;
},
{
color = 6;
glyphname = phook;
layers = (
{
background = {
components = (
{
name = _part.roundLC;
transform = "{-1, 0, 0, 1, 561, 0}";
}
);
paths = (
{
closed = 1;
nodes = (
"131 492 LINE",
"131 542 OFFCURVE",
"160 572 OFFCURVE",
"210 572 CURVE SMOOTH",
"240 572 LINE",
"240 634 LINE",
"210 634 LINE SMOOTH",
"118 634 OFFCURVE",
"63 579 OFFCURVE",
"63 487 CURVE SMOOTH",
"63 -200 LINE",
"131 -200 LINE"
);
}
);
};
components = (
{
name = _part.roundLC;
transform = "{-1, 0, 0, 1, 561, 0}";
}
);
layerId = "63224BA1-30A4-42F4-A6D1-9160F56B91B0";
paths = (
{
closed = 1;
nodes = (
"131 492 LINE",
"131 542 OFFCURVE",
"160 572 OFFCURVE",
"210 572 CURVE SMOOTH",
"240 572 LINE",
"240 634 LINE",
"210 634 LINE SMOOTH",
"118 634 OFFCURVE",
"63 579 OFFCURVE",
"63 487 CURVE SMOOTH",
"63 -200 LINE",
"131 -200 LINE"
);
}
);
width = 560;
}
);
leftKerningGroup = phook;
rightKerningGroup = phook;
rightMetricsKey = o;
unicode = 01A5;
},
{
color = 5;
glyphname = thorn;
layers = (
{
background = {
anchors = (
{
name = bottom;
position = "{305, 0}";
},
{
name = top;
position = "{305, 468}";
}
);
paths = (
{
closed = 1;
nodes = (
"464 123 OFFCURVE",
"396 46 OFFCURVE",
"301 46 CURVE SMOOTH",
"204 46 OFFCURVE",
"136 124 OFFCURVE",
"136 234 CURVE SMOOTH",
"136 344 OFFCURVE",
"204 422 OFFCURVE",
"301 422 CURVE SMOOTH",
"396 422 OFFCURVE",
"464 344 OFFCURVE",
"464 233 CURVE SMOOTH"
);
},
{
closed = 1;
nodes = (
"532 380 OFFCURVE",
"435 484 OFFCURVE",
"299 484 CURVE SMOOTH",
"176 484 OFFCURVE",
"88 380 OFFCURVE",
"88 234 CURVE SMOOTH",
"88 88 OFFCURVE",
"177 -16 OFFCURVE",
"301 -16 CURVE SMOOTH",
"436 -16 OFFCURVE",
"532 87 OFFCURVE",
"532 233 CURVE SMOOTH"
);
},
{
closed = 1;
nodes = (
"136 682 LINE",
"68 682 LINE",
"68 -200 LINE",
"136 -200 LINE"
);
}
);
};
layerId = "63224BA1-30A4-42F4-A6D1-9160F56B91B0";
paths = (
{
closed = 1;
nodes = (
"436 -16 OFFCURVE",
"532 87 OFFCURVE",
"532 233 CURVE SMOOTH",
"532 380 OFFCURVE",
"435 484 OFFCURVE",
"299 484 CURVE SMOOTH",
"176 484 OFFCURVE",
"88 380 OFFCURVE",
"88 234 CURVE SMOOTH",
"88 88 OFFCURVE",
"177 -16 OFFCURVE",
"301 -16 CURVE SMOOTH"
);
},
{
closed = 1;
nodes = (
"136 -200 LINE",
"136 682 LINE",
"68 682 LINE",
"68 -200 LINE"
);
},
{
closed = 1;
nodes = (
"204 46 OFFCURVE",
"136 124 OFFCURVE",
"136 234 CURVE SMOOTH",
"136 344 OFFCURVE",
"204 422 OFFCURVE",
"301 422 CURVE SMOOTH",
"396 422 OFFCURVE",
"464 344 OFFCURVE",
"464 233 CURVE SMOOTH",
"464 123 OFFCURVE",
"396 46 OFFCURVE",
"301 46 CURVE SMOOTH"
);
}
);
width = 565;
},
{
associatedMasterId = "63224BA1-30A4-42F4-A6D1-9160F56B91B0";
layerId = "C275831A-A04C-4D35-BD9C-C0D5D8A5B7CA";
name = "Oct 11 16, 16:32";
paths = (
{
closed = 1;
nodes = (
"131 -19 LINE",
"241 8 OFFCURVE",
"328 53 OFFCURVE",
"391 116 CURVE",
"440 163 OFFCURVE",
"474 236 OFFCURVE",
"474 313 CURVE SMOOTH",
"474 418 OFFCURVE",
"406 484 OFFCURVE",
"314 484 CURVE SMOOTH",
"268 484 OFFCURVE",
"226 472 OFFCURVE",
"188 447 CURVE SMOOTH",
"172 437 OFFCURVE",
"153 419 OFFCURVE",
"131 393 CURVE",
"131 623 LINE",
"63 623 LINE",
"63 -200 LINE",
"131 -200 LINE"
);
},
{
closed = 1;
nodes = (
"131 316 LINE",
"191 386 OFFCURVE",
"252 421 OFFCURVE",
"315 421 CURVE SMOOTH",
"355 421 OFFCURVE",
"400 381 OFFCURVE",
"400 312 CURVE SMOOTH",
"400 243 OFFCURVE",
"355 165 OFFCURVE",
"294 116 CURVE SMOOTH",
"241 74 OFFCURVE",
"186 46 OFFCURVE",
"131 32 CURVE"
);
}
);
width = 501;
}
);
leftKerningGroup = h;
leftMetricsKey = l;
rightKerningGroup = o;
rightMetricsKey = p;
unicode = 00FE;
},
{
color = 5;
glyphname = q;
layers = (
{
anchors = (
{
name = bottom;
position = "{281, 0}";
},
{
name = top;
position = "{281, 468}";
}
);
background = {
paths = (
{
closed = 1;
nodes = (
"103 344 OFFCURVE",
"171 422 OFFCURVE",
"266 422 CURVE SMOOTH",
"363 422 OFFCURVE",
"431 344 OFFCURVE",
"431 234 CURVE SMOOTH",
"431 124 OFFCURVE",
"363 46 OFFCURVE",
"266 46 CURVE SMOOTH",
"171 46 OFFCURVE",
"103 123 OFFCURVE",
"103 233 CURVE SMOOTH"
);
},
{
closed = 1;
nodes = (
"35 87 OFFCURVE",
"131 -16 OFFCURVE",
"266 -16 CURVE SMOOTH",
"390 -16 OFFCURVE",
"479 88 OFFCURVE",
"479 234 CURVE SMOOTH",
"479 380 OFFCURVE",
"391 484 OFFCURVE",
"268 484 CURVE SMOOTH",
"132 484 OFFCURVE",
"35 380 OFFCURVE",
"35 233 CURVE SMOOTH"
);
},
{
closed = 1;
nodes = (
"499 -200 LINE",
"499 468 LINE",
"431 468 LINE",
"431 -200 LINE"
);
}
);
};
layerId = "63224BA1-30A4-42F4-A6D1-9160F56B91B0";
paths = (
{
closed = 1;
nodes = (
"390 -16 OFFCURVE",
"479 88 OFFCURVE",
"479 234 CURVE SMOOTH",
"479 380 OFFCURVE",
"391 484 OFFCURVE",
"268 484 CURVE SMOOTH",
"132 484 OFFCURVE",
"35 380 OFFCURVE",
"35 233 CURVE SMOOTH",
"35 87 OFFCURVE",
"131 -16 OFFCURVE",
"266 -16 CURVE SMOOTH"
);
},
{
closed = 1;
nodes = (
"171 46 OFFCURVE",
"103 123 OFFCURVE",
"103 233 CURVE SMOOTH",
"103 344 OFFCURVE",
"171 422 OFFCURVE",
"266 422 CURVE SMOOTH",
"363 422 OFFCURVE",
"431 344 OFFCURVE",
"431 234 CURVE SMOOTH",
"431 124 OFFCURVE",
"363 46 OFFCURVE",
"266 46 CURVE SMOOTH"
);
},
{
closed = 1;
nodes = (
"499 -200 LINE",
"499 468 LINE",
"431 468 LINE",
"431 -200 LINE"
);
}
);
width = 561;
}
);
leftKerningGroup = o;
rightKerningGroup = q;
unicode = 0071;
},
{
color = 6;
glyphname = qhooktail;
layers = (
{
background = {
paths = (
{
closed = 1;
nodes = (
"430 541 LINE",
"430 -53 LINE SMOOTH",
"430 -145 OFFCURVE",
"485 -200 OFFCURVE",
"577 -200 CURVE SMOOTH",
"607 -200 LINE",
"607 -138 LINE",
"577 -138 LINE SMOOTH",
"527 -138 OFFCURVE",
"498 -108 OFFCURVE",
"498 -58 CURVE",
"498 541 LINE"
);
},
{
closed = 1;
nodes = (
"390 -16 OFFCURVE",
"478 88 OFFCURVE",
"478 234 CURVE SMOOTH",
"478 380 OFFCURVE",
"389 484 OFFCURVE",
"265 484 CURVE SMOOTH",
"130 484 OFFCURVE",
"34 381 OFFCURVE",
"34 235 CURVE SMOOTH",
"34 88 OFFCURVE",
"131 -16 OFFCURVE",
"267 -16 CURVE SMOOTH"
);
},
{
closed = 1;
nodes = (
"170 46 OFFCURVE",
"102 124 OFFCURVE",
"102 235 CURVE SMOOTH",
"102 345 OFFCURVE",
"170 422 OFFCURVE",
"265 422 CURVE SMOOTH",
"362 422 OFFCURVE",
"430 344 OFFCURVE",
"430 234 CURVE SMOOTH",
"430 124 OFFCURVE",
"362 46 OFFCURVE",
"265 46 CURVE SMOOTH"
);
}
);
};
layerId = "63224BA1-30A4-42F4-A6D1-9160F56B91B0";
paths = (
{
closed = 1;
nodes = (
"430 468 LINE",
"430 -53 LINE SMOOTH",
"430 -145 OFFCURVE",
"485 -200 OFFCURVE",
"577 -200 CURVE SMOOTH",
"607 -200 LINE",
"607 -138 LINE",
"577 -138 LINE SMOOTH",
"527 -138 OFFCURVE",
"498 -108 OFFCURVE",
"498 -58 CURVE",
"498 468 LINE"
);
},
{
closed = 1;
nodes = (
"390 -16 OFFCURVE",
"478 88 OFFCURVE",
"478 234 CURVE SMOOTH",
"478 380 OFFCURVE",
"389 484 OFFCURVE",
"265 484 CURVE SMOOTH",
"130 484 OFFCURVE",
"34 381 OFFCURVE",
"34 235 CURVE SMOOTH",
"34 88 OFFCURVE",
"131 -16 OFFCURVE",
"267 -16 CURVE SMOOTH"
);
},
{
closed = 1;
nodes = (
"170 46 OFFCURVE",
"102 124 OFFCURVE",
"102 235 CURVE SMOOTH",
"102 345 OFFCURVE",
"170 422 OFFCURVE",
"265 422 CURVE SMOOTH",
"362 422 OFFCURVE",
"430 344 OFFCURVE",
"430 234 CURVE SMOOTH",
"430 124 OFFCURVE",
"362 46 OFFCURVE",
"265 46 CURVE SMOOTH"
);
}
);
width = 561;
}
);
leftKerningGroup = qhooktail;
leftMetricsKey = o;
rightKerningGroup = qhooktail;
unicode = 024B;
},
{
color = 5;
glyphname = r;
layers = (
{
anchors = (
{
name = bottom;
position = "{101, 0}";
},
{
name = top;
position = "{250, 468}";
}
);
background = {
guideLines = (
{
angle = 90;
position = "{379, 479}";
}
);
paths = (
{
closed = 1;
nodes = (
"437 375 LINE",
"406 448 OFFCURVE",
"350 484 OFFCURVE",
"270 484 CURVE SMOOTH",
"219 484 OFFCURVE",
"173 460 OFFCURVE",
"131 411 CURVE",
"131 468 LINE",
"63 468 LINE",
"63 0 LINE",
"131 0 LINE",
"131 234 LINE SMOOTH",
"131 286 OFFCURVE",
"143 330 OFFCURVE",
"168 367 CURVE SMOOTH",
"193 404 OFFCURVE",
"228 422 OFFCURVE",
"274 422 CURVE SMOOTH",
"320 422 OFFCURVE",
"354 396 OFFCURVE",
"375 344 CURVE"
);
}
);
};
layerId = "63224BA1-30A4-42F4-A6D1-9160F56B91B0";
paths = (
{
closed = 1;
nodes = (
"131 224 LINE",
"131 353 OFFCURVE",
"209 425 OFFCURVE",
"293 425 CURVE SMOOTH",
"308 425 OFFCURVE",
"324 422 OFFCURVE",
"339 415 CURVE",
"339 477 LINE",
"323 482 OFFCURVE",
"308 484 OFFCURVE",
"293 484 CURVE SMOOTH",
"178 484 OFFCURVE",
"96 371 OFFCURVE",
"96 214 CURVE"
);
},
{
closed = 1;
nodes = (
"131 0 LINE",
"131 468 LINE",
"63 468 LINE",
"63 0 LINE"
);
}
);
width = 339;
}
);
leftKerningGroup = n;
rightKerningGroup = r;
unicode = 0072;
},
{
color = 6;
glyphname = rfishhook;
layers = (
{
layerId = "63224BA1-30A4-42F4-A6D1-9160F56B91B0";
paths = (
{
closed = 1;
nodes = (
"125 0 LINE",
"125 234 LINE SMOOTH",
"125 352 OFFCURVE",
"173 422 OFFCURVE",
"254 422 CURVE SMOOTH",
"306 422 OFFCURVE",
"349 393 OFFCURVE",
"374 340 CURVE",
"431 374 LINE",
"402 443 OFFCURVE",
"336 484 OFFCURVE",
"254 484 CURVE SMOOTH",
"130 484 OFFCURVE",
"57 391 OFFCURVE",
"57 234 CURVE SMOOTH",
"57 0 LINE"
);
}
);
width = 429;
}
);
leftKerningGroup = rfishhook;
rightKerningGroup = rfishhook;
unicode = 027E;
},
{
color = 6;
glyphname = rhook;
layers = (
{
background = {
paths = (
{
closed = 1;
nodes = (
"68 341 LINE",
"68 -53 LINE SMOOTH",
"68 -145 OFFCURVE",
"123 -200 OFFCURVE",
"215 -200 CURVE SMOOTH",
"245 -200 LINE",
"245 -138 LINE",
"215 -138 LINE SMOOTH",
"165 -138 OFFCURVE",
"136 -108 OFFCURVE",
"136 -58 CURVE",
"136 341 LINE"
);
}
);
};
layerId = "63224BA1-30A4-42F4-A6D1-9160F56B91B0";
paths = (
{
closed = 1;
nodes = (
"223 484 OFFCURVE",
"166 442 OFFCURVE",
"131 374 CURVE",
"131 468 LINE",
"63 468 LINE",
"63 -53 LINE SMOOTH",
"63 -145 OFFCURVE",
"118 -200 OFFCURVE",
"210 -200 CURVE SMOOTH",
"240 -200 LINE",
"240 -138 LINE",
"210 -138 LINE SMOOTH",
"160 -138 OFFCURVE",
"131 -108 OFFCURVE",
"131 -58 CURVE SMOOTH",
"131 224 LINE SMOOTH",
"131 353 OFFCURVE",
"209 425 OFFCURVE",
"293 425 CURVE SMOOTH",
"308 425 OFFCURVE",
"324 422 OFFCURVE",
"339 415 CURVE",
"339 477 LINE",
"323 482 OFFCURVE",
"308 484 OFFCURVE",
"293 484 CURVE SMOOTH"
);
}
);
width = 339;
}
);
leftKerningGroup = rhook;
rightKerningGroup = rhook;
rightMetricsKey = r;
unicode = 027D;
},
{
color = 6;
glyphname = rturned;
layers = (
{
layerId = "63224BA1-30A4-42F4-A6D1-9160F56B91B0";
paths = (
{
closed = 1;
nodes = (
"409 0 LINE",
"409 468 LINE",
"341 468 LINE",
"341 310 LINE",
"235 310 LINE",
"124 468 LINE",
"41 468 LINE",
"160 298 LINE",
"84 276 OFFCURVE",
"39 223 OFFCURVE",
"39 155 CURVE SMOOTH",
"39 58 OFFCURVE",
"107 0 OFFCURVE",
"223 0 CURVE SMOOTH"
);
},
{
closed = 1;
nodes = (
"156 62 OFFCURVE",
"115 97 OFFCURVE",
"115 155 CURVE SMOOTH",
"115 213 OFFCURVE",
"167 248 OFFCURVE",
"255 248 CURVE SMOOTH",
"341 248 LINE",
"341 62 LINE",
"225 62 LINE SMOOTH"
);
}
);
width = 472;
}
);
leftKerningGroup = rturned;
rightKerningGroup = rturned;
unicode = 0279;
},
{
color = 5;
glyphname = s;
layers = (
{
anchors = (
{
name = bottom;
position = "{232, 0}";
},
{
name = top;
position = "{232, 468}";
}
);
background = {
components = (
{
name = o;
transform = "{1, 0, 0, 1, -30, 0}";
}
);
};
layerId = "63224BA1-30A4-42F4-A6D1-9160F56B91B0";
paths = (
{
closed = 1;
nodes = (
"330 -16 OFFCURVE",
"424 35 OFFCURVE",
"424 132 CURVE SMOOTH",
"424 206 OFFCURVE",
"371 258 OFFCURVE",
"248 269 CURVE SMOOTH",
"146 278 OFFCURVE",
"117 309 OFFCURVE",
"117 349 CURVE SMOOTH",
"117 396 OFFCURVE",
"155 422 OFFCURVE",
"224 422 CURVE SMOOTH",
"293 422 OFFCURVE",
"334 396 OFFCURVE",
"357 344 CURVE",
"418 374 LINE",
"385 447 OFFCURVE",
"323 484 OFFCURVE",
"229 484 CURVE SMOOTH",
"121 484 OFFCURVE",
"53 435 OFFCURVE",
"53 347 CURVE SMOOTH",
"53 274 OFFCURVE",
"98 222 OFFCURVE",
"232 211 CURVE SMOOTH",
"326 203 OFFCURVE",
"356 177 OFFCURVE",
"356 124 CURVE SMOOTH",
"356 67 OFFCURVE",
"299 46 OFFCURVE",
"236 46 CURVE SMOOTH",
"158 46 OFFCURVE",
"113 78 OFFCURVE",
"91 125 CURVE",
"30 95 LINE",
"66 24 OFFCURVE",
"138 -16 OFFCURVE",
"228 -16 CURVE SMOOTH"
);
}
);
width = 464;
}
);
leftKerningGroup = s;
rightKerningGroup = s;
unicode = 0073;
},
{
color = 5;
glyphname = germandbls;
layers = (
{
background = {
guideLines = (
{
angle = 90;
position = "{217, 351}";
}
);
paths = (
{
closed = 0;
nodes = (
"-789 529 LINE",
"-789 652 OFFCURVE",
"-730 710 OFFCURVE",
"-639 710 CURVE SMOOTH",
"-540 710 OFFCURVE",
"-497 641 OFFCURVE",
"-497 563 CURVE SMOOTH",
"-497 452 OFFCURVE",
"-584 407 OFFCURVE",
"-683 407 CURVE SMOOTH"
);
},
{
closed = 0;
nodes = (
"-683 394 LINE",
"-552 394 OFFCURVE",
"-455 347 OFFCURVE",
"-455 200 CURVE SMOOTH",
"-455 60 OFFCURVE",
"-543 -22 OFFCURVE",
"-719 20 CURVE"
);
},
{
closed = 1;
nodes = (
"217 441 LINE",
"217 379 LINE",
"277 379 LINE",
"277 -27 LINE",
"345 -27 LINE",
"345 379 LINE",
"453 379 LINE",
"453 441 LINE"
);
}
);
};
layerId = "63224BA1-30A4-42F4-A6D1-9160F56B91B0";
paths = (
{
closed = 1;
nodes = (
"411 -5 OFFCURVE",
"491 78 OFFCURVE",
"491 220 CURVE SMOOTH",
"491 320 OFFCURVE",
"444 393 OFFCURVE",
"344 412 CURVE",
"415 443 OFFCURVE",
"449 496 OFFCURVE",
"449 563 CURVE SMOOTH",
"449 672 OFFCURVE",
"377 744 OFFCURVE",
"271 744 CURVE SMOOTH",
"150 744 OFFCURVE",
"80 664 OFFCURVE",
"80 529 CURVE SMOOTH",
"80 0 LINE",
"148 0 LINE",
"148 529 LINE SMOOTH",
"148 627 OFFCURVE",
"186 676 OFFCURVE",
"271 676 CURVE SMOOTH",
"341 676 OFFCURVE",
"381 635 OFFCURVE",
"381 563 CURVE SMOOTH",
"381 495 OFFCURVE",
"349 441 OFFCURVE",
"237 441 CURVE",
"237 379 LINE",
"377 379 OFFCURVE",
"413 325 OFFCURVE",
"413 220 CURVE SMOOTH",
"413 118 OFFCURVE",
"367 61 OFFCURVE",
"282 61 CURVE SMOOTH",
"260 61 OFFCURVE",
"235 65 OFFCURVE",
"208 73 CURVE",
"194 7 LINE",
"226 -1 OFFCURVE",
"255 -5 OFFCURVE",
"283 -5 CURVE SMOOTH"
);
}
);
width = 532;
}
);
leftKerningGroup = h;
leftMetricsKey = H;
rightKerningGroup = germandbls;
rightMetricsKey = B;
unicode = 00DF;
},
{
color = 5;
glyphname = t;
layers = (
{
anchors = (
{
name = bottom;
position = "{125, 0}";
},
{
name = center;
position = "{138, 304}";
},
{
name = top;
position = "{128, 598}";
},
{
name = topright;
position = "{255, 468}";
}
);
layerId = "63224BA1-30A4-42F4-A6D1-9160F56B91B0";
paths = (
{
closed = 1;
nodes = (
"156 0 LINE",
"156 406 LINE",
"264 406 LINE",
"264 468 LINE",
"156 468 LINE",
"156 623 LINE",
"88 623 LINE",
"88 468 LINE",
"8 468 LINE",
"8 406 LINE",
"88 406 LINE",
"88 0 LINE"
);
}
);
width = 275;
}
);
leftKerningGroup = t;
rightKerningGroup = t;
unicode = 0074;
},
{
color = 5;
glyphname = tbar;
layers = (
{
components = (
{
name = t;
}
);
guideLines = (
{
angle = 90;
position = "{8, 513}";
},
{
angle = 90;
position = "{264, 513}";
}
);
layerId = "63224BA1-30A4-42F4-A6D1-9160F56B91B0";
paths = (
{
closed = 1;
nodes = (
"264 260 LINE",
"264 308 LINE",
"8 308 LINE",
"8 260 LINE"
);
}
);
width = 275;
}
);
leftKerningGroup = t;
rightKerningGroup = t;
unicode = 0167;
},
{
color = 6;
glyphname = thook;
layers = (
{
layerId = "63224BA1-30A4-42F4-A6D1-9160F56B91B0";
paths = (
{
closed = 1;
nodes = (
"269 0 LINE",
"269 62 LINE",
"242 62 LINE SMOOTH",
"188 62 OFFCURVE",
"156 92 OFFCURVE",
"156 142 CURVE SMOOTH",
"156 406 LINE",
"264 406 LINE",
"264 468 LINE",
"156 468 LINE",
"156 574 LINE SMOOTH",
"156 631 OFFCURVE",
"188 664 OFFCURVE",
"242 664 CURVE",
"242 726 LINE",
"145 726 OFFCURVE",
"88 671 OFFCURVE",
"88 578 CURVE SMOOTH",
"88 468 LINE",
"28 468 LINE",
"28 406 LINE",
"88 406 LINE",
"88 138 LINE SMOOTH",
"88 45 OFFCURVE",
"145 0 OFFCURVE",
"242 0 CURVE SMOOTH"
);
}
);
width = 299;
}
);
leftKerningGroup = thook;
rightKerningGroup = thook;
unicode = 01AD;
},
{
color = 6;
glyphname = tretroflexhook;
layers = (
{
layerId = "63224BA1-30A4-42F4-A6D1-9160F56B91B0";
paths = (
{
closed = 1;
nodes = (
"273 -200 LINE",
"273 -133 LINE",
"232 -133 LINE SMOOTH",
"182 -133 OFFCURVE",
"153 -103 OFFCURVE",
"153 -53 CURVE SMOOTH",
"153 406 LINE",
"261 406 LINE",
"261 468 LINE",
"153 468 LINE",
"153 623 LINE",
"85 623 LINE",
"85 468 LINE",
"25 468 LINE",
"25 406 LINE",
"85 406 LINE",
"85 -53 LINE SMOOTH",
"85 -145 OFFCURVE",
"140 -200 OFFCURVE",
"232 -200 CURVE SMOOTH"
);
}
);
width = 269;
}
);
leftKerningGroup = tretroflexhook;
rightKerningGroup = tretroflexhook;
unicode = 0288;
},
{
color = 6;
glyphname = ubar;
layers = (
{
background = {
components = (
{
name = u;
}
);
paths = (
{
closed = 1;
nodes = (
"532 236 LINE",
"532 278 LINE",
"29 278 LINE",
"29 236 LINE"
);
}
);
};
components = (
{
name = u;
}
);
layerId = "63224BA1-30A4-42F4-A6D1-9160F56B91B0";
paths = (
{
closed = 1;
nodes = (
"532 236 LINE",
"532 278 LINE",
"29 278 LINE",
"29 236 LINE"
);
},
{
closed = 1;
nodes = (
"532 236 LINE",
"532 278 LINE",
"29 278 LINE",
"29 236 LINE"
);
}
);
width = 561;
}
);
leftKerningGroup = ubar;
rightKerningGroup = ubar;
unicode = 0289;
},
{
color = 6;
glyphname = "upsilon-latin";
layers = (
{
layerId = "63224BA1-30A4-42F4-A6D1-9160F56B91B0";
paths = (
{
closed = 1;
nodes = (
"425 -16 OFFCURVE",
"510 69 OFFCURVE",
"510 214 CURVE SMOOTH",
"510 262 OFFCURVE",
"484 336 OFFCURVE",
"440 413 CURVE",
"516 413 LINE",
"516 468 LINE",
"358 468 LINE",
"358 436 OFFCURVE",
"374 394 OFFCURVE",
"400 356 CURVE SMOOTH",
"426 320 OFFCURVE",
"442 267 OFFCURVE",
"442 214 CURVE SMOOTH",
"442 108 OFFCURVE",
"381 46 OFFCURVE",
"278 46 CURVE SMOOTH",
"175 46 OFFCURVE",
"114 108 OFFCURVE",
"114 214 CURVE SMOOTH",
"114 265 OFFCURVE",
"130 318 OFFCURVE",
"156 356 CURVE SMOOTH",
"182 392 OFFCURVE",
"198 434 OFFCURVE",
"198 468 CURVE",
"40 468 LINE",
"40 413 LINE",
"115 413 LINE",
"72 340 OFFCURVE",
"46 266 OFFCURVE",
"46 214 CURVE SMOOTH",
"46 69 OFFCURVE",
"133 -16 OFFCURVE",
"280 -16 CURVE SMOOTH"
);
}
);
width = 556;
}
);
leftKerningGroup = "upsilon-latin";
rightKerningGroup = "upsilon-latin";
unicode = 028A;
},
{
color = 5;
glyphname = v;
layers = (
{
anchors = (
{
name = bottom;
position = "{228, 0}";
},
{
name = top;
position = "{228, 468}";
}
);
background = {
paths = (
{
closed = 1;
nodes = (
"435 468 LINE",
"364 468 LINE",
"216 46 LINE",
"235 46 LINE",
"90 468 LINE",
"21 468 LINE",
"191 0 LINE",
"266 0 LINE"
);
}
);
};
layerId = "63224BA1-30A4-42F4-A6D1-9160F56B91B0";
paths = (
{
closed = 1;
nodes = (
"265 0 LINE",
"435 468 LINE",
"366 468 LINE",
"221 46 LINE",
"240 46 LINE",
"92 468 LINE",
"21 468 LINE",
"190 0 LINE"
);
}
);
width = 455;
}
);
leftKerningGroup = v;
rightKerningGroup = v;
unicode = 0076;
},
{
color = 6;
glyphname = vhook;
layers = (
{
layerId = "63224BA1-30A4-42F4-A6D1-9160F56B91B0";
paths = (
{
closed = 1;
nodes = (
"416 -16 OFFCURVE",
"494 69 OFFCURVE",
"494 214 CURVE SMOOTH",
"494 324 OFFCURVE",
"448 395 OFFCURVE",
"384 468 CURVE",
"300 468 LINE",
"379 382 OFFCURVE",
"426 288 OFFCURVE",
"426 214 CURVE SMOOTH",
"426 108 OFFCURVE",
"373 46 OFFCURVE",
"282 46 CURVE SMOOTH",
"191 46 OFFCURVE",
"138 108 OFFCURVE",
"138 214 CURVE SMOOTH",
"138 468 LINE",
"70 468 LINE",
"70 214 LINE SMOOTH",
"70 69 OFFCURVE",
"149 -16 OFFCURVE",
"284 -16 CURVE SMOOTH"
);
}
);
width = 534;
}
);
leftKerningGroup = vhook;
leftMetricsKey = u;
rightKerningGroup = vhook;
unicode = 028B;
},
{
color = 5;
glyphname = w;
layers = (
{
anchors = (
{
name = bottom;
position = "{360, 0}";
},
{
name = top;
position = "{360, 468}";
}
);
layerId = "63224BA1-30A4-42F4-A6D1-9160F56B91B0";
paths = (
{
closed = 1;
nodes = (
"238 0 LINE",
"374 397 LINE",
"349 397 LINE",
"475 0 LINE",
"551 0 LINE",
"703 468 LINE",
"633 468 LINE",
"502 60 LINE",
"526 60 LINE",
"396 468 LINE",
"330 468 LINE",
"196 59 LINE",
"220 59 LINE",
"88 468 LINE",
"16 468 LINE",
"170 0 LINE"
);
}
);
width = 719;
}
);
leftKerningGroup = v;
rightKerningGroup = v;
unicode = 0077;
},
{
color = 6;
glyphname = whook;
layers = (
{
background = {
anchors = (
{
name = bottom;
position = "{360, 0}";
},
{
name = top;
position = "{360, 468}";
}
);
paths = (
{
closed = 1;
nodes = (
"238 0 LINE",
"374 397 LINE",
"349 397 LINE",
"475 0 LINE",
"551 0 LINE",
"655 320 LINE",
"594 346 LINE",
"502 60 LINE",
"526 60 LINE",
"396 468 LINE",
"330 468 LINE",
"196 59 LINE",
"220 59 LINE",
"88 468 LINE",
"16 468 LINE",
"170 0 LINE"
);
}
);
};
layerId = "63224BA1-30A4-42F4-A6D1-9160F56B91B0";
paths = (
{
closed = 1;
nodes = (
"662 484 OFFCURVE",
"621 443 OFFCURVE",
"600 374 CURVE SMOOTH",
"514 97 LINE",
"396 468 LINE",
"330 468 LINE",
"208 96 LINE",
"88 468 LINE",
"16 468 LINE",
"170 0 LINE",
"238 0 LINE",
"361 359 LINE",
"475 0 LINE",
"551 0 LINE",
"666 355 LINE SMOOTH",
"678 397 OFFCURVE",
"701 422 OFFCURVE",
"740 422 CURVE SMOOTH",
"780 422 OFFCURVE",
"798 399 OFFCURVE",
"798 368 CURVE SMOOTH",
"798 352 OFFCURVE",
"791 334 OFFCURVE",
"777 313 CURVE",
"833 287 LINE",
"854 318 OFFCURVE",
"864 345 OFFCURVE",
"864 368 CURVE SMOOTH",
"864 439 OFFCURVE",
"810 484 OFFCURVE",
"741 484 CURVE SMOOTH"
);
}
);
width = 877;
}
);
leftKerningGroup = whook;
leftMetricsKey = w;
rightKerningGroup = whook;
unicode = 2C73;
},
{
color = 5;
glyphname = x;
layers = (
{
anchors = (
{
name = bottom;
position = "{231, 0}";
},
{
name = top;
position = "{231, 468}";
}
);
background = {
paths = (
{
closed = 1;
nodes = (
"257 234 LINE",
"271 234 LINE",
"422 468 LINE",
"347 468 LINE",
"205 248 LINE",
"190 248 LINE",
"35 0 LINE",
"111 0 LINE"
);
},
{
closed = 1;
nodes = (
"234 279 LINE",
"117 468 LINE",
"40 468 LINE",
"188 230 LINE"
);
},
{
closed = 1;
nodes = (
"205 230 LINE",
"349 0 LINE",
"427 0 LINE",
"242 294 LINE"
);
}
);
};
layerId = "63224BA1-30A4-42F4-A6D1-9160F56B91B0";
paths = (
{
closed = 1;
nodes = (
"108 0 LINE",
"254 234 LINE",
"274 234 LINE",
"425 468 LINE",
"350 468 LINE",
"208 248 LINE",
"187 248 LINE",
"32 0 LINE"
);
},
{
closed = 1;
nodes = (
"430 0 LINE",
"245 294 LINE",
"208 230 LINE",
"352 0 LINE"
);
},
{
closed = 1;
nodes = (
"244 264 LINE",
"118 468 LINE",
"41 468 LINE",
"200 212 LINE"
);
}
);
width = 462;
}
);
leftKerningGroup = x;
rightKerningGroup = x;
unicode = 0078;
},
{
color = 5;
glyphname = y;
layers = (
{
anchors = (
{
name = bottom;
position = "{225, 0}";
},
{
name = top;
position = "{225, 468}";
}
);
background = {
paths = (
{
closed = 1;
nodes = (
"274 0 LINE",
"444 468 LINE",
"375 468 LINE",
"230 46 LINE",
"249 46 LINE",
"101 468 LINE",
"30 468 LINE",
"199 0 LINE"
);
}
);
};
layerId = "63224BA1-30A4-42F4-A6D1-9160F56B91B0";
paths = (
{
closed = 1;
nodes = (
"196 -200 LINE",
"449 468 LINE",
"385 468 LINE",
"128 -200 LINE"
);
},
{
closed = 1;
nodes = (
"243 62 LINE",
"81 468 LINE",
"10 468 LINE",
"210 -30 LINE"
);
}
);
width = 449;
}
);
leftKerningGroup = y;
rightKerningGroup = y;
unicode = 0079;
},
{
color = 6;
glyphname = yhook;
layers = (
{
background = {
components = (
{
name = y;
}
);
};
layerId = "63224BA1-30A4-42F4-A6D1-9160F56B91B0";
paths = (
{
closed = 1;
nodes = (
"196 -200 LINE",
"405 349 LINE SMOOTH",
"425 401 OFFCURVE",
"452 422 OFFCURVE",
"486 422 CURVE SMOOTH",
"545 422 OFFCURVE",
"559 374 OFFCURVE",
"522 311 CURVE",
"574 282 LINE",
"597 314 OFFCURVE",
"609 346 OFFCURVE",
"609 376 CURVE SMOOTH",
"609 441 OFFCURVE",
"562 484 OFFCURVE",
"494 484 CURVE SMOOTH",
"418 484 OFFCURVE",
"373 449 OFFCURVE",
"346 381 CURVE SMOOTH",
"236 80 LINE",
"81 468 LINE",
"10 468 LINE",
"202 -9 LINE",
"128 -200 LINE"
);
}
);
width = 621;
}
);
leftKerningGroup = yhook;
leftMetricsKey = y;
rightKerningGroup = yhook;
unicode = 01B4;
},
{
color = 5;
glyphname = z;
layers = (
{
anchors = (
{
name = bottom;
position = "{210, 0}";
},
{
name = top;
position = "{210, 468}";
}
);
layerId = "63224BA1-30A4-42F4-A6D1-9160F56B91B0";
paths = (
{
closed = 1;
nodes = (
"383 0 LINE",
"383 62 LINE",
"84 62 LINE",
"87 26 LINE",
"383 406 LINE",
"383 468 LINE",
"37 468 LINE",
"37 406 LINE",
"336 406 LINE",
"333 442 LINE",
"37 62 LINE",
"37 0 LINE"
);
}
);
width = 420;
}
);
leftKerningGroup = z;
rightKerningGroup = z;
unicode = 007A;
},
{
color = 5;
glyphname = f_f;
layers = (
{
layerId = "63224BA1-30A4-42F4-A6D1-9160F56B91B0";
paths = (
{
closed = 1;
nodes = (
"156 0 LINE",
"156 406 LINE",
"364 406 LINE",
"364 468 LINE",
"28 468 LINE",
"28 406 LINE",
"88 406 LINE",
"88 0 LINE"
);
},
{
closed = 1;
nodes = (
"156 75 LINE",
"156 595 LINE SMOOTH",
"156 645 OFFCURVE",
"189 681 OFFCURVE",
"236 681 CURVE SMOOTH",
"264 681 LINE",
"264 743 LINE",
"236 743 LINE SMOOTH",
"149 743 OFFCURVE",
"88 682 OFFCURVE",
"88 595 CURVE SMOOTH",
"88 75 LINE"
);
},
{
closed = 1;
nodes = (
"431 0 LINE",
"431 406 LINE",
"539 406 LINE",
"539 468 LINE",
"303 468 LINE",
"303 406 LINE",
"363 406 LINE",
"363 0 LINE"
);
},
{
closed = 1;
nodes = (
"431 75 LINE",
"431 595 LINE SMOOTH",
"431 645 OFFCURVE",
"464 681 OFFCURVE",
"511 681 CURVE SMOOTH",
"539 681 LINE",
"539 743 LINE",
"511 743 LINE SMOOTH",
"424 743 OFFCURVE",
"363 682 OFFCURVE",
"363 595 CURVE SMOOTH",
"363 75 LINE"
);
}
);
width = 550;
}
);
leftKerningGroup = f;
leftMetricsKey = f;
rightKerningGroup = f;
rightMetricsKey = f;
},
{
color = 5;
glyphname = f_f_i;
layers = (
{
layerId = "63224BA1-30A4-42F4-A6D1-9160F56B91B0";
paths = (
{
closed = 1;
nodes = (
"431 0 LINE",
"431 406 LINE",
"639 406 LINE",
"639 468 LINE",
"303 468 LINE",
"303 406 LINE",
"363 406 LINE",
"363 0 LINE"
);
},
{
closed = 1;
nodes = (
"156 0 LINE",
"156 406 LINE",
"364 406 LINE",
"364 468 LINE",
"28 468 LINE",
"28 406 LINE",
"88 406 LINE",
"88 0 LINE"
);
},
{
closed = 1;
nodes = (
"156 75 LINE",
"156 595 LINE SMOOTH",
"156 645 OFFCURVE",
"189 681 OFFCURVE",
"236 681 CURVE SMOOTH",
"264 681 LINE",
"264 743 LINE",
"236 743 LINE SMOOTH",
"149 743 OFFCURVE",
"88 682 OFFCURVE",
"88 595 CURVE SMOOTH",
"88 75 LINE"
);
},
{
closed = 1;
nodes = (
"431 75 LINE",
"431 595 LINE SMOOTH",
"431 645 OFFCURVE",
"464 681 OFFCURVE",
"511 681 CURVE SMOOTH",
"539 681 LINE",
"539 743 LINE",
"511 743 LINE SMOOTH",
"424 743 OFFCURVE",
"363 682 OFFCURVE",
"363 595 CURVE SMOOTH",
"363 75 LINE"
);
},
{
closed = 1;
nodes = (
"681 0 LINE",
"681 468 LINE",
"613 468 LINE",
"613 0 LINE"
);
},
{
closed = 1;
nodes = (
"676 559 OFFCURVE",
"701 584 OFFCURVE",
"701 613 CURVE SMOOTH",
"701 644 OFFCURVE",
"676 667 OFFCURVE",
"647 667 CURVE SMOOTH",
"616 667 OFFCURVE",
"593 643 OFFCURVE",
"593 614 CURVE SMOOTH",
"593 583 OFFCURVE",
"616 559 OFFCURVE",
"647 559 CURVE SMOOTH"
);
}
);
width = 743;
}
);
leftKerningGroup = f;
leftMetricsKey = f;
rightKerningGroup = idotless;
rightMetricsKey = i;
},
{
color = 5;
glyphname = f_f_l;
layers = (
{
background = {
anchors = (
{
name = bottom;
position = "{652, 0}";
},
{
name = center;
position = "{662, 284}";
},
{
name = topright;
position = "{753, 468}";
}
);
paths = (
{
closed = 1;
nodes = (
"303 468 LINE",
"303 406 LINE",
"363 406 LINE",
"363 0 LINE",
"431 0 LINE",
"431 406 LINE",
"539 406 LINE",
"539 468 LINE"
);
},
{
closed = 1;
nodes = (
"686 726 LINE",
"637 735 OFFCURVE",
"582 743 OFFCURVE",
"531 743 CURVE SMOOTH",
"432 743 OFFCURVE",
"363 682 OFFCURVE",
"363 595 CURVE SMOOTH",
"363 75 LINE",
"431 75 LINE",
"431 595 LINE SMOOTH",
"431 645 OFFCURVE",
"472 682 OFFCURVE",
"531 682 CURVE SMOOTH",
"582 682 OFFCURVE",
"635 676 OFFCURVE",
"686 664 CURVE"
);
},
{
closed = 1;
nodes = (
"686 0 LINE",
"686 726 LINE",
"618 726 LINE",
"618 0 LINE"
);
}
);
};
layerId = "63224BA1-30A4-42F4-A6D1-9160F56B91B0";
paths = (
{
closed = 1;
nodes = (
"156 0 LINE",
"156 406 LINE",
"363 406 LINE",
"363 0 LINE",
"431 0 LINE",
"431 406 LINE",
"539 406 LINE",
"539 468 LINE",
"431 468 LINE",
"431 595 LINE SMOOTH",
"431 645 OFFCURVE",
"472 682 OFFCURVE",
"531 682 CURVE SMOOTH",
"560 682 OFFCURVE",
"589 680 OFFCURVE",
"618 676 CURVE",
"618 0 LINE",
"686 0 LINE",
"686 726 LINE",
"637 735 OFFCURVE",
"582 743 OFFCURVE",
"531 743 CURVE SMOOTH",
"432 743 OFFCURVE",
"363 682 OFFCURVE",
"363 595 CURVE SMOOTH",
"363 468 LINE",
"156 468 LINE",
"156 595 LINE SMOOTH",
"156 645 OFFCURVE",
"189 681 OFFCURVE",
"236 681 CURVE SMOOTH",
"264 681 LINE",
"264 743 LINE",
"236 743 LINE SMOOTH",
"149 743 OFFCURVE",
"88 682 OFFCURVE",
"88 595 CURVE SMOOTH",
"88 468 LINE",
"28 468 LINE",
"28 406 LINE",
"88 406 LINE",
"88 0 LINE"
);
}
);
width = 753;
}
);
leftKerningGroup = f;
leftMetricsKey = f;
rightKerningGroup = l;
rightMetricsKey = l;
},
{
color = 5;
glyphname = fi;
layers = (
{
layerId = "63224BA1-30A4-42F4-A6D1-9160F56B91B0";
paths = (
{
closed = 1;
nodes = (
"156 0 LINE",
"156 406 LINE",
"364 406 LINE",
"364 468 LINE",
"28 468 LINE",
"28 406 LINE",
"88 406 LINE",
"88 0 LINE"
);
},
{
closed = 1;
nodes = (
"156 75 LINE",
"156 595 LINE SMOOTH",
"156 645 OFFCURVE",
"189 681 OFFCURVE",
"236 681 CURVE SMOOTH",
"264 681 LINE",
"264 743 LINE",
"236 743 LINE SMOOTH",
"149 743 OFFCURVE",
"88 682 OFFCURVE",
"88 595 CURVE SMOOTH",
"88 75 LINE"
);
},
{
closed = 1;
nodes = (
"406 0 LINE",
"406 468 LINE",
"338 468 LINE",
"338 0 LINE"
);
},
{
closed = 1;
nodes = (
"401 559 OFFCURVE",
"426 584 OFFCURVE",
"426 613 CURVE SMOOTH",
"426 644 OFFCURVE",
"401 667 OFFCURVE",
"372 667 CURVE SMOOTH",
"341 667 OFFCURVE",
"318 643 OFFCURVE",
"318 614 CURVE SMOOTH",
"318 583 OFFCURVE",
"341 559 OFFCURVE",
"372 559 CURVE SMOOTH"
);
}
);
width = 468;
}
);
leftKerningGroup = f;
leftMetricsKey = f;
rightKerningGroup = i;
rightMetricsKey = i;
unicode = FB01;
},
{
color = 5;
glyphname = fl;
layers = (
{
layerId = "63224BA1-30A4-42F4-A6D1-9160F56B91B0";
paths = (
{
closed = 1;
nodes = (
"156 75 LINE",
"156 595 LINE SMOOTH",
"156 645 OFFCURVE",
"197 682 OFFCURVE",
"256 682 CURVE SMOOTH",
"307 682 OFFCURVE",
"360 676 OFFCURVE",
"411 664 CURVE",
"411 726 LINE",
"362 735 OFFCURVE",
"307 743 OFFCURVE",
"256 743 CURVE SMOOTH",
"157 743 OFFCURVE",
"88 682 OFFCURVE",
"88 595 CURVE SMOOTH",
"88 75 LINE"
);
},
{
closed = 1;
nodes = (
"156 0 LINE",
"156 406 LINE",
"264 406 LINE",
"264 468 LINE",
"28 468 LINE",
"28 406 LINE",
"88 406 LINE",
"88 0 LINE"
);
},
{
closed = 1;
nodes = (
"411 0 LINE",
"411 726 LINE",
"343 726 LINE",
"343 0 LINE"
);
}
);
width = 478;
}
);
leftKerningGroup = f;
leftMetricsKey = f;
rightKerningGroup = l;
rightMetricsKey = l;
unicode = FB02;
},
{
color = 5;
glyphname = ordfeminine;
layers = (
{
background = {
paths = (
{
closed = 1;
nodes = (
"276 387 OFFCURVE",
"328 451 OFFCURVE",
"328 542 CURVE SMOOTH",
"328 632 OFFCURVE",
"276 696 OFFCURVE",
"204 696 CURVE SMOOTH",
"120 696 OFFCURVE",
"60 632 OFFCURVE",
"60 542 CURVE SMOOTH",
"60 451 OFFCURVE",
"120 387 OFFCURVE",
"204 387 CURVE SMOOTH"
);
},
{
closed = 1;
nodes = (
"258 649 OFFCURVE",
"297 605 OFFCURVE",
"297 543 CURVE SMOOTH",
"297 479 OFFCURVE",
"258 434 OFFCURVE",
"204 434 CURVE SMOOTH",
"149 434 OFFCURVE",
"110 478 OFFCURVE",
"110 541 CURVE SMOOTH",
"110 604 OFFCURVE",
"148 649 OFFCURVE",
"202 649 CURVE SMOOTH"
);
},
{
closed = 1;
nodes = (
"348 336 LINE",
"60 336 LINE",
"60 285 LINE",
"348 285 LINE"
);
},
{
closed = 1;
nodes = (
"297 396 LINE",
"348 396 LINE",
"348 687 LINE",
"297 687 LINE"
);
}
);
};
layerId = "63224BA1-30A4-42F4-A6D1-9160F56B91B0";
paths = (
{
closed = 1;
nodes = (
"276 387 OFFCURVE",
"328 451 OFFCURVE",
"328 542 CURVE SMOOTH",
"328 632 OFFCURVE",
"276 696 OFFCURVE",
"204 696 CURVE SMOOTH",
"120 696 OFFCURVE",
"60 632 OFFCURVE",
"60 542 CURVE SMOOTH",
"60 451 OFFCURVE",
"120 387 OFFCURVE",
"204 387 CURVE SMOOTH"
);
},
{
closed = 1;
nodes = (
"348 285 LINE",
"348 336 LINE",
"60 336 LINE",
"60 285 LINE"
);
},
{
closed = 1;
nodes = (
"149 434 OFFCURVE",
"110 478 OFFCURVE",
"110 541 CURVE SMOOTH",
"110 604 OFFCURVE",
"148 649 OFFCURVE",
"202 649 CURVE SMOOTH",
"258 649 OFFCURVE",
"297 605 OFFCURVE",
"297 543 CURVE SMOOTH",
"297 479 OFFCURVE",
"258 434 OFFCURVE",
"204 434 CURVE SMOOTH"
);
},
{
closed = 1;
nodes = (
"348 396 LINE",
"348 687 LINE",
"297 687 LINE",
"297 396 LINE"
);
}
);
width = 408;
}
);
leftKerningGroup = ordfeminine;
rightKerningGroup = ordfeminine;
unicode = 00AA;
},
{
color = 5;
glyphname = ordmasculine;
layers = (
{
layerId = "63224BA1-30A4-42F4-A6D1-9160F56B91B0";
paths = (
{
closed = 1;
nodes = (
"288 387 OFFCURVE",
"348 451 OFFCURVE",
"348 542 CURVE SMOOTH",
"348 632 OFFCURVE",
"288 696 OFFCURVE",
"204 696 CURVE SMOOTH",
"120 696 OFFCURVE",
"60 632 OFFCURVE",
"60 542 CURVE SMOOTH",
"60 451 OFFCURVE",
"120 387 OFFCURVE",
"204 387 CURVE SMOOTH"
);
},
{
closed = 1;
nodes = (
"348 285 LINE",
"348 336 LINE",
"60 336 LINE",
"60 285 LINE"
);
},
{
closed = 1;
nodes = (
"149 434 OFFCURVE",
"110 478 OFFCURVE",
"110 541 CURVE SMOOTH",
"110 604 OFFCURVE",
"148 649 OFFCURVE",
"202 649 CURVE SMOOTH",
"258 649 OFFCURVE",
"297 605 OFFCURVE",
"297 543 CURVE SMOOTH",
"297 479 OFFCURVE",
"258 434 OFFCURVE",
"204 434 CURVE SMOOTH"
);
}
);
width = 408;
}
);
leftKerningGroup = ordfeminine;
rightKerningGroup = ordfeminine;
unicode = 00BA;
},
{
color = 6;
glyphname = clickalveolar;
layers = (
{
layerId = "63224BA1-30A4-42F4-A6D1-9160F56B91B0";
paths = (
{
closed = 1;
nodes = (
"180 -68 LINE",
"180 266 LINE",
"292 266 LINE",
"292 321 LINE",
"180 321 LINE",
"180 376 LINE",
"292 376 LINE",
"292 430 LINE",
"180 430 LINE",
"180 750 LINE",
"139 750 LINE",
"139 430 LINE",
"23 430 LINE",
"23 376 LINE",
"139 376 LINE",
"139 321 LINE",
"23 321 LINE",
"23 266 LINE",
"139 266 LINE",
"139 -68 LINE"
);
}
);
width = 314;
}
);
leftKerningGroup = clickalveolar;
rightKerningGroup = clickalveolar;
unicode = 01C2;
},
{
color = 6;
glyphname = hmod;
layers = (
{
layerId = "63224BA1-30A4-42F4-A6D1-9160F56B91B0";
paths = (
{
closed = 1;
nodes = (
"117 307 LINE",
"117 441 LINE SMOOTH",
"117 490 OFFCURVE",
"149 527 OFFCURVE",
"202 527 CURVE SMOOTH",
"243 527 OFFCURVE",
"267 505 OFFCURVE",
"267 453 CURVE SMOOTH",
"267 307 LINE",
"324 307 LINE",
"324 453 LINE",
"324 540 OFFCURVE",
"268 575 OFFCURVE",
"212 575 CURVE SMOOTH",
"175 575 OFFCURVE",
"140 565 OFFCURVE",
"117 523 CURVE",
"117 726 LINE",
"60 726 LINE",
"60 307 LINE"
);
}
);
width = 386;
}
);
leftKerningGroup = hmod;
rightKerningGroup = hmod;
unicode = 02B0;
},
{
color = 6;
glyphname = jmod;
layers = (
{
layerId = "63224BA1-30A4-42F4-A6D1-9160F56B91B0";
paths = (
{
closed = 1;
nodes = (
"56 225 LINE SMOOTH",
"108 225 OFFCURVE",
"153 259 OFFCURVE",
"153 307 CURVE SMOOTH",
"153 567 LINE",
"96 567 LINE",
"96 307 LINE SMOOTH",
"96 288 OFFCURVE",
"80 272 OFFCURVE",
"56 272 CURVE SMOOTH",
"31 272 LINE",
"31 225 LINE"
);
},
{
closed = 1;
nodes = (
"144 607 OFFCURVE",
"165 625 OFFCURVE",
"165 646 CURVE SMOOTH",
"165 666 OFFCURVE",
"148 685 OFFCURVE",
"124 685 CURVE SMOOTH",
"104 685 OFFCURVE",
"84 669 OFFCURVE",
"84 646 CURVE SMOOTH",
"84 627 OFFCURVE",
"100 607 OFFCURVE",
"124 607 CURVE SMOOTH"
);
}
);
width = 220;
}
);
leftKerningGroup = jmod;
rightKerningGroup = jmod;
unicode = 02B2;
},
{
color = 6;
glyphname = wmod;
layers = (
{
layerId = "63224BA1-30A4-42F4-A6D1-9160F56B91B0";
paths = (
{
closed = 1;
nodes = (
"191 307 LINE",
"270 518 LINE",
"238 518 LINE",
"318 307 LINE",
"375 307 LINE",
"472 567 LINE",
"412 567 LINE",
"330 348 LINE",
"356 348 LINE",
"275 567 LINE",
"238 567 LINE",
"156 348 LINE",
"178 348 LINE",
"97 567 LINE",
"37 567 LINE",
"134 307 LINE"
);
}
);
width = 522;
}
);
leftKerningGroup = wmod;
rightKerningGroup = wmod;
unicode = 02B7;
},
{
color = 6;
glyphname = ymod;
layers = (
{
layerId = "63224BA1-30A4-42F4-A6D1-9160F56B91B0";
paths = (
{
closed = 1;
nodes = (
"203 374 LINE",
"109 567 LINE",
"47 567 LINE",
"182 310 LINE"
);
},
{
closed = 1;
nodes = (
"113 217 LINE",
"169 217 LINE",
"340 567 LINE",
"283 567 LINE"
);
}
);
width = 390;
}
);
leftKerningGroup = ymod;
rightKerningGroup = ymod;
unicode = 02B8;
},
{
color = 5;
glyphname = "Be-cy";
layers = (
{
background = {
paths = (
{
closed = 1;
nodes = (
"462 619 LINE",
"462 682 LINE",
"80 682 LINE",
"155 619 LINE"
);
}
);
};
layerId = "63224BA1-30A4-42F4-A6D1-9160F56B91B0";
paths = (
{
closed = 1;
nodes = (
"328 0 LINE SMOOTH",
"457 0 OFFCURVE",
"534 75 OFFCURVE",
"534 196 CURVE SMOOTH",
"534 311 OFFCURVE",
"461 391 OFFCURVE",
"313 391 CURVE SMOOTH",
"155 391 LINE",
"155 619 LINE",
"482 619 LINE",
"482 682 LINE",
"80 682 LINE",
"80 0 LINE"
);
},
{
closed = 1;
nodes = (
"155 329 LINE",
"318 329 LINE SMOOTH",
"404 329 OFFCURVE",
"455 278 OFFCURVE",
"455 196 CURVE SMOOTH",
"455 114 OFFCURVE",
"404 62 OFFCURVE",
"318 62 CURVE SMOOTH",
"155 62 LINE"
);
}
);
width = 569;
}
);
leftKerningGroup = H;
leftMetricsKey = "En-cy";
rightKerningGroup = "Be-cy";
unicode = 0411;
},
{
color = 5;
glyphname = "Ge-cy";
layers = (
{
anchors = (
{
name = bottomright;
position = "{79, 0}";
},
{
name = center;
position = "{154, 351}";
},
{
name = top;
position = "{286, 682}";
}
);
background = {
components = (
{
name = F;
}
);
};
layerId = "63224BA1-30A4-42F4-A6D1-9160F56B91B0";
paths = (
{
closed = 1;
nodes = (
"154 0 LINE",
"154 619 LINE",
"461 619 LINE",
"461 682 LINE",
"79 682 LINE",
"79 0 LINE"
);
}
);
width = 471;
}
);
leftKerningGroup = H;
rightKerningGroup = "Ge-cy";
unicode = 0413;
},
{
color = 5;
glyphname = "Gheupturn-cy";
layers = (
{
background = {
paths = (
{
closed = 1;
nodes = (
"462 803 LINE",
"392 803 LINE",
"392 681 LINE",
"327 619 LINE",
"462 619 LINE"
);
}
);
};
layerId = "63224BA1-30A4-42F4-A6D1-9160F56B91B0";
paths = (
{
closed = 1;
nodes = (
"155 0 LINE",
"155 619 LINE",
"462 619 LINE",
"462 803 LINE",
"392 803 LINE",
"392 682 LINE",
"80 682 LINE",
"80 0 LINE"
);
}
);
width = 472;
}
);
leftKerningGroup = H;
leftMetricsKey = "En-cy";
rightKerningGroup = "Ge-cy";
rightMetricsKey = "Ge-cy";
unicode = 0490;
},
{
color = 5;
glyphname = "De-cy";
layers = (
{
background = {
paths = (
{
closed = 1;
nodes = (
"155 682 LINE",
"155 472 LINE SMOOTH",
"155 185 OFFCURVE",
"119 62 OFFCURVE",
"30 62 CURVE",
"30 20 LINE",
"207 20 OFFCURVE",
"230 238 OFFCURVE",
"230 487 CURVE SMOOTH",
"230 620 LINE",
"489 620 LINE",
"489 0 LINE",
"564 0 LINE",
"564 682 LINE"
);
}
);
};
layerId = "63224BA1-30A4-42F4-A6D1-9160F56B91B0";
paths = (
{
closed = 1;
nodes = (
"574 0 LINE",
"574 682 LINE",
"175 682 LINE",
"175 472 LINE SMOOTH",
"175 185 OFFCURVE",
"139 62 OFFCURVE",
"50 62 CURVE",
"50 20 LINE",
"227 20 OFFCURVE",
"245 238 OFFCURVE",
"245 487 CURVE SMOOTH",
"245 620 LINE",
"499 620 LINE",
"499 0 LINE"
);
},
{
closed = 1;
nodes = (
"95 -122 LINE",
"95 0 LINE",
"564 0 LINE",
"564 -122 LINE",
"634 -122 LINE",
"634 62 LINE",
"25 62 LINE",
"25 -122 LINE"
);
}
);
width = 674;
}
);
leftKerningGroup = "De-cy";
rightKerningGroup = "Tse-cy";
unicode = 0414;
},
{
color = 5;
glyphname = "Zhe-cy";
layers = (
{
anchors = (
{
name = bottomright;
position = "{833, 0}";
},
{
name = top;
position = "{487, 682}";
}
);
layerId = "63224BA1-30A4-42F4-A6D1-9160F56B91B0";
paths = (
{
closed = 1;
nodes = (
"110 0 LINE",
"360 325 LINE",
"449 325 LINE",
"449 0 LINE",
"524 0 LINE",
"524 325 LINE",
"613 325 LINE",
"863 0 LINE",
"958 0 LINE",
"685 357 LINE",
"930 679 LINE",
"840 679 LINE",
"620 387 LINE",
"524 387 LINE",
"524 682 LINE",
"449 682 LINE",
"449 387 LINE",
"353 387 LINE",
"133 679 LINE",
"43 679 LINE",
"288 357 LINE",
"15 0 LINE"
);
}
);
width = 973;
}
);
leftKerningGroup = X;
leftMetricsKey = "=|Ka-cy";
rightKerningGroup = K;
rightMetricsKey = "Ka-cy";
unicode = 0416;
},
{
color = 5;
glyphname = "Ze-cy";
layers = (
{
anchors = (
{
name = bottom;
position = "{287, 0}";
},
{
name = top;
position = "{287, 682}";
}
);
background = {
paths = (
{
closed = 1;
nodes = (
"276 629 LINE",
"354 629 OFFCURVE",
"403 589 OFFCURVE",
"403 518 CURVE SMOOTH",
"403 437 OFFCURVE",
"363 391 OFFCURVE",
"278 391 CURVE SMOOTH",
"234 391 LINE",
"234 329 LINE",
"282 329 LINE SMOOTH",
"374 329 OFFCURVE",
"429 274 OFFCURVE",
"429 186 CURVE SMOOTH",
"429 94 OFFCURVE",
"366 52 OFFCURVE",
"273 52 CURVE",
"273 -16 LINE",
"419 -16 OFFCURVE",
"508 55 OFFCURVE",
"508 186 CURVE SMOOTH",
"508 295 OFFCURVE",
"449 356 OFFCURVE",
"354 371 CURVE",
"355 360 LINE",
"435 381 OFFCURVE",
"482 436 OFFCURVE",
"482 518 CURVE SMOOTH",
"482 623 OFFCURVE",
"405 697 OFFCURVE",
"276 697 CURVE"
);
}
);
};
layerId = "63224BA1-30A4-42F4-A6D1-9160F56B91B0";
paths = (
{
closed = 1;
nodes = (
"409 -16 OFFCURVE",
"508 67 OFFCURVE",
"508 186 CURVE SMOOTH",
"508 288 OFFCURVE",
"448 357 OFFCURVE",
"347 369 CURVE",
"347 355 LINE",
"433 369 OFFCURVE",
"489 432 OFFCURVE",
"489 518 CURVE SMOOTH",
"489 619 OFFCURVE",
"404 697 OFFCURVE",
"283 697 CURVE SMOOTH",
"178 697 OFFCURVE",
"103 643 OFFCURVE",
"63 554 CURVE",
"123 519 LINE",
"162 599 OFFCURVE",
"211 634 OFFCURVE",
"283 634 CURVE SMOOTH",
"361 634 OFFCURVE",
"417 589 OFFCURVE",
"417 518 CURVE SMOOTH",
"417 437 OFFCURVE",
"363 391 OFFCURVE",
"278 391 CURVE SMOOTH",
"234 391 LINE",
"234 329 LINE",
"282 329 LINE SMOOTH",
"374 329 OFFCURVE",
"434 274 OFFCURVE",
"434 186 CURVE SMOOTH",
"434 94 OFFCURVE",
"366 48 OFFCURVE",
"283 49 CURVE SMOOTH",
"198 50 OFFCURVE",
"147 101 OFFCURVE",
"110 179 CURVE",
"50 144 LINE",
"96 37 OFFCURVE",
"176 -16 OFFCURVE",
"286 -16 CURVE SMOOTH"
);
}
);
width = 553;
}
);
leftKerningGroup = "Ze-cy";
rightKerningGroup = B;
unicode = 0417;
},
{
color = 5;
glyphname = "Ii-cy";
layers = (
{
anchors = (
{
name = bottomright;
position = "{514, 0}";
},
{
name = top;
position = "{336, 682}";
}
);
background = {
components = (
{
name = H;
transform = "{1, 0, 0, 1, -1, 0}";
}
);
};
layerId = "63224BA1-30A4-42F4-A6D1-9160F56B91B0";
paths = (
{
closed = 1;
nodes = (
"152 0 LINE",
"514 567 LINE",
"514 0 LINE",
"586 0 LINE",
"585 682 LINE",
"514 682 LINE",
"152 103 LINE",
"152 682 LINE",
"80 682 LINE",
"80 0 LINE"
);
}
);
width = 666;
}
);
leftKerningGroup = H;
leftMetricsKey = H;
rightKerningGroup = H;
rightMetricsKey = H;
unicode = 0418;
},
{
color = 5;
glyphname = "Ka-cy";
layers = (
{
anchors = (
{
name = bottomright;
position = "{464, 0}";
},
{
name = center;
position = "{211, 351}";
},
{
name = top;
position = "{302, 682}";
}
);
background = {
paths = (
{
closed = 1;
nodes = (
"294 357 LINE",
"541 679 LINE",
"451 679 LINE",
"204 351 LINE",
"477 0 LINE",
"568 0 LINE"
);
},
{
closed = 1;
nodes = (
"129 0 LINE",
"129 307 LINE",
"314 307 LINE",
"314 397 LINE",
"129 397 LINE",
"129 679 LINE",
"30 679 LINE",
"30 0 LINE"
);
}
);
};
layerId = "63224BA1-30A4-42F4-A6D1-9160F56B91B0";
paths = (
{
closed = 1;
nodes = (
"589 0 LINE",
"316 357 LINE",
"561 679 LINE",
"471 679 LINE",
"224 351 LINE",
"494 0 LINE"
);
},
{
closed = 1;
nodes = (
"155 0 LINE",
"155 325 LINE",
"285 325 LINE",
"285 387 LINE",
"155 387 LINE",
"155 682 LINE",
"80 682 LINE",
"80 0 LINE"
);
}
);
width = 604;
}
);
leftKerningGroup = H;
rightKerningGroup = K;
unicode = 041A;
},
{
color = 5;
glyphname = "El-cy";
layers = (
{
background = {
paths = (
{
closed = 1;
nodes = (
"202 0 OFFCURVE",
"235 208 OFFCURVE",
"235 447 CURVE SMOOTH",
"235 682 LINE",
"160 682 LINE",
"160 472 LINE SMOOTH",
"160 201 OFFCURVE",
"134 62 OFFCURVE",
"31 62 CURVE SMOOTH",
"1 62 LINE",
"1 0 LINE",
"27 0 LINE SMOOTH"
);
}
);
};
layerId = "63224BA1-30A4-42F4-A6D1-9160F56B91B0";
paths = (
{
closed = 1;
nodes = (
"27 0 LINE SMOOTH",
"212 0 OFFCURVE",
"230 227 OFFCURVE",
"230 487 CURVE SMOOTH",
"230 620 LINE",
"484 620 LINE",
"484 0 LINE",
"559 0 LINE",
"559 682 LINE",
"160 682 LINE",
"160 472 LINE SMOOTH",
"160 185 OFFCURVE",
"124 62 OFFCURVE",
"31 62 CURVE SMOOTH",
"10 62 LINE",
"10 0 LINE"
);
}
);
width = 639;
}
);
leftKerningGroup = "El-cy";
rightKerningGroup = H;
rightMetricsKey = "En-cy";
unicode = 041B;
},
{
color = 5;
glyphname = "Pe-cy";
layers = (
{
anchors = (
{
name = bottomright;
position = "{496, 0}";
}
);
background = {
components = (
{
name = H;
transform = "{1, 0, 0, 1, 1, 0}";
}
);
};
layerId = "63224BA1-30A4-42F4-A6D1-9160F56B91B0";
paths = (
{
closed = 1;
nodes = (
"155 0 LINE",
"155 620 LINE",
"496 620 LINE",
"496 0 LINE",
"571 0 LINE",
"571 682 LINE",
"80 682 LINE",
"80 0 LINE"
);
}
);
width = 651;
}
);
leftKerningGroup = H;
leftMetricsKey = "En-cy";
rightKerningGroup = H;
rightMetricsKey = "En-cy";
unicode = 041F;
},
{
color = 5;
glyphname = "U-cy";
layers = (
{
anchors = (
{
name = top;
position = "{289, 682}";
}
);
layerId = "63224BA1-30A4-42F4-A6D1-9160F56B91B0";
paths = (
{
closed = 1;
nodes = (
"214 0 OFFCURVE",
"288 38 OFFCURVE",
"321 126 CURVE SMOOTH",
"541 682 LINE",
"462 682 LINE",
"268 160 LINE SMOOTH",
"239 77 OFFCURVE",
"182 62 OFFCURVE",
"114 62 CURVE",
"114 0 LINE"
);
},
{
closed = 1;
nodes = (
"326 237 LINE",
"91 682 LINE",
"10 682 LINE",
"288 169 LINE"
);
}
);
width = 541;
}
);
leftKerningGroup = "U-cy";
rightKerningGroup = "U-cy";
unicode = 0423;
},
{
color = 5;
glyphname = "Ef-cy";
layers = (
{
layerId = "63224BA1-30A4-42F4-A6D1-9160F56B91B0";
paths = (
{
closed = 1;
nodes = (
"584 45 OFFCURVE",
"721 163 OFFCURVE",
"721 332 CURVE SMOOTH",
"721 506 OFFCURVE",
"584 628 OFFCURVE",
"388 628 CURVE SMOOTH",
"192 628 OFFCURVE",
"55 507 OFFCURVE",
"55 333 CURVE SMOOTH",
"55 164 OFFCURVE",
"192 45 OFFCURVE",
"388 45 CURVE SMOOTH"
);
},
{
closed = 1;
nodes = (
"239 103 OFFCURVE",
"131 197 OFFCURVE",
"131 332 CURVE SMOOTH",
"131 472 OFFCURVE",
"239 569 OFFCURVE",
"388 569 CURVE SMOOTH",
"537 569 OFFCURVE",
"645 472 OFFCURVE",
"645 332 CURVE SMOOTH",
"645 197 OFFCURVE",
"537 103 OFFCURVE",
"388 103 CURVE SMOOTH"
);
},
{
closed = 1;
nodes = (
"427 -17 LINE",
"427 698 LINE",
"352 698 LINE",
"352 -17 LINE"
);
}
);
width = 776;
},
{
associatedMasterId = "63224BA1-30A4-42F4-A6D1-9160F56B91B0";
background = {
paths = (
{
closed = 1;
nodes = (
"563 202 OFFCURVE",
"462 103 OFFCURVE",
"319 103 CURVE SMOOTH",
"176 103 OFFCURVE",
"75 202 OFFCURVE",
"75 342 CURVE SMOOTH",
"75 481 OFFCURVE",
"176 579 OFFCURVE",
"319 579 CURVE SMOOTH",
"462 579 OFFCURVE",
"563 481 OFFCURVE",
"563 342 CURVE SMOOTH"
);
},
{
closed = 1;
nodes = (
"642 522 OFFCURVE",
"509 648 OFFCURVE",
"319 648 CURVE SMOOTH",
"129 648 OFFCURVE",
"-4 522 OFFCURVE",
"-4 343 CURVE SMOOTH",
"-4 162 OFFCURVE",
"129 35 OFFCURVE",
"319 35 CURVE SMOOTH",
"509 35 OFFCURVE",
"642 162 OFFCURVE",
"642 342 CURVE SMOOTH"
);
}
);
};
components = (
{
name = Phi;
}
);
layerId = "B9CE459E-E3E8-4217-A345-1FDF5910603C";
name = "Oct 10 16, 13:06";
width = 638;
}
);
leftKerningGroup = O;
leftMetricsKey = O;
rightKerningGroup = O;
rightMetricsKey = O;
unicode = 0424;
},
{
color = 5;
glyphname = "Che-cy";
layers = (
{
anchors = (
{
name = bottomright;
position = "{439, 0}";
},
{
name = center;
position = "{280, 286}";
},
{
name = top;
position = "{294, 682}";
}
);
background = {
components = (
{
name = H;
transform = "{1, 0, 0, 1, -76, 0}";
}
);
};
layerId = "63224BA1-30A4-42F4-A6D1-9160F56B91B0";
paths = (
{
closed = 1;
nodes = (
"383 247 OFFCURVE",
"478 303 OFFCURVE",
"478 381 CURVE",
"439 381 LINE",
"439 343 OFFCURVE",
"366 316 OFFCURVE",
"289 316 CURVE SMOOTH",
"173 316 OFFCURVE",
"130 342 OFFCURVE",
"130 460 CURVE SMOOTH",
"130 682 LINE",
"55 682 LINE",
"55 438 LINE SMOOTH",
"55 304 OFFCURVE",
"147 247 OFFCURVE",
"265 247 CURVE SMOOTH"
);
},
{
closed = 1;
nodes = (
"514 0 LINE",
"514 682 LINE",
"439 682 LINE",
"439 0 LINE"
);
}
);
width = 594;
}
);
leftKerningGroup = "Che-cy";
rightKerningGroup = H;
rightMetricsKey = "En-cy";
unicode = 0427;
},
{
color = 5;
glyphname = "Tse-cy";
layers = (
{
layerId = "63224BA1-30A4-42F4-A6D1-9160F56B91B0";
paths = (
{
closed = 1;
nodes = (
"630 -122 LINE",
"630 62 LINE",
"570 62 LINE",
"570 682 LINE",
"495 682 LINE",
"495 62 LINE",
"155 62 LINE",
"155 682 LINE",
"80 682 LINE",
"80 0 LINE",
"560 0 LINE",
"560 -122 LINE"
);
}
);
width = 670;
}
);
leftKerningGroup = H;
leftMetricsKey = "En-cy";
rightKerningGroup = "Tse-cy";
rightMetricsKey = "De-cy";
unicode = 0426;
},
{
color = 5;
glyphname = "Sha-cy";
layers = (
{
layerId = "63224BA1-30A4-42F4-A6D1-9160F56B91B0";
paths = (
{
closed = 1;
nodes = (
"845 0 LINE",
"845 682 LINE",
"770 682 LINE",
"770 62 LINE",
"500 62 LINE",
"500 682 LINE",
"425 682 LINE",
"425 62 LINE",
"155 62 LINE",
"155 682 LINE",
"80 682 LINE",
"80 0 LINE"
);
}
);
width = 925;
}
);
leftKerningGroup = H;
leftMetricsKey = "En-cy";
rightKerningGroup = H;
rightMetricsKey = "En-cy";
unicode = 0428;
},
{
color = 5;
glyphname = "Shcha-cy";
layers = (
{
layerId = "63224BA1-30A4-42F4-A6D1-9160F56B91B0";
paths = (
{
closed = 1;
nodes = (
"865 -122 LINE",
"865 62 LINE",
"805 62 LINE",
"805 682 LINE",
"730 682 LINE",
"730 62 LINE",
"480 62 LINE",
"480 682 LINE",
"405 682 LINE",
"405 62 LINE",
"155 62 LINE",
"155 682 LINE",
"80 682 LINE",
"80 0 LINE",
"795 0 LINE",
"795 -122 LINE"
);
}
);
width = 885;
}
);
leftKerningGroup = H;
leftMetricsKey = "En-cy";
rightKerningGroup = "Tse-cy";
rightMetricsKey = "De-cy";
unicode = 0429;
},
{
color = 5;
glyphname = "Dzhe-cy";
layers = (
{
background = {
paths = (
{
closed = 1;
nodes = (
"304 62 LINE",
"304 682 LINE",
"229 682 LINE",
"229 62 LINE",
"-111 62 LINE",
"-111 682 LINE",
"-186 682 LINE",
"-186 0 LINE",
"294 0 LINE",
"294 -122 LINE",
"364 -122 LINE",
"364 62 LINE"
);
}
);
};
layerId = "63224BA1-30A4-42F4-A6D1-9160F56B91B0";
paths = (
{
closed = 1;
nodes = (
"360 -122 LINE",
"360 0 LINE",
"570 0 LINE",
"570 682 LINE",
"495 682 LINE",
"495 62 LINE",
"155 62 LINE",
"155 682 LINE",
"80 682 LINE",
"80 0 LINE",
"290 0 LINE",
"290 -122 LINE"
);
}
);
width = 650;
}
);
leftKerningGroup = H;
leftMetricsKey = "En-cy";
rightKerningGroup = H;
rightMetricsKey = "En-cy";
unicode = 040F;
},
{
color = 5;
glyphname = "Softsign-cy";
layers = (
{
background = {
paths = (
{
closed = 1;
nodes = (
"79 682 LINE",
"79 0 LINE",
"317 0 LINE SMOOTH",
"446 0 OFFCURVE",
"529 75 OFFCURVE",
"529 196 CURVE SMOOTH",
"529 311 OFFCURVE",
"460 391 OFFCURVE",
"312 391 CURVE",
"154 391 LINE",
"154 682 LINE"
);
},
{
closed = 1;
nodes = (
"154 62 LINE",
"154 329 LINE",
"317 329 LINE SMOOTH",
"403 329 OFFCURVE",
"454 278 OFFCURVE",
"454 196 CURVE SMOOTH",
"454 114 OFFCURVE",
"403 62 OFFCURVE",
"317 62 CURVE SMOOTH"
);
}
);
};
layerId = "63224BA1-30A4-42F4-A6D1-9160F56B91B0";
paths = (
{
closed = 1;
nodes = (
"297 0 LINE SMOOTH",
"426 0 OFFCURVE",
"509 79 OFFCURVE",
"509 206 CURVE SMOOTH",
"509 327 OFFCURVE",
"440 411 OFFCURVE",
"292 411 CURVE",
"154 411 LINE",
"154 682 LINE",
"79 682 LINE",
"79 0 LINE"
);
},
{
closed = 1;
nodes = (
"154 349 LINE",
"297 349 LINE SMOOTH",
"383 349 OFFCURVE",
"434 294 OFFCURVE",
"434 206 CURVE SMOOTH",
"434 118 OFFCURVE",
"383 62 OFFCURVE",
"297 62 CURVE SMOOTH",
"154 62 LINE"
);
}
);
width = 539;
}
);
leftKerningGroup = H;
rightKerningGroup = "Softsign-cy";
unicode = 042C;
},
{
color = 5;
glyphname = "Hardsign-cy";
layers = (
{
background = {
paths = (
{
closed = 1;
nodes = (
"246 411 LINE",
"246 682 LINE",
"-30 682 LINE",
"-30 619 LINE",
"171 619 LINE",
"171 0 LINE",
"389 0 LINE SMOOTH",
"518 0 OFFCURVE",
"601 79 OFFCURVE",
"601 206 CURVE SMOOTH",
"601 327 OFFCURVE",
"532 411 OFFCURVE",
"384 411 CURVE SMOOTH"
);
},
{
closed = 1;
nodes = (
"246 62 LINE",
"246 349 LINE",
"389 349 LINE SMOOTH",
"475 349 OFFCURVE",
"526 294 OFFCURVE",
"526 206 CURVE SMOOTH",
"526 118 OFFCURVE",
"475 62 OFFCURVE",
"389 62 CURVE SMOOTH"
);
}
);
};
layerId = "63224BA1-30A4-42F4-A6D1-9160F56B91B0";
paths = (
{
closed = 1;
nodes = (
"369 0 LINE SMOOTH",
"498 0 OFFCURVE",
"581 79 OFFCURVE",
"581 206 CURVE SMOOTH",
"581 327 OFFCURVE",
"512 411 OFFCURVE",
"364 411 CURVE SMOOTH",
"246 411 LINE",
"246 682 LINE",
"0 682 LINE",
"0 619 LINE",
"171 619 LINE",
"171 0 LINE"
);
},
{
closed = 1;
nodes = (
"246 349 LINE",
"369 349 LINE SMOOTH",
"455 349 OFFCURVE",
"506 294 OFFCURVE",
"506 206 CURVE SMOOTH",
"506 118 OFFCURVE",
"455 62 OFFCURVE",
"369 62 CURVE SMOOTH",
"246 62 LINE"
);
}
);
width = 611;
}
);
leftKerningGroup = T;
rightKerningGroup = "Softsign-cy";
rightMetricsKey = "Softsign-cy";
unicode = 042A;
},
{
color = 5;
glyphname = "Yeru-cy";
layers = (
{
anchors = (
{
name = top;
position = "{373, 682}";
}
);
background = {
paths = (
{
closed = 1;
nodes = (
"80 682 LINE",
"80 0 LINE",
"298 0 LINE SMOOTH",
"427 0 OFFCURVE",
"510 79 OFFCURVE",
"510 206 CURVE SMOOTH",
"510 327 OFFCURVE",
"441 411 OFFCURVE",
"293 411 CURVE",
"155 411 LINE",
"155 682 LINE"
);
},
{
closed = 1;
nodes = (
"155 62 LINE",
"155 349 LINE",
"298 349 LINE SMOOTH",
"384 349 OFFCURVE",
"435 294 OFFCURVE",
"435 206 CURVE SMOOTH",
"435 118 OFFCURVE",
"384 62 OFFCURVE",
"298 62 CURVE SMOOTH"
);
}
);
};
layerId = "63224BA1-30A4-42F4-A6D1-9160F56B91B0";
paths = (
{
closed = 1;
nodes = (
"288 0 LINE SMOOTH",
"417 0 OFFCURVE",
"500 79 OFFCURVE",
"500 206 CURVE SMOOTH",
"500 327 OFFCURVE",
"431 411 OFFCURVE",
"283 411 CURVE",
"155 411 LINE",
"155 682 LINE",
"80 682 LINE",
"80 0 LINE"
);
},
{
closed = 1;
nodes = (
"155 349 LINE",
"288 349 LINE SMOOTH",
"374 349 OFFCURVE",
"425 294 OFFCURVE",
"425 206 CURVE SMOOTH",
"425 118 OFFCURVE",
"374 62 OFFCURVE",
"288 62 CURVE SMOOTH",
"155 62 LINE"
);
},
{
closed = 1;
nodes = (
"665 0 LINE",
"665 682 LINE",
"590 682 LINE",
"590 0 LINE"
);
}
);
width = 745;
}
);
leftKerningGroup = H;
leftMetricsKey = "En-cy";
rightKerningGroup = H;
rightMetricsKey = "En-cy";
unicode = 042B;
},
{
color = 5;
glyphname = "Lje-cy";
layers = (
{
layerId = "63224BA1-30A4-42F4-A6D1-9160F56B91B0";
paths = (
{
closed = 1;
nodes = (
"27 0 LINE SMOOTH",
"212 0 OFFCURVE",
"230 227 OFFCURVE",
"230 487 CURVE SMOOTH",
"230 620 LINE",
"464 620 LINE",
"464 0 LINE",
"662 0 LINE SMOOTH",
"791 0 OFFCURVE",
"874 79 OFFCURVE",
"874 206 CURVE SMOOTH",
"874 327 OFFCURVE",
"805 411 OFFCURVE",
"657 411 CURVE SMOOTH",
"539 411 LINE",
"539 682 LINE",
"160 682 LINE",
"160 472 LINE SMOOTH",
"160 185 OFFCURVE",
"124 62 OFFCURVE",
"31 62 CURVE SMOOTH",
"10 62 LINE",
"10 0 LINE"
);
},
{
closed = 1;
nodes = (
"539 349 LINE",
"662 349 LINE SMOOTH",
"748 349 OFFCURVE",
"799 294 OFFCURVE",
"799 206 CURVE SMOOTH",
"799 118 OFFCURVE",
"748 62 OFFCURVE",
"662 62 CURVE SMOOTH",
"539 62 LINE"
);
}
);
width = 904;
}
);
leftKerningGroup = "El-cy";
leftMetricsKey = "El-cy";
rightKerningGroup = "Softsign-cy";
rightMetricsKey = "Softsign-cy";
unicode = 0409;
},
{
color = 5;
glyphname = "Nje-cy";
layers = (
{
background = {
paths = (
{
closed = 1;
nodes = (
"135 0 LINE",
"135 325 LINE",
"495 325 LINE",
"495 0 LINE",
"570 0 LINE",
"570 682 LINE",
"495 682 LINE",
"495 387 LINE",
"135 387 LINE",
"135 682 LINE",
"60 682 LINE",
"60 0 LINE"
);
}
);
};
layerId = "63224BA1-30A4-42F4-A6D1-9160F56B91B0";
paths = (
{
closed = 1;
nodes = (
"155 0 LINE",
"155 325 LINE",
"495 325 LINE",
"495 0 LINE",
"693 0 LINE SMOOTH",
"822 0 OFFCURVE",
"905 79 OFFCURVE",
"905 206 CURVE SMOOTH",
"905 327 OFFCURVE",
"836 411 OFFCURVE",
"688 411 CURVE SMOOTH",
"570 411 LINE",
"570 682 LINE",
"495 682 LINE",
"495 387 LINE",
"155 387 LINE",
"155 682 LINE",
"80 682 LINE",
"80 0 LINE"
);
},
{
closed = 1;
nodes = (
"570 349 LINE",
"693 349 LINE SMOOTH",
"779 349 OFFCURVE",
"830 294 OFFCURVE",
"830 206 CURVE SMOOTH",
"830 118 OFFCURVE",
"779 62 OFFCURVE",
"693 62 CURVE SMOOTH",
"570 62 LINE"
);
}
);
width = 935;
}
);
leftKerningGroup = H;
leftMetricsKey = "En-cy";
rightKerningGroup = "Softsign-cy";
rightMetricsKey = "Softsign-cy";
unicode = 040A;
},
{
color = 5;
glyphname = "E-cy";
layers = (
{
background = {
components = (
{
name = C;
}
);
};
components = (
{
name = C;
}
);
layerId = "63224BA1-30A4-42F4-A6D1-9160F56B91B0";
paths = (
{
closed = 1;
nodes = (
"385 310 LINE",
"385 372 LINE",
"106 372 LINE",
"106 310 LINE"
);
}
);
width = 605;
}
);
leftKerningGroup = O;
leftMetricsKey = O;
rightKerningGroup = C;
rightMetricsKey = C;
unicode = 0404;
},
{
color = 5;
glyphname = "Ereversed-cy";
layers = (
{
anchors = (
{
name = top;
position = "{308, 682}";
}
);
background = {
components = (
{
name = H;
transform = "{1, 0, 0, 1, 10, 0}";
}
);
};
components = (
{
name = C;
transform = "{-1, 0, 0, 1, 615, -5}";
}
);
layerId = "63224BA1-30A4-42F4-A6D1-9160F56B91B0";
paths = (
{
closed = 1;
nodes = (
"498 325 LINE",
"498 387 LINE",
"197 387 LINE",
"197 325 LINE"
);
}
);
width = 615;
}
);
leftKerningGroup = "Ereversed-cy";
rightKerningGroup = O;
rightMetricsKey = O;
unicode = 042D;
},
{
color = 5;
glyphname = "Tshe-cy";
layers = (
{
background = {
paths = (
{
closed = 1;
nodes = (
"479 620 LINE",
"479 682 LINE",
"35 682 LINE",
"35 620 LINE"
);
}
);
};
components = (
{
name = "Che-cy";
transform = "{-1, 0, 0, -1, 694, 682}";
}
);
layerId = "63224BA1-30A4-42F4-A6D1-9160F56B91B0";
paths = (
{
closed = 1;
nodes = (
"509 620 LINE",
"509 682 LINE",
"15 682 LINE",
"15 620 LINE"
);
}
);
width = 694;
}
);
leftKerningGroup = T;
leftMetricsKey = T;
rightKerningGroup = "Tshe-cy";
unicode = 040B;
},
{
color = 5;
glyphname = "Iu-cy";
layers = (
{
background = {
components = (
{
name = O;
transform = "{1, 0, 0, 1, 201, 0}";
}
);
};
layerId = "63224BA1-30A4-42F4-A6D1-9160F56B91B0";
paths = (
{
closed = 1;
nodes = (
"721 -16 OFFCURVE",
"842 131 OFFCURVE",
"842 339 CURVE SMOOTH",
"842 549 OFFCURVE",
"721 697 OFFCURVE",
"549 697 CURVE SMOOTH",
"389 697 OFFCURVE",
"276 549 OFFCURVE",
"276 340 CURVE SMOOTH",
"276 131 OFFCURVE",
"389 -16 OFFCURVE",
"549 -16 CURVE SMOOTH"
);
},
{
closed = 1;
nodes = (
"155 0 LINE",
"155 310 LINE",
"305 310 LINE",
"305 372 LINE",
"155 372 LINE",
"155 682 LINE",
"80 682 LINE",
"80 0 LINE"
);
},
{
closed = 1;
nodes = (
"436 53 OFFCURVE",
"355 172 OFFCURVE",
"355 340 CURVE SMOOTH",
"355 509 OFFCURVE",
"436 629 OFFCURVE",
"549 629 CURVE SMOOTH",
"674 629 OFFCURVE",
"763 509 OFFCURVE",
"763 340 CURVE SMOOTH",
"763 172 OFFCURVE",
"674 53 OFFCURVE",
"549 53 CURVE SMOOTH"
);
}
);
width = 897;
}
);
leftKerningGroup = H;
leftMetricsKey = "En-cy";
rightKerningGroup = O;
rightMetricsKey = O;
unicode = 042E;
},
{
color = 5;
glyphname = "Ia-cy";
layers = (
{
background = {
paths = (
{
closed = 1;
nodes = (
"489 0 LINE",
"489 682 LINE",
"291 682 LINE SMOOTH",
"162 682 OFFCURVE",
"79 603 OFFCURVE",
"79 476 CURVE SMOOTH",
"79 355 OFFCURVE",
"148 271 OFFCURVE",
"296 271 CURVE",
"414 271 LINE",
"414 0 LINE"
);
},
{
closed = 1;
nodes = (
"414 620 LINE",
"414 333 LINE",
"291 333 LINE SMOOTH",
"205 333 OFFCURVE",
"154 388 OFFCURVE",
"154 476 CURVE SMOOTH",
"154 564 OFFCURVE",
"205 620 OFFCURVE",
"291 620 CURVE SMOOTH"
);
}
);
};
layerId = "63224BA1-30A4-42F4-A6D1-9160F56B91B0";
paths = (
{
closed = 1;
nodes = (
"509 0 LINE",
"509 682 LINE",
"291 682 LINE SMOOTH",
"162 682 OFFCURVE",
"79 603 OFFCURVE",
"79 476 CURVE SMOOTH",
"79 365 OFFCURVE",
"158 271 OFFCURVE",
"296 271 CURVE",
"434 271 LINE",
"434 0 LINE"
);
},
{
closed = 1;
nodes = (
"119 0 LINE",
"273 279 LINE",
"221 320 LINE",
"40 0 LINE"
);
},
{
closed = 1;
nodes = (
"205 333 OFFCURVE",
"154 388 OFFCURVE",
"154 476 CURVE SMOOTH",
"154 564 OFFCURVE",
"205 620 OFFCURVE",
"291 620 CURVE SMOOTH",
"434 620 LINE",
"434 333 LINE",
"301 333 LINE SMOOTH"
);
}
);
width = 589;
}
);
leftKerningGroup = "Ia-cy";
rightKerningGroup = H;
rightMetricsKey = "En-cy";
unicode = 042F;
},
{
color = 5;
glyphname = "Dje-cy";
layers = (
{
background = {
paths = (
{
closed = 0;
nodes = (
"19 399 LINE",
"157 399 OFFCURVE",
"206 335 OFFCURVE",
"205 222 CURVE SMOOTH",
"204 86 OFFCURVE",
"159 17 OFFCURVE",
"95 17 CURVE SMOOTH",
"59 17 OFFCURVE",
"37 24 OFFCURVE",
"12 37 CURVE SMOOTH"
);
},
{
closed = 1;
nodes = (
"419 -4 OFFCURVE",
"452 -14 OFFCURVE",
"482 -14 CURVE SMOOTH",
"577 -14 OFFCURVE",
"639 55 OFFCURVE",
"639 244 CURVE",
"564 222 LINE",
"564 115 OFFCURVE",
"531 55 OFFCURVE",
"478 55 CURVE SMOOTH",
"460 55 OFFCURVE",
"438 62 OFFCURVE",
"415 78 CURVE",
"383 16 LINE"
);
}
);
};
layerId = "63224BA1-30A4-42F4-A6D1-9160F56B91B0";
paths = (
{
closed = 1;
nodes = (
"577 -14 OFFCURVE",
"639 70 OFFCURVE",
"639 224 CURVE SMOOTH",
"639 352 OFFCURVE",
"547 435 OFFCURVE",
"429 435 CURVE SMOOTH",
"357 435 OFFCURVE",
"294 414 OFFCURVE",
"255 380 CURVE",
"255 620 LINE",
"509 620 LINE",
"509 682 LINE",
"15 682 LINE",
"15 620 LINE",
"180 620 LINE",
"180 0 LINE",
"255 0 LINE",
"255 301 LINE SMOOTH",
"255 339 OFFCURVE",
"328 366 OFFCURVE",
"405 366 CURVE SMOOTH",
"513 366 OFFCURVE",
"564 316 OFFCURVE",
"564 212 CURVE SMOOTH",
"564 108 OFFCURVE",
"531 55 OFFCURVE",
"478 55 CURVE SMOOTH",
"466 55 OFFCURVE",
"451 58 OFFCURVE",
"436 65 CURVE",
"404 3 LINE",
"432 -8 OFFCURVE",
"453 -14 OFFCURVE",
"482 -14 CURVE SMOOTH"
);
}
);
width = 684;
}
);
leftKerningGroup = T;
leftMetricsKey = T;
rightKerningGroup = "Tshe-cy";
unicode = 0402;
},
{
color = 5;
glyphname = "Yat-cy";
layers = (
{
background = {
paths = (
{
closed = 1;
nodes = (
"79 520 LINE",
"153 520 LINE",
"308 520 LINE",
"308 582 LINE",
"-36 582 LINE",
"-36 520 LINE"
);
}
);
};
layerId = "63224BA1-30A4-42F4-A6D1-9160F56B91B0";
paths = (
{
closed = 1;
nodes = (
"277 0 LINE SMOOTH",
"406 0 OFFCURVE",
"489 79 OFFCURVE",
"489 206 CURVE SMOOTH",
"489 327 OFFCURVE",
"420 411 OFFCURVE",
"272 411 CURVE",
"154 411 LINE",
"154 682 LINE",
"79 682 LINE",
"79 0 LINE"
);
},
{
closed = 1;
nodes = (
"154 349 LINE",
"277 349 LINE SMOOTH",
"363 349 OFFCURVE",
"414 294 OFFCURVE",
"414 206 CURVE SMOOTH",
"414 118 OFFCURVE",
"363 62 OFFCURVE",
"277 62 CURVE SMOOTH",
"154 62 LINE"
);
},
{
closed = 1;
nodes = (
"79 520 LINE",
"153 520 LINE",
"308 520 LINE",
"308 582 LINE",
"-36 582 LINE",
"-36 520 LINE"
);
}
);
width = 519;
}
);
leftKerningGroup = H;
rightKerningGroup = "Softsign-cy";
rightMetricsKey = "Softsign-cy";
unicode = 0462;
},
{
color = 5;
glyphname = "Yusbig-cy";
layers = (
{
background = {
paths = (
{
closed = 1;
nodes = (
"111 356 OFFCURVE",
"40 237 OFFCURVE",
"40 102 CURVE SMOOTH",
"40 0 LINE",
"125 0 LINE",
"125 118 LINE SMOOTH",
"125 236 OFFCURVE",
"193 325 OFFCURVE",
"334 325 CURVE",
"334 0 LINE",
"409 0 LINE",
"409 325 LINE",
"550 325 OFFCURVE",
"618 236 OFFCURVE",
"618 118 CURVE SMOOTH",
"618 0 LINE",
"703 0 LINE",
"703 102 LINE SMOOTH",
"703 237 OFFCURVE",
"632 355 OFFCURVE",
"471 379 CURVE",
"670 682 LINE",
"65 682 LINE",
"274 379 LINE"
);
},
{
closed = 1;
nodes = (
"543 620 LINE",
"372 360 LINE",
"207 620 LINE"
);
}
);
};
guideLines = (
{
angle = 90;
position = "{-70, 186}";
},
{
angle = 90;
position = "{15, 186}";
}
);
layerId = "63224BA1-30A4-42F4-A6D1-9160F56B91B0";
paths = (
{
closed = 1;
nodes = (
"125 0 LINE",
"125 118 LINE SMOOTH",
"125 236 OFFCURVE",
"193 325 OFFCURVE",
"334 325 CURVE",
"334 0 LINE",
"409 0 LINE",
"409 325 LINE",
"550 325 OFFCURVE",
"618 236 OFFCURVE",
"618 118 CURVE SMOOTH",
"618 0 LINE",
"703 0 LINE",
"703 102 LINE SMOOTH",
"703 237 OFFCURVE",
"632 356 OFFCURVE",
"469 379 CURVE",
"680 682 LINE",
"71 682 LINE",
"302 342 LINE",
"310 383 LINE",
"122 373 OFFCURVE",
"40 247 OFFCURVE",
"40 102 CURVE SMOOTH",
"40 0 LINE"
);
},
{
closed = 1;
nodes = (
"396 323 LINE",
"198 620 LINE",
"558 620 LINE",
"352 323 LINE"
);
}
);
width = 743;
}
);
leftKerningGroup = X;
rightKerningGroup = X;
unicode = 046A;
},
{
color = 5;
glyphname = "Izhitsa-cy";
layers = (
{
background = {
paths = (
{
closed = 1;
nodes = (
"307 0 LINE",
"455 425 LINE SMOOTH",
"496 541 OFFCURVE",
"536 620 OFFCURVE",
"599 620 CURVE SMOOTH",
"620 620 LINE",
"620 682 LINE",
"602 682 LINE SMOOTH",
"497 682 OFFCURVE",
"446 602 OFFCURVE",
"389 436 CURVE SMOOTH",
"260 62 LINE"
);
}
);
};
layerId = "63224BA1-30A4-42F4-A6D1-9160F56B91B0";
paths = (
{
closed = 1;
nodes = (
"307 0 LINE",
"455 425 LINE SMOOTH",
"496 541 OFFCURVE",
"536 620 OFFCURVE",
"599 620 CURVE SMOOTH",
"620 620 LINE",
"620 682 LINE",
"602 682 LINE SMOOTH",
"497 682 OFFCURVE",
"451 602 OFFCURVE",
"394 436 CURVE SMOOTH",
"259 39 LINE",
"281 39 LINE",
"65 682 LINE",
"-10 682 LINE",
"227 0 LINE"
);
}
);
width = 600;
}
);
leftKerningGroup = V;
rightKerningGroup = V;
unicode = 0474;
},
{
color = 5;
glyphname = "Ghemiddlehook-cy";
layers = (
{
layerId = "63224BA1-30A4-42F4-A6D1-9160F56B91B0";
paths = (
{
closed = 1;
nodes = (
"155 0 LINE",
"155 619 LINE",
"462 619 LINE",
"462 682 LINE",
"80 682 LINE",
"80 0 LINE"
);
},
{
closed = 1;
nodes = (
"451 -14 OFFCURVE",
"529 64 OFFCURVE",
"529 214 CURVE SMOOTH",
"529 357 OFFCURVE",
"428 436 OFFCURVE",
"305 436 CURVE SMOOTH",
"257 436 OFFCURVE",
"205 425 OFFCURVE",
"155 400 CURVE",
"155 336 LINE",
"205 358 OFFCURVE",
"254 369 OFFCURVE",
"298 369 CURVE SMOOTH",
"387 369 OFFCURVE",
"454 321 OFFCURVE",
"454 212 CURVE SMOOTH",
"454 101 OFFCURVE",
"406 50 OFFCURVE",
"328 50 CURVE SMOOTH",
"313 50 OFFCURVE",
"294 53 OFFCURVE",
"266 60 CURVE",
"244 3 LINE",
"275 -8 OFFCURVE",
"299 -14 OFFCURVE",
"332 -14 CURVE SMOOTH"
);
}
);
width = 574;
}
);
leftKerningGroup = H;
leftMetricsKey = "En-cy";
rightKerningGroup = "Tshe-cy";
unicode = 0494;
},
{
color = 5;
glyphname = "Zedescender-cy";
layers = (
{
components = (
{
name = "Ze-cy";
}
);
layerId = "63224BA1-30A4-42F4-A6D1-9160F56B91B0";
paths = (
{
closed = 1;
nodes = (
"322 -122 LINE",
"322 12 LINE",
"252 0 LINE",
"252 -122 LINE"
);
}
);
width = 553;
}
);
leftKerningGroup = "Ze-cy";
rightKerningGroup = B;
rightMetricsKey = "Ze-cy";
unicode = 0498;
},
{
color = 5;
glyphname = "Kabashkir-cy";
layers = (
{
components = (
{
name = "Ka-cy";
transform = "{1, 0, 0, 1, 110, 0}";
}
);
layerId = "63224BA1-30A4-42F4-A6D1-9160F56B91B0";
paths = (
{
closed = 1;
nodes = (
"265 620 LINE",
"265 682 LINE",
"15 682 LINE",
"15 620 LINE"
);
}
);
width = 714;
}
);
leftKerningGroup = T;
leftMetricsKey = T;
rightKerningGroup = K;
rightMetricsKey = "Ka-cy";
unicode = 04A0;
},
{
color = 5;
glyphname = "Esdescender-cy";
layers = (
{
components = (
{
name = "Es-cy";
}
);
layerId = "63224BA1-30A4-42F4-A6D1-9160F56B91B0";
paths = (
{
closed = 1;
nodes = (
"362 -122 LINE",
"362 12 LINE",
"292 0 LINE",
"292 -122 LINE"
);
}
);
width = 605;
}
);
leftKerningGroup = O;
leftMetricsKey = C;
rightKerningGroup = C;
unicode = 04AA;
},
{
color = 5;
glyphname = "Schwa-cy";
layers = (
{
anchors = (
{
name = top;
position = "{344, 682}";
}
);
background = {
components = (
{
name = H;
transform = "{1, 0, 0, 1, 19, -20}";
}
);
};
layerId = "63224BA1-30A4-42F4-A6D1-9160F56B91B0";
paths = (
{
closed = 1;
nodes = (
"517 -16 OFFCURVE",
"639 135 OFFCURVE",
"639 347 CURVE SMOOTH",
"639 551 OFFCURVE",
"515 697 OFFCURVE",
"340 697 CURVE SMOOTH",
"204 697 OFFCURVE",
"110 629 OFFCURVE",
"55 530 CURVE",
"117 496 LINE",
"159 574 OFFCURVE",
"225 629 OFFCURVE",
"343 629 CURVE SMOOTH",
"489 629 OFFCURVE",
"561 488 OFFCURVE",
"561 348 CURVE SMOOTH",
"561 200 OFFCURVE",
"488 53 OFFCURVE",
"345 53 CURVE SMOOTH",
"219 53 OFFCURVE",
"139 144 OFFCURVE",
"132 328 CURVE",
"90 305 LINE",
"570 305 LINE",
"586 367 LINE",
"61 367 LINE",
"45 152 OFFCURVE",
"160 -16 OFFCURVE",
"345 -16 CURVE SMOOTH"
);
}
);
width = 694;
}
);
leftKerningGroup = "Ereversed-cy";
leftMetricsKey = O;
rightKerningGroup = O;
rightMetricsKey = O;
unicode = 04D8;
},
{
color = 5;
glyphname = "Obarred-cy";
layers = (
{
anchors = (
{
name = top;
position = "{348, 682}";
}
);
background = {
components = (
{
name = H;
transform = "{1, 0, 0, 1, 0, -10}";
}
);
};
components = (
{
name = "O-cy";
}
);
layerId = "63224BA1-30A4-42F4-A6D1-9160F56B91B0";
paths = (
{
closed = 1;
nodes = (
"579 317 LINE",
"579 365 LINE",
"107 365 LINE",
"107 317 LINE"
);
}
);
width = 696;
}
);
leftKerningGroup = O;
rightKerningGroup = O;
unicode = 04E8;
},
{
color = 5;
glyphname = "be-cy";
layers = (
{
background = {
components = (
{
name = _part.roundLC;
transform = "{-1, 0, 0, 1, 544, -20}";
}
);
paths = (
{
closed = 0;
nodes = (
"412 734 LINE",
"136 655 OFFCURVE",
"80 525 OFFCURVE",
"80 397 CURVE SMOOTH",
"80 215 LINE"
);
}
);
};
layerId = "63224BA1-30A4-42F4-A6D1-9160F56B91B0";
paths = (
{
closed = 1;
nodes = (
"413 -16 OFFCURVE",
"509 84 OFFCURVE",
"509 224 CURVE SMOOTH",
"509 364 OFFCURVE",
"422 464 OFFCURVE",
"286 464 CURVE SMOOTH",
"170 464 OFFCURVE",
"74 367 OFFCURVE",
"73 225 CURVE",
"45 225 LINE",
"45 84 OFFCURVE",
"142 -16 OFFCURVE",
"278 -16 CURVE SMOOTH"
);
},
{
closed = 1;
nodes = (
"181 46 OFFCURVE",
"113 120 OFFCURVE",
"113 225 CURVE SMOOTH",
"113 337 OFFCURVE",
"181 402 OFFCURVE",
"286 402 CURVE SMOOTH",
"383 402 OFFCURVE",
"441 328 OFFCURVE",
"441 224 CURVE SMOOTH",
"441 120 OFFCURVE",
"373 46 OFFCURVE",
"276 46 CURVE SMOOTH"
);
},
{
closed = 1;
nodes = (
"108 215 LINE",
"108 327 LINE SMOOTH",
"108 541 OFFCURVE",
"190 597 OFFCURVE",
"442 676 CURVE",
"422 738 LINE",
"144 649 OFFCURVE",
"45 576 OFFCURVE",
"45 327 CURVE SMOOTH",
"45 215 LINE"
);
}
);
width = 542;
}
);
leftKerningGroup = "be-cy";
rightKerningGroup = o;
rightMetricsKey = o;
unicode = 0431;
},
{
color = 5;
glyphname = "ve-cy";
layers = (
{
background = {
paths = (
{
closed = 1;
nodes = (
"390 267 OFFCURVE",
"418 295 OFFCURVE",
"418 348 CURVE SMOOTH",
"418 420 OFFCURVE",
"359 468 OFFCURVE",
"263 468 CURVE SMOOTH",
"70 468 LINE",
"70 0 LINE",
"279 0 LINE SMOOTH",
"381 0 OFFCURVE",
"441 52 OFFCURVE",
"441 135 CURVE SMOOTH",
"441 206 OFFCURVE",
"402 251 OFFCURVE",
"329 261 CURVE",
"330 253 LINE"
);
},
{
closed = 1;
nodes = (
"263 406 LINE SMOOTH",
"313 406 OFFCURVE",
"343 385 OFFCURVE",
"343 348 CURVE SMOOTH",
"343 304 OFFCURVE",
"320 280 OFFCURVE",
"270 280 CURVE SMOOTH",
"138 280 LINE",
"138 406 LINE"
);
},
{
closed = 1;
nodes = (
"138 62 LINE",
"138 227 LINE",
"272 227 LINE SMOOTH",
"332 227 OFFCURVE",
"367 192 OFFCURVE",
"367 135 CURVE SMOOTH",
"367 91 OFFCURVE",
"332 62 OFFCURVE",
"272 62 CURVE SMOOTH"
);
}
);
};
layerId = "63224BA1-30A4-42F4-A6D1-9160F56B91B0";
paths = (
{
closed = 1;
nodes = (
"299 0 LINE SMOOTH",
"401 0 OFFCURVE",
"461 52 OFFCURVE",
"461 135 CURVE SMOOTH",
"461 206 OFFCURVE",
"422 251 OFFCURVE",
"349 261 CURVE",
"350 253 LINE",
"410 267 OFFCURVE",
"438 295 OFFCURVE",
"438 348 CURVE SMOOTH",
"438 420 OFFCURVE",
"379 468 OFFCURVE",
"283 468 CURVE SMOOTH",
"70 468 LINE",
"70 0 LINE"
);
},
{
closed = 1;
nodes = (
"138 227 LINE",
"292 227 LINE SMOOTH",
"352 227 OFFCURVE",
"387 192 OFFCURVE",
"387 135 CURVE SMOOTH",
"387 91 OFFCURVE",
"352 62 OFFCURVE",
"292 62 CURVE SMOOTH",
"138 62 LINE"
);
},
{
closed = 1;
nodes = (
"138 406 LINE",
"283 406 LINE SMOOTH",
"333 406 OFFCURVE",
"363 385 OFFCURVE",
"363 348 CURVE SMOOTH",
"363 304 OFFCURVE",
"340 280 OFFCURVE",
"290 280 CURVE SMOOTH",
"138 280 LINE"
);
}
);
width = 496;
}
);
leftKerningGroup = n;
leftMetricsKey = "en-cy";
rightKerningGroup = "ve-cy";
unicode = 0432;
},
{
color = 5;
glyphname = "ge-cy";
layers = (
{
anchors = (
{
name = bottomright;
position = "{70, 0}";
},
{
name = center;
position = "{139, 235}";
},
{
name = top;
position = "{248, 468}";
}
);
background = {
components = (
{
name = n;
transform = "{1, 0, 0, 1, -93, 0}";
}
);
};
layerId = "63224BA1-30A4-42F4-A6D1-9160F56B91B0";
paths = (
{
closed = 1;
nodes = (
"138 0 LINE",
"138 406 LINE",
"382 406 LINE",
"382 468 LINE",
"70 468 LINE",
"70 0 LINE"
);
}
);
width = 397;
}
);
leftKerningGroup = n;
leftMetricsKey = "en-cy";
rightKerningGroup = "ge-cy";
unicode = 0433;
},
{
color = 5;
glyphname = "gheupturn-cy";
layers = (
{
background = {
paths = (
{
closed = 1;
nodes = (
"357 590 LINE",
"293 590 LINE",
"293 468 LINE",
"232 406 LINE",
"357 406 LINE"
);
}
);
};
layerId = "63224BA1-30A4-42F4-A6D1-9160F56B91B0";
paths = (
{
closed = 1;
nodes = (
"138 0 LINE",
"138 406 LINE",
"357 406 LINE",
"357 590 LINE",
"293 590 LINE",
"293 468 LINE",
"70 468 LINE",
"70 0 LINE"
);
}
);
width = 372;
}
);
leftKerningGroup = n;
leftMetricsKey = "en-cy";
rightKerningGroup = "ge-cy";
rightMetricsKey = "ge-cy";
unicode = 0491;
},
{
color = 5;
glyphname = "de-cy";
layers = (
{
background = {
components = (
{
name = "tse-cy";
transform = "{1, 0, 0, 1, 9, 0}";
}
);
};
layerId = "63224BA1-30A4-42F4-A6D1-9160F56B91B0";
paths = (
{
closed = 1;
nodes = (
"451 0 LINE",
"451 468 LINE",
"140 468 LINE",
"140 359 LINE SMOOTH",
"140 153 OFFCURVE",
"107 62 OFFCURVE",
"50 62 CURVE",
"50 14 LINE",
"170 14 OFFCURVE",
"204 158 OFFCURVE",
"204 340 CURVE SMOOTH",
"204 406 LINE",
"383 406 LINE",
"383 0 LINE"
);
},
{
closed = 1;
nodes = (
"89 -122 LINE",
"89 0 LINE",
"442 0 LINE",
"444 0 LINE",
"444 -122 LINE",
"508 -122 LINE",
"508 62 LINE",
"25 62 LINE",
"25 -122 LINE"
);
}
);
width = 545;
}
);
leftKerningGroup = "de-cy";
rightKerningGroup = "tse-cy";
unicode = 0434;
},
{
color = 5;
glyphname = "zhe-cy";
layers = (
{
anchors = (
{
name = bottomright;
position = "{560, 0}";
},
{
name = top;
position = "{345, 468}";
}
);
background = {
paths = (
{
closed = 1;
nodes = (
"508 246 LINE",
"678 468 LINE",
"602 468 LINE",
"456 274 LINE",
"380 274 LINE",
"380 468 LINE",
"312 468 LINE",
"312 274 LINE",
"236 274 LINE",
"90 468 LINE",
"14 468 LINE",
"184 246 LINE",
"-5 0 LINE",
"72 0 LINE",
"237 212 LINE",
"312 212 LINE",
"312 0 LINE",
"380 0 LINE",
"380 212 LINE",
"455 212 LINE",
"620 0 LINE",
"697 0 LINE"
);
}
);
};
layerId = "63224BA1-30A4-42F4-A6D1-9160F56B91B0";
paths = (
{
closed = 1;
nodes = (
"92 0 LINE",
"247 212 LINE",
"312 212 LINE",
"312 0 LINE",
"380 0 LINE",
"380 212 LINE",
"445 212 LINE",
"600 0 LINE",
"677 0 LINE",
"498 246 LINE",
"658 468 LINE",
"582 468 LINE",
"446 274 LINE",
"380 274 LINE",
"380 468 LINE",
"312 468 LINE",
"312 274 LINE",
"246 274 LINE",
"110 468 LINE",
"34 468 LINE",
"194 246 LINE",
"15 0 LINE"
);
}
);
width = 692;
}
);
leftKerningGroup = x;
leftMetricsKey = "=|ka-cy";
rightKerningGroup = x;
rightMetricsKey = "ka-cy";
unicode = 0436;
},
{
color = 5;
glyphname = "ze-cy";
layers = (
{
anchors = (
{
name = bottom;
position = "{228, 0}";
},
{
name = top;
position = "{218, 468}";
}
);
background = {
paths = (
{
closed = 1;
nodes = (
"345 274 OFFCURVE",
"368 305 OFFCURVE",
"368 358 CURVE SMOOTH",
"368 434 OFFCURVE",
"309 484 OFFCURVE",
"218 484 CURVE SMOOTH",
"157 484 OFFCURVE",
"92 449 OFFCURVE",
"51 390 CURVE",
"99 352 LINE",
"131 394 OFFCURVE",
"162 422 OFFCURVE",
"218 422 CURVE SMOOTH",
"263 422 OFFCURVE",
"293 399 OFFCURVE",
"293 358 CURVE SMOOTH",
"293 308 OFFCURVE",
"270 280 OFFCURVE",
"220 280 CURVE SMOOTH",
"184 280 LINE",
"184 227 LINE",
"222 227 LINE SMOOTH",
"282 227 OFFCURVE",
"317 192 OFFCURVE",
"317 135 CURVE SMOOTH",
"317 75 OFFCURVE",
"280 46 OFFCURVE",
"218 46 CURVE SMOOTH",
"163 46 OFFCURVE",
"119 70 OFFCURVE",
"93 111 CURVE",
"40 74 LINE",
"80 16 OFFCURVE",
"148 -16 OFFCURVE",
"218 -16 CURVE SMOOTH",
"326 -16 OFFCURVE",
"391 43 OFFCURVE",
"391 135 CURVE SMOOTH",
"391 200 OFFCURVE",
"358 243 OFFCURVE",
"296 258 CURVE"
);
}
);
};
layerId = "63224BA1-30A4-42F4-A6D1-9160F56B91B0";
paths = (
{
closed = 1;
nodes = (
"326 -16 OFFCURVE",
"391 39 OFFCURVE",
"391 125 CURVE SMOOTH",
"391 190 OFFCURVE",
"355 230 OFFCURVE",
"293 247 CURVE",
"342 263 OFFCURVE",
"371 300 OFFCURVE",
"371 348 CURVE SMOOTH",
"371 434 OFFCURVE",
"305 484 OFFCURVE",
"220 484 CURVE SMOOTH",
"149 484 OFFCURVE",
"92 449 OFFCURVE",
"51 390 CURVE",
"99 352 LINE",
"129 395 OFFCURVE",
"162 422 OFFCURVE",
"218 422 CURVE SMOOTH",
"269 422 OFFCURVE",
"303 399 OFFCURVE",
"303 348 CURVE SMOOTH",
"303 298 OFFCURVE",
"277 270 OFFCURVE",
"220 270 CURVE SMOOTH",
"184 270 LINE",
"184 217 LINE",
"222 217 LINE SMOOTH",
"282 217 OFFCURVE",
"317 183 OFFCURVE",
"317 126 CURVE SMOOTH",
"317 72 OFFCURVE",
"280 46 OFFCURVE",
"218 46 CURVE SMOOTH",
"163 46 OFFCURVE",
"119 70 OFFCURVE",
"93 111 CURVE",
"40 74 LINE",
"80 16 OFFCURVE",
"148 -16 OFFCURVE",
"218 -16 CURVE SMOOTH"
);
}
);
width = 416;
}
);
leftKerningGroup = "ze-cy";
rightKerningGroup = "ve-cy";
unicode = 0437;
},
{
color = 5;
glyphname = "ii-cy";
layers = (
{
anchors = (
{
name = bottomright;
position = "{516, 0}";
},
{
name = top;
position = "{272, 468}";
}
);
background = {
paths = (
{
closed = 1;
nodes = (
"138 0 LINE",
"138 212 LINE",
"416 212 LINE",
"416 0 LINE",
"484 0 LINE",
"484 468 LINE",
"416 468 LINE",
"416 274 LINE",
"138 274 LINE",
"138 468 LINE",
"70 468 LINE",
"70 0 LINE"
);
}
);
};
layerId = "63224BA1-30A4-42F4-A6D1-9160F56B91B0";
paths = (
{
closed = 1;
nodes = (
"138 0 LINE",
"442 408 LINE",
"416 431 LINE",
"416 0 LINE",
"484 0 LINE",
"484 468 LINE",
"416 468 LINE",
"112 55 LINE",
"138 32 LINE",
"138 468 LINE",
"70 468 LINE",
"70 0 LINE"
);
}
);
width = 554;
}
);
leftKerningGroup = n;
leftMetricsKey = "en-cy";
rightKerningGroup = u;
rightMetricsKey = "en-cy";
unicode = 0438;
},
{
color = 5;
glyphname = "ka-cy";
layers = (
{
anchors = (
{
name = bottomright;
position = "{331, 0}";
},
{
name = center;
position = "{179, 244}";
},
{
name = top;
position = "{232, 468}";
}
);
background = {
paths = (
{
closed = 1;
nodes = (
"131 0 LINE",
"131 212 LINE",
"259 212 LINE",
"259 274 LINE",
"131 274 LINE",
"131 468 LINE",
"63 468 LINE",
"63 0 LINE"
);
},
{
closed = 1;
nodes = (
"131 0 LINE",
"131 468 LINE",
"63 468 LINE",
"63 0 LINE"
);
},
{
closed = 1;
nodes = (
"242 247 LINE",
"412 468 LINE",
"336 468 LINE",
"166 245 LINE",
"354 0 LINE",
"431 0 LINE"
);
}
);
};
layerId = "63224BA1-30A4-42F4-A6D1-9160F56B91B0";
paths = (
{
closed = 1;
nodes = (
"448 0 LINE",
"259 246 LINE",
"429 468 LINE",
"353 468 LINE",
"183 242 LINE",
"371 0 LINE"
);
},
{
closed = 1;
nodes = (
"131 0 LINE",
"131 212 LINE",
"259 212 LINE",
"259 274 LINE",
"131 274 LINE",
"131 468 LINE",
"63 468 LINE",
"63 0 LINE"
);
}
);
width = 463;
}
);
leftKerningGroup = n;
rightKerningGroup = k;
unicode = 043A;
},
{
color = 5;
glyphname = "el-cy";
layers = (
{
layerId = "63224BA1-30A4-42F4-A6D1-9160F56B91B0";
paths = (
{
closed = 1;
nodes = (
"53 0 LINE SMOOTH",
"180 0 OFFCURVE",
"210 158 OFFCURVE",
"210 340 CURVE SMOOTH",
"210 406 LINE",
"386 406 LINE",
"386 0 LINE",
"454 0 LINE",
"454 468 LINE",
"146 468 LINE",
"146 359 LINE SMOOTH",
"146 153 OFFCURVE",
"110 62 OFFCURVE",
"56 62 CURVE SMOOTH",
"25 62 LINE",
"25 0 LINE"
);
}
);
width = 514;
}
);
leftKerningGroup = "el-cy";
rightKerningGroup = u;
unicode = 043B;
},
{
color = 5;
glyphname = "em-cy";
layers = (
{
background = {
components = (
{
name = "en-cy";
transform = "{1, 0, 0, 1, 88, 0}";
}
);
};
layerId = "63224BA1-30A4-42F4-A6D1-9160F56B91B0";
paths = (
{
closed = 1;
nodes = (
"138 0 LINE",
"138 407 LINE",
"113 407 LINE",
"290 55 LINE",
"334 55 LINE",
"516 406 LINE",
"494 406 LINE",
"494 0 LINE",
"562 0 LINE",
"562 468 LINE",
"490 468 LINE",
"294 91 LINE",
"338 91 LINE",
"147 468 LINE",
"70 468 LINE",
"70 0 LINE"
);
}
);
width = 632;
}
);
leftKerningGroup = n;
leftMetricsKey = "en-cy";
rightKerningGroup = u;
rightMetricsKey = "en-cy";
unicode = 043C;
},
{
color = 5;
glyphname = "en-cy";
layers = (
{
anchors = (
{
name = bottomright;
position = "{417, 0}";
}
);
background = {
components = (
{
name = n;
transform = "{1, 0, 0, 1, 7, 0}";
}
);
};
layerId = "63224BA1-30A4-42F4-A6D1-9160F56B91B0";
paths = (
{
closed = 1;
nodes = (
"138 0 LINE",
"138 212 LINE",
"416 212 LINE",
"416 0 LINE",
"484 0 LINE",
"484 468 LINE",
"416 468 LINE",
"416 274 LINE",
"138 274 LINE",
"138 468 LINE",
"70 468 LINE",
"70 0 LINE"
);
}
);
width = 554;
}
);
leftKerningGroup = n;
rightKerningGroup = n;
unicode = 043D;
},
{
color = 5;
glyphname = "pe-cy";
layers = (
{
anchors = (
{
name = bottomright;
position = "{396, 0}";
}
);
layerId = "63224BA1-30A4-42F4-A6D1-9160F56B91B0";
paths = (
{
closed = 1;
nodes = (
"138 0 LINE",
"138 406 LINE",
"396 406 LINE",
"396 0 LINE",
"464 0 LINE",
"464 468 LINE",
"70 468 LINE",
"70 0 LINE"
);
}
);
width = 534;
}
);
leftKerningGroup = n;
leftMetricsKey = "en-cy";
rightKerningGroup = u;
rightMetricsKey = "en-cy";
unicode = 043F;
},
{
color = 5;
glyphname = "ef-cy";
layers = (
{
background = {
paths = (
{
closed = 1;
nodes = (
"285 56 LINE",
"178 56 OFFCURVE",
"102 124 OFFCURVE",
"102 235 CURVE SMOOTH",
"102 345 OFFCURVE",
"178 412 OFFCURVE",
"285 412 CURVE",
"285 474 LINE",
"138 474 OFFCURVE",
"34 381 OFFCURVE",
"34 235 CURVE SMOOTH",
"34 89 OFFCURVE",
"138 -5 OFFCURVE",
"285 -6 CURVE"
);
},
{
closed = 1;
nodes = (
"500 -5 OFFCURVE",
"604 89 OFFCURVE",
"604 235 CURVE SMOOTH",
"604 381 OFFCURVE",
"500 474 OFFCURVE",
"353 474 CURVE",
"353 412 LINE",
"460 412 OFFCURVE",
"536 345 OFFCURVE",
"536 235 CURVE SMOOTH",
"536 124 OFFCURVE",
"460 56 OFFCURVE",
"353 56 CURVE",
"353 -6 LINE"
);
}
);
};
layerId = "63224BA1-30A4-42F4-A6D1-9160F56B91B0";
paths = (
{
closed = 1;
nodes = (
"500 -5 OFFCURVE",
"604 89 OFFCURVE",
"604 235 CURVE SMOOTH",
"604 381 OFFCURVE",
"500 474 OFFCURVE",
"353 474 CURVE",
"353 415 LINE",
"460 415 OFFCURVE",
"536 345 OFFCURVE",
"536 235 CURVE SMOOTH",
"536 124 OFFCURVE",
"460 53 OFFCURVE",
"353 53 CURVE",
"353 -6 LINE"
);
},
{
closed = 1;
nodes = (
"285 53 LINE",
"178 53 OFFCURVE",
"102 124 OFFCURVE",
"102 235 CURVE SMOOTH",
"102 345 OFFCURVE",
"178 415 OFFCURVE",
"285 415 CURVE",
"285 474 LINE",
"138 474 OFFCURVE",
"34 381 OFFCURVE",
"34 235 CURVE SMOOTH",
"34 89 OFFCURVE",
"138 -5 OFFCURVE",
"285 -6 CURVE"
);
},
{
closed = 1;
nodes = (
"353 -200 LINE",
"353 682 LINE",
"285 682 LINE",
"285 -200 LINE"
);
}
);
width = 637;
}
);
leftKerningGroup = o;
leftMetricsKey = o;
rightKerningGroup = o;
rightMetricsKey = o;
unicode = 0444;
},
{
color = 5;
glyphname = "che-cy";
layers = (
{
anchors = (
{
name = bottomright;
position = "{364, 0}";
},
{
name = center;
position = "{245, 181}";
},
{
name = top;
position = "{252, 468}";
}
);
background = {
paths = (
{
closed = 1;
nodes = (
"351 140 OFFCURVE",
"406 194 OFFCURVE",
"406 270 CURVE",
"371 270 LINE",
"371 230 OFFCURVE",
"339 202 OFFCURVE",
"267 202 CURVE SMOOTH",
"198 202 OFFCURVE",
"143 235 OFFCURVE",
"143 341 CURVE SMOOTH",
"143 468 LINE",
"75 468 LINE",
"75 311 LINE SMOOTH",
"75 201 OFFCURVE",
"159 140 OFFCURVE",
"256 140 CURVE SMOOTH"
);
}
);
};
layerId = "63224BA1-30A4-42F4-A6D1-9160F56B91B0";
paths = (
{
closed = 1;
nodes = (
"322 150 OFFCURVE",
"399 200 OFFCURVE",
"399 270 CURVE",
"364 270 LINE",
"364 236 OFFCURVE",
"308 212 OFFCURVE",
"248 212 CURVE SMOOTH",
"157 212 OFFCURVE",
"123 235 OFFCURVE",
"123 341 CURVE SMOOTH",
"123 468 LINE",
"55 468 LINE",
"55 321 LINE SMOOTH",
"55 201 OFFCURVE",
"130 150 OFFCURVE",
"226 150 CURVE SMOOTH"
);
},
{
closed = 1;
nodes = (
"433 0 LINE",
"433 468 LINE",
"364 468 LINE",
"364 0 LINE"
);
}
);
width = 503;
}
);
leftKerningGroup = "che-cy";
rightKerningGroup = u;
rightMetricsKey = "en-cy";
unicode = 0447;
},
{
color = 5;
glyphname = "tse-cy";
layers = (
{
background = {
paths = (
{
closed = 1;
nodes = (
"138 0 LINE",
"138 406 LINE",
"396 406 LINE",
"396 0 LINE",
"464 0 LINE",
"464 468 LINE",
"70 468 LINE",
"70 0 LINE"
);
}
);
};
layerId = "63224BA1-30A4-42F4-A6D1-9160F56B91B0";
paths = (
{
closed = 1;
nodes = (
"506 -122 LINE",
"506 62 LINE",
"449 62 LINE",
"449 468 LINE",
"381 468 LINE",
"381 62 LINE",
"138 62 LINE",
"138 468 LINE",
"70 468 LINE",
"70 0 LINE",
"442 0 LINE",
"442 -122 LINE"
);
}
);
width = 531;
}
);
leftKerningGroup = n;
leftMetricsKey = "en-cy";
rightKerningGroup = "tse-cy";
unicode = 0446;
},
{
color = 5;
glyphname = "sha-cy";
layers = (
{
layerId = "63224BA1-30A4-42F4-A6D1-9160F56B91B0";
paths = (
{
closed = 1;
nodes = (
"627 0 LINE",
"627 468 LINE",
"559 468 LINE",
"559 62 LINE",
"379 62 LINE",
"379 468 LINE",
"311 468 LINE",
"311 62 LINE",
"131 62 LINE",
"131 468 LINE",
"63 468 LINE",
"63 0 LINE"
);
}
);
width = 689;
}
);
leftKerningGroup = n;
rightKerningGroup = u;
unicode = 0448;
},
{
color = 5;
glyphname = "shcha-cy";
layers = (
{
layerId = "63224BA1-30A4-42F4-A6D1-9160F56B91B0";
paths = (
{
closed = 1;
nodes = (
"684 -122 LINE",
"684 62 LINE",
"627 62 LINE",
"627 468 LINE",
"559 468 LINE",
"559 62 LINE",
"379 62 LINE",
"379 468 LINE",
"311 468 LINE",
"311 62 LINE",
"131 62 LINE",
"131 468 LINE",
"63 468 LINE",
"63 0 LINE",
"379 0 LINE",
"620 0 LINE",
"620 -122 LINE"
);
}
);
width = 712;
}
);
leftKerningGroup = n;
rightKerningGroup = "tse-cy";
unicode = 0449;
},
